<svg xmlns="http://www.w3.org/2000/svg" width="720" height="960" fill="none"><g stroke="#6A6AF4" opacity=".3"><path stroke-dasharray="3 3" d="m281.558-137.263-2.623-1.491-.248.434-1.065-.605-1.073.606-.246-.435-2.638 1.491.246.435-2.638 1.491-.246-.435-2.639 1.491.246.435-2.638 1.491-.246-.435-2.638 1.491.246.435-2.639 1.491-.246-.435-2.638 1.491.246.435-2.639 1.491-.246-.435-2.638 1.491.246.435-2.638 1.492-.246-.436-2.639 1.491.246.436-2.638 1.491-.246-.436-2.638 1.491.246.436-2.639 1.491-.246-.435-2.638 1.491.246.435-2.638 1.491-.246-.435-2.639 1.491.246.435-2.638 1.491-.246-.435-2.639 1.491.246.435-2.638 1.491-.246-.435-2.638 1.491.246.435-2.639 1.491-.246-.435-2.638 1.491.246.435-2.638 1.492-.246-.436-2.639 1.491.246.436-2.638 1.49-.246-.435-2.638 1.491.246.436-2.639 1.49-.246-.434-2.638 1.49.246.436-2.639 1.491-.246-.435-2.638 1.49.246.436-2.638 1.491-.246-.435-2.639 1.49.246.436-2.638 1.491-.246-.435-2.638 1.491.246.435-2.639 1.491-.246-.435-2.638 1.491.246.435-2.638 1.492-.246-.436-2.639 1.491.246.436-2.638 1.49-.246-.435-2.639 1.491.246.436-2.638 1.49-.246-.434-2.638 1.49.246.436-2.639 1.491-.246-.435-2.638 1.49.246.436-2.638 1.491-.246-.435-2.639 1.49.246.436-2.638 1.491-.246-.435-2.638 1.491.246.435-2.639 1.491-.246-.435-2.638 1.491.246.435-2.639 1.492-.246-.436-2.638 1.491.246.436-2.638 1.49-.246-.435-2.639 1.491.246.436-2.638 1.49-.246-.434-2.638 1.49.246.436-2.639 1.491-.246-.435-2.638 1.49.246.436-2.638 1.491-.246-.435-2.639 1.49.246.436-2.638 1.491-.246-.435-2.638 1.491.246.435-2.639 1.491-.246-.435-2.638 1.491.246.435-2.639 1.492-.246-.436-2.638 1.491.246.436-2.638 1.49-.246-.435-2.639 1.491.246.436-2.638 1.49-.246-.434-2.638 1.49.246.436-2.639 1.49-.246-.434-2.638 1.49.246.436-2.638 1.491-.246-.435-2.639 1.49.246.436-2.638 1.491-.246-.435-2.638 1.491.245.435-2.638 1.491-.246-.435-2.638 1.491.246.435-2.639 1.491-.246-.435-2.638 1.491.246.436-2.638 1.49-.246-.435-2.639 1.491.246.436-1.065.602v1.2H56v2.981h.5v2.982H56v2.983h.5V-.83H56v2.982h.5v2.982H56v2.982h.5v2.982H56v2.982h.5v2.983H56v2.982h.5v2.982H56v2.982h.5v2.982H56v2.982h.5v2.982H56v2.983h.5v2.982H56v2.982h.5v2.982H56v2.982h.5v2.982H56v2.982h.5v2.983H56v2.982h.5v2.982H56v2.982h.5v2.982H56v2.982h.5v2.982H56v2.983h.5v2.982H56v2.982h.5v2.982H56v2.982h.5v2.982H56v2.982h.5v2.982H56v2.983h.5v2.982H56v2.982h.5v2.982H56v2.982h.5v2.982H56v2.982h.5v2.983H56v2.982h.5v2.982H56v2.982h.5v2.982H56v2.982h.5v2.982H56v2.983h.5v2.982H56v2.982h.5v2.982H56v2.982h.5v2.982H56v2.983h.5v2.982H56v2.982h.5v2.982H56v2.982h.5v2.982H56v2.982h.5v2.983H56v2.982h.5v2.982H56v2.982h.5v2.982H56v2.982h.5v2.982H56v2.983h.5v2.982H56v2.982h.5v2.982H56v2.982h.5v2.982H56v2.982h.5v2.983H56v2.982h.5v2.982H56v2.982h.5v1.199l1.065.602-.246.436 2.639 1.491.246-.436 2.638 1.491-.246.436 2.638 1.491.246-.436 2.639 1.492-.246.435 2.638 1.491.246-.435 2.638 1.491-.246.435 2.639 1.491.246-.435 2.638 1.491-.246.435 2.638 1.491.247-.435 2.638 1.491-.246.435 2.638 1.491.246-.435 2.639 1.491-.246.435 2.638 1.491.246-.435 2.638 1.491-.246.436 2.639 1.491.246-.436 2.638 1.491-.246.436 2.638 1.491.246-.436 2.639 1.492-.246.435 2.638 1.491.246-.435 2.638 1.491-.246.435 2.639 1.491.246-.435 2.638 1.491-.246.435 2.639 1.491.246-.435 2.638 1.491-.246.435 2.638 1.491.246-.435 2.639 1.491-.246.435 2.638 1.491.246-.435 2.638 1.491-.246.436 2.639 1.491.246-.436 2.638 1.491-.246.436 2.638 1.491.246-.436 2.639 1.492-.246.435 2.638 1.491.246-.435 2.639 1.491-.246.435 2.638 1.491.246-.435 2.638 1.491-.246.435 2.639 1.491.246-.435 2.638 1.491-.246.435 2.638 1.491.246-.435 2.639 1.491-.246.435 2.638 1.491.246-.435 2.639 1.491-.246.436 2.638 1.491.246-.436 2.638 1.491-.246.436 2.639 1.491.246-.436 2.638 1.492-.246.435 2.638 1.491.246-.435 2.639 1.491-.246.435 2.638 1.491.246-.435 2.638 1.491-.246.435 2.639 1.491.246-.435 2.638 1.491-.246.435 2.638 1.491.246-.435 2.639 1.491-.246.435 2.638 1.491.246-.435 2.639 1.491-.246.436 2.638 1.491.246-.436 2.638 1.491-.246.436 2.639 1.491.246-.436 2.638 1.492-.246.435 2.638 1.491.246-.435 2.639 1.491-.246.435 2.638 1.491.246-.435 2.638 1.491-.246.435 2.639 1.491.246-.435 2.638 1.491-.246.435 2.638 1.491.246-.435 2.639 1.491-.246.435 2.638 1.491.246-.435 2.639 1.491-.246.435 2.638 1.492.246-.436 2.638 1.491-.246.436 2.639 1.491.246-.436 2.638 1.491-.246.436 2.638 1.491.246-.435 2.639 1.491-.246.435 2.638 1.491.246-.435 2.638 1.491-.246.435 2.639 1.491.246-.435 2.638 1.491-.246.435 2.639 1.491.246-.435 2.638 1.491-.246.435 2.638 1.491.246-.435 1.073.606 1.065-.605.247.434 2.624-1.491-.247-.434 2.623-1.491.247.434 2.624-1.491-.247-.434 2.623-1.492.248.435 2.623-1.491-.247-.435 2.624-1.491.247.435 2.623-1.491-.247-.435 2.624-1.491.247.435 2.623-1.491-.247-.435 2.624-1.491.247.435 2.623-1.491-.247-.435 2.624-1.491.247.435 2.623-1.491-.247-.435 2.624-1.491.247.434 2.623-1.491-.247-.434 2.624-1.491.247.434 2.624-1.491-.248-.434 2.624-1.492.247.435 2.624-1.491-.247-.435 2.623-1.491.247.435 2.624-1.491-.247-.435 2.623-1.491.247.435 2.624-1.491-.247-.435 2.623-1.491.247.435 2.624-1.491-.247-.435 2.623-1.491.247.435 2.624-1.491-.247-.435 2.623-1.491.247.434 2.624-1.491-.247-.434 2.623-1.491.248.434 2.623-1.491-.247-.434 2.624-1.492.247.435 2.623-1.491-.247-.435 2.624-1.491.247.435 2.623-1.491-.247-.435 2.624-1.491.247.435 2.623-1.491-.247-.435 2.624-1.491.247.435 2.623-1.491-.247-.435 2.624-1.491.247.435 2.623-1.491-.247-.435 2.624-1.491.247.434 2.624-1.491-.248-.434 2.624-1.491.247.434 2.624-1.491-.247-.434 2.623-1.491.247.434 2.624-1.491-.247-.435 2.623-1.491.247.435 2.624-1.491-.247-.435 2.623-1.491.247.435 2.624-1.491-.247-.435 2.623-1.491.247.435 2.624-1.491-.247-.435 2.623-1.491.247.435 2.624-1.491-.247-.435 2.623-1.491.248.435 2.623-1.492-.247-.434 2.624-1.491.247.434 2.623-1.491-.247-.434 2.624-1.491.247.434 2.623-1.491-.247-.435 2.624-1.491.247.435 2.623-1.491-.247-.435 2.624-1.491.247.435 2.623-1.491-.247-.435 2.624-1.491.247.435 2.623-1.491-.247-.435 2.624-1.491.247.435 2.623-1.491-.247-.435 2.624-1.491.247.435 2.624-1.492-.247-.434 2.623-1.491.247.434 2.624-1.491-.247-.434 2.623-1.491.247.434 2.624-1.491-.247-.434 2.623-1.492.247.435 2.624-1.491-.247-.435 2.623-1.491.247.435 2.624-1.491-.247-.435 2.623-1.491.247.435 2.624-1.491-.247-.435 2.623-1.491.248.435 2.623-1.491-.247-.435 1.059-.602v-1.2h.5v-2.982h-.5v-2.982h.5v-2.983h-.5v-2.982h.5v-2.982h-.5v-2.982h.5v-2.982h-.5v-2.982h.5v-2.982h-.5v-2.982h.5v-2.983h-.5v-2.982h.5v-2.982h-.5v-2.982h.5v-2.982h-.5v-2.982h.5v-2.983h-.5v-2.982h.5v-2.982h-.5v-2.982h.5v-2.982h-.5v-2.982h.5v-2.982h-.5v-2.982h.5v-2.983h-.5v-2.982h.5v-2.982h-.5v-2.982h.5v-2.982h-.5v-2.982h.5v-2.982h-.5v-2.983h.5v-2.982h-.5v-2.982h.5v-2.982h-.5v-2.982h.5v-2.982h-.5v-2.982h.5v-2.983h-.5v-2.982h.5v-2.982h-.5v-2.982h.5v-2.982h-.5v-2.982h.5v-2.982h-.5V97.58h.5v-2.982h-.5v-2.982h.5v-2.982h-.5v-2.982h.5V82.67h-.5v-2.983h.5v-2.982h-.5v-2.982h.5v-2.982h-.5V67.76h.5v-2.982h-.5v-2.982h.5v-2.983h-.5V55.83h.5v-2.982h-.5v-2.982h.5v-2.982h-.5v-2.982h.5V40.92h-.5v-2.983h.5v-2.982h-.5v-2.982h.5v-2.982h-.5v-2.982h.5v-2.982h-.5v-2.982h.5v-2.983h-.5V14.08h.5v-2.982h-.5V8.116h.5V5.134h-.5V2.152h.5V-.83h-.5v-2.983h.5v-2.982h-.5v-2.982h.5v-2.982h-.5v-1.2l-1.059-.602.247-.434-2.623-1.492-.247.435-2.624-1.491.247-.435-2.623-1.49-.247.434-2.624-1.491.247-.435-2.623-1.49-.248.434-2.623-1.491.247-.435-2.624-1.491-.247.435-2.623-1.491.247-.435-2.624-1.491-.247.434-2.623-1.49.247-.435-2.624-1.491-.247.434-2.623-1.49.247-.435-2.624-1.492-.247.435-2.623-1.49.247-.435-2.624-1.492-.247.435-2.623-1.491.247-.435-2.624-1.49-.247.434-2.624-1.491.247-.435-2.623-1.49-.247.434-2.624-1.491.247-.435-2.623-1.491-.247.435-2.624-1.491.247-.435-2.623-1.491-.247.434-2.624-1.49.247-.435-2.623-1.491-.247.434-2.624-1.49.247-.435-2.623-1.492-.247.435-2.624-1.49.247-.435-2.623-1.492-.247.435-2.624-1.491.247-.435-2.624-1.49-.247.434-2.623-1.491.247-.435-2.624-1.49-.247.434-2.623-1.491.247-.435-2.624-1.491-.247.435-2.623-1.491.247-.435-2.624-1.491-.247.434-2.623-1.49.247-.435-2.624-1.491-.247.434-2.623-1.49.247-.435-2.624-1.491-.247.434-2.623-1.49.247-.436-2.624-1.49-.247.434-2.624-1.49.248-.436-2.624-1.49-.247.434-2.624-1.491.247-.435-2.623-1.49-.247.434-2.624-1.491.247-.435-2.623-1.491-.247.435-2.624-1.491.247-.435-2.623-1.491-.247.435-2.624-1.492.247-.434-2.623-1.491-.247.434-2.624-1.49.247-.435-2.623-1.491-.247.434-2.624-1.49.247-.436-2.623-1.49-.248.434-2.623-1.491.247-.435-2.624-1.491-.247.435-2.623-1.491.247-.435-2.624-1.491-.247.435-2.623-1.491.247-.435-2.624-1.491-.247.435-2.623-1.491.247-.435-2.624-1.491-.247.435-2.623-1.491.247-.435-2.624-1.491-.247.434-2.623-1.491.247-.434-2.624-1.491-.247.434-2.624-1.491.248-.434-2.624-1.492-.247.435-2.624-1.491.247-.435-2.623-1.491-.247.435-2.624-1.491.247-.435-2.623-1.491-.247.435-2.624-1.491.247-.435-2.623-1.491-.247.435-2.624-1.491.247-.435-2.623-1.491-.247.435-2.624-1.491.247-.435-2.623-1.491-.247.434-2.624-1.491z"/><path d="M-279.5 723.709V186.291L194.332-82.425 665.5 186.29v537.42L194.332 992.425z"/><path stroke-dasharray="4 4" stroke-width="1.5" d="m670.84 392.971-3.475-1.981-.371.652-1.367-.779-1.376.78-.37-.653-3.494 1.981.37.652-3.494 1.981-.37-.653-3.494 1.981.369.652-3.494 1.981-.37-.653-3.494 1.981.37.652-3.494 1.981-.37-.653-3.494 1.981.37.652-3.495 1.98-.369-.652-3.495 1.98.37.653-3.494 1.98-.37-.652-3.494 1.98.37.653-3.494 1.98-.37-.652-3.494 1.98.369.653-3.494 1.98-.37-.652-3.494 1.98.37.653-3.494 1.98-.37-.652-3.494 1.98.37.653-3.495 1.98-.369-.652-3.495 1.98.37.653-3.494 1.98-.37-.652-3.494 1.98.37.653-3.494 1.98-.37-.652-3.494 1.98.37.652-3.495 1.981-.369-.653-3.495 1.981.37.652-3.494 1.981-.37-.653-3.494 1.981.37.652-3.494 1.981-.37-.653-3.494 1.981.369.652-3.494 1.981-.37-.653-3.494 1.981.37.652-3.494 1.981-.37-.653-3.494 1.981.37.652-3.495 1.981-.369-.653-3.495 1.981.37.652-3.494 1.981-.37-.653-3.494 1.981.37.652-3.494 1.981-.37-.653-3.494 1.981.37.652-3.495 1.98-.369-.652-3.495 1.98.37.653-3.494 1.98-.37-.652-3.494 1.98.37.653-3.494 1.98-.37-.652-3.494 1.98.369.653-3.494 1.98-.37-.652-3.494 1.98.37.653-3.494 1.98-.37-.652-3.494 1.98.37.653-3.495 1.98-.369-.652-3.495 1.98.37.653-3.494 1.98-.37-.652-3.494 1.98.37.653-3.494 1.98-.37-.652-3.494 1.98.369.652-3.494 1.981-.37-.653-3.494 1.981.37.652-3.494 1.981-.37-.653-3.494 1.981.37.652-3.494 1.981-.37-.653-3.494 1.981.369.652-3.494 1.981-.37-.653-3.494 1.981.37.652-1.367.775v1.543H442v3.961h.75v3.961H442v3.961h.75v3.961H442v3.961h.75v3.961H442v3.961h.75v3.961H442v3.961h.75v3.961H442v3.961h.75v3.961H442v3.961h.75v3.961H442v3.961h.75v3.96H442v3.961h.75v3.961H442v3.961h.75v3.961H442v3.961h.75v3.961H442v3.961h.75v3.961H442v3.961h.75v3.961H442v3.961h.75v3.961H442v3.961h.75v3.961H442v3.961h.75v3.96H442v3.961h.75v3.961H442v3.961h.75v3.961H442v3.961h.75v3.961H442v3.961h.75v3.961H442v3.961h.75v3.961H442v3.961h.75v3.961H442v3.961h.75v3.961H442v3.961h.75v3.96H442v3.961h.75v3.961H442v3.961h.75v3.961H442v3.961h.75v3.961H442v3.961h.75v3.961H442v3.961h.75v3.961H442v3.961h.75v3.961H442v3.961h.75v3.961H442v3.961h.75v1.543l1.367.775-.37.652 3.494 1.981.37-.653 3.494 1.981-.37.652 3.495 1.981.369-.653 3.495 1.981-.37.652 3.494 1.981.37-.653 3.494 1.981-.37.652 3.494 1.981.37-.653 3.494 1.98-.369.653 3.494 1.98.37-.652 3.494 1.98-.37.653 3.494 1.98.37-.652 3.494 1.98-.37.653 3.495 1.98.369-.652 3.495 1.98-.37.653 3.494 1.98.37-.652 3.494 1.98-.37.653 3.494 1.98.37-.652 3.494 1.98-.369.653 3.494 1.98.37-.652 3.494 1.98-.37.653 3.494 1.98.37-.652 3.494 1.98-.37.653 3.494 1.98.37-.652 3.494 1.98-.369.652 3.494 1.981.37-.653 3.494 1.981-.37.652 3.494 1.981.37-.653 3.494 1.981-.37.652 3.495 1.981.369-.653 3.495 1.981-.37.652 3.494 1.981.37-.653 3.494 1.981-.37.652 3.494 1.981.37-.653 3.494 1.981-.369.652 3.494 1.981.37-.653 3.494 1.981-.37.652 3.494 1.981.37-.653 3.494 1.981-.37.652 3.495 1.981.369-.653 3.495 1.98-.37.653 3.494 1.98.37-.652 3.494 1.98-.37.653 3.494 1.98.37-.652 3.494 1.98-.37.653 3.495 1.98.369-.652 3.495 1.98-.37.653 3.494 1.98.37-.652 3.494 1.98-.37.653 3.494 1.98.37-.652 3.494 1.98-.369.653 3.494 1.98.37-.652 3.494 1.98-.37.653 3.494 1.98.37-.652 3.494 1.98-.37.653 3.495 1.98.369-.652 3.495 1.98-.37.652 3.494 1.981.37-.653 3.494 1.981-.37.652 3.494 1.981.37-.653 3.494 1.981-.37.652 3.495 1.981.37-.653 3.494 1.981-.37.652 3.494 1.981.37-.653 1.376.78 1.367-.779.371.652 3.475-1.981-.371-.651 3.474-1.981.372.652 3.474-1.981-.371-.651 3.474-1.981.372.652 3.474-1.981-.371-.651 3.474-1.981.372.652 3.474-1.981-.371-.651 3.475-1.981.371.652 3.475-1.98-.372-.652 3.475-1.981.371.652 3.475-1.98-.372-.652 3.475-1.98.371.651 3.475-1.98-.372-.652 3.475-1.98.371.651 3.475-1.98-.372-.652 3.475-1.98.371.651 3.475-1.98-.371-.652 3.474-1.98.372.651 3.474-1.98-.371-.652 3.474-1.98.372.651 3.474-1.98-.371-.652 3.474-1.98.372.651 3.474-1.98-.371-.652 3.474-1.98.372.652 3.474-1.981-.371-.652 3.475-1.98.371.652 3.475-1.981-.372-.651 3.475-1.981.371.652 3.475-1.981-.372-.651 3.475-1.981.371.652 3.475-1.981-.372-.651 3.475-1.981.371.652 3.475-1.981-.371-.651 3.474-1.981.371.652 3.475-1.981-.371-.651 3.474-1.981.372.652 3.474-1.981-.371-.651 3.474-1.981.372.652 3.474-1.981-.371-.651 3.474-1.981.372.652 3.474-1.98-.371-.652 3.475-1.981.371.652 3.475-1.98-.372-.652 3.475-1.98.371.651 3.475-1.98-.372-.652 3.475-1.98.371.651 3.475-1.98-.372-.652 3.475-1.98.371.651 3.475-1.98-.371-.652 3.474-1.98.372.651 3.474-1.98-.371-.652 3.474-1.98.372.651 3.474-1.98-.371-.652 3.474-1.98.372.651 3.474-1.98-.371-.652 3.475-1.98.371.651 3.474-1.98-.371-.652 3.475-1.98.371.651 3.475-1.98-.372-.652 3.475-1.98.371.652 3.475-1.981-.372-.652 3.475-1.98.371.652 3.475-1.981-.372-.651 1.359-.775v-1.544h.75v-3.961h-.75v-3.961h.75v-3.961h-.75v-3.961h.75v-3.961h-.75v-3.961h.75v-3.961h-.75v-3.961h.75v-3.961h-.75v-3.961h.75v-3.961h-.75v-3.961h.75v-3.961h-.75v-3.961h.75v-3.961h-.75v-3.96h.75v-3.961h-.75v-3.961h.75v-3.961h-.75v-3.961h.75v-3.961h-.75v-3.961h.75v-3.961h-.75v-3.961h.75v-3.961h-.75v-3.961h.75v-3.961h-.75v-3.961h.75v-3.961h-.75v-3.961h.75v-3.961h-.75v-3.96h.75v-3.961h-.75v-3.961h.75v-3.961h-.75v-3.961h.75v-3.961h-.75v-3.961h.75v-3.961h-.75v-3.961h.75v-3.961h-.75v-3.961h.75v-3.961h-.75v-3.961h.75v-3.961h-.75v-3.961h.75v-3.961h-.75v-3.96h.75v-3.961h-.75v-3.961h.75v-3.961h-.75v-3.961h.75v-3.961h-.75v-3.961h.75v-3.961h-.75v-3.961h.75v-3.961h-.75v-3.961h.75v-3.961h-.75v-3.961h.75v-3.961h-.75v-3.961h.75v-3.961h-.75v-1.544l-1.359-.775.372-.651-3.475-1.981-.371.652-3.475-1.981.372-.651-3.475-1.981-.371.652-3.475-1.981.371-.651-3.474-1.981-.371.652-3.475-1.98.371-.652-3.474-1.981-.372.652-3.474-1.98.371-.652-3.474-1.98-.372.651-3.474-1.98.371-.652-3.474-1.98-.372.651-3.474-1.98.371-.652-3.475-1.98-.371.651-3.475-1.98.372-.652-3.475-1.98-.371.651-3.475-1.98.372-.652-3.475-1.98-.371.651-3.475-1.98.372-.652-3.475-1.98-.371.651-3.475-1.98.372-.652-3.475-1.98-.371.652-3.475-1.981.371-.652-3.474-1.98-.372.652-3.474-1.981.371-.651-3.474-1.981-.372.652-3.474-1.981.371-.651-3.474-1.981-.372.652-3.474-1.981.371-.651-3.474-1.981-.372.652-3.474-1.981.371-.651-3.475-1.981-.371.652-3.475-1.981.372-.651-3.475-1.981-.371.652-3.475-1.981.372-.651-3.475-1.981-.371.652-3.475-1.981.372-.651-3.475-1.981-.371.652-3.475-1.98.371-.652-3.474-1.981-.372.652-3.474-1.98.371-.652-3.474-1.98-.372.651-3.474-1.98.371-.652-3.474-1.98-.372.651-3.474-1.98.371-.652-3.475-1.98-.371.651-3.474-1.98.371-.652-3.475-1.98-.371.651-3.475-1.98.372-.652-3.475-1.98-.371.651-3.475-1.98.372-.652-3.475-1.98-.371.651-3.475-1.98.372-.652-3.475-1.98-.371.651-3.475-1.98.371-.652-3.474-1.98-.372.652-3.474-1.981.371-.652-3.474-1.98-.372.652-3.474-1.981.371-.652-3.474-1.98-.372.652-3.474-1.981.371-.651-3.475-1.981-.371.652-3.475-1.981z"/></g></svg>