<svg xmlns="http://www.w3.org/2000/svg" width="206" height="60" aria-hidden="false"><path fill="#F5F5F5" stroke="#0A76F6" stroke-width="2" d="M1 1h204v58H1z"/><path fill="#0579EE" d="M65.928 25.464c.48.608 1.04 1.072 1.68 1.376.624.32 1.36.464 2.192.464.48 0 .944-.064 1.36-.224a3 3 0 0 0 1.088-.64c.304-.272.544-.608.72-.992s.272-.816.272-1.296c0-.896-.288-1.584-.832-2.064a9.3 9.3 0 0 0-1.824-1.216 26 26 0 0 1-1.808-1.008c-.56-.336-.832-.8-.832-1.408 0-.448.144-.832.464-1.152s.736-.48 1.264-.48c.48 0 .928.128 1.328.384a4.1 4.1 0 0 1 1.104 1.072l1.12-.976a5.1 5.1 0 0 0-1.504-1.312c-.592-.336-1.28-.512-2.064-.512-.48 0-.912.08-1.312.24s-.736.384-1.024.656a2.9 2.9 0 0 0-.672.96 2.9 2.9 0 0 0-.24 1.152c0 .896.272 1.568.832 2.048.544.48 1.152.896 1.808 1.232q.984.504 1.824 1.008c.544.336.832.8.832 1.392 0 .512-.176.944-.512 1.28-.336.352-.8.512-1.408.512a3.03 3.03 0 0 1-1.488-.384 4.2 4.2 0 0 1-1.28-1.12zM75.949 20.088l1.648-4.288h-1.552l-1.36 4.288zM80.324 16.84c.256 0 .48-.08.672-.272a.98.98 0 0 0 .272-.688.93.93 0 0 0-.272-.656.92.92 0 0 0-.672-.288.93.93 0 0 0-.688.288.87.87 0 0 0-.272.656c0 .272.08.496.272.688a.92.92 0 0 0 .688.272M79.636 27h1.36v-8.064h-1.36zM83.022 22.968q0 .888.288 1.68c.192.528.48.992.832 1.376.352.4.8.72 1.312.944.512.24 1.072.352 1.712.352.576 0 1.104-.096 1.584-.304a3.8 3.8 0 0 0 1.28-.912V27h1.36V15h-1.36v4.832a3.9 3.9 0 0 0-1.28-.896 3.95 3.95 0 0 0-1.584-.32c-.64 0-1.2.128-1.712.352-.512.24-.96.56-1.312.944-.352.4-.64.864-.832 1.392a4.9 4.9 0 0 0-.288 1.664m1.44 0c0-.416.064-.816.208-1.2.128-.368.32-.688.576-.976a2.772 2.772 0 0 1 2.08-.896c.544 0 1.04.128 1.52.384.464.256.864.64 1.184 1.12v3.136c-.32.48-.704.864-1.168 1.12q-.72.384-1.536.384c-.432 0-.816-.08-1.168-.24a2.7 2.7 0 0 1-.912-.656 2.6 2.6 0 0 1-.576-.976 3.3 3.3 0 0 1-.208-1.2M101.265 25.672l-1.008-.784a3 3 0 0 1-1.024.88c-.416.224-.88.32-1.392.32-.896 0-1.632-.288-2.192-.864s-.832-1.312-.832-2.208v-.032h6.176c.016-.096.032-.224.064-.384.016-.16.032-.32.032-.48 0-.496-.096-.96-.256-1.392a3.3 3.3 0 0 0-.736-1.12 3.45 3.45 0 0 0-1.136-.72 4 4 0 0 0-1.488-.272c-.624 0-1.184.112-1.696.336a3.8 3.8 0 0 0-1.28.928c-.352.384-.608.848-.8 1.376a5 5 0 0 0-.288 1.712c0 .592.096 1.152.304 1.68.192.528.48.992.864 1.376.384.4.848.72 1.392.944.544.24 1.168.352 1.84.352.736 0 1.408-.144 2-.448a3.95 3.95 0 0 0 1.456-1.2m-3.776-5.888c.656 0 1.184.224 1.584.64s.608.912.64 1.488h-4.784q.24-1.032.912-1.584c.448-.352.992-.544 1.648-.544M103.234 27h1.36v-5.584c.256-.416.576-.784.96-1.072s.88-.448 1.456-.448c.608 0 1.104.208 1.488.608.368.4.56.96.56 1.664V27h1.376v-4.88c0-1.136-.304-2-.912-2.608-.608-.592-1.344-.896-2.24-.896-.608 0-1.12.128-1.552.352a4.1 4.1 0 0 0-1.136.88v-.912h-1.36zM113.475 24.296c0 .992.24 1.712.72 2.176s1.184.688 2.08.688q.432 0 .768-.048c.224-.032.432-.096.624-.176V25.72c-.16.064-.32.112-.512.144a4.4 4.4 0 0 1-.688.048c-.496 0-.896-.112-1.184-.336s-.432-.64-.432-1.28v-4.112h2.8v-1.248h-2.8V16.92h-1.376v2.016h-1.52v1.248h1.52zM120.258 16.84c.256 0 .48-.08.672-.272a.98.98 0 0 0 .272-.688.93.93 0 0 0-.272-.656.92.92 0 0 0-.672-.288.93.93 0 0 0-.688.288.87.87 0 0 0-.272.656c0 .272.08.496.272.688a.92.92 0 0 0 .688.272M119.57 27h1.36v-8.064h-1.36zM122.588 18.936v1.248h1.52V27h1.376v-6.816h2.8v-1.248h-2.8v-1.024c0-.512.128-.928.416-1.232a1.47 1.47 0 0 1 1.088-.448c.272 0 .512.064.704.16s.368.224.512.384l.848-.992a2.9 2.9 0 0 0-.88-.56 3.15 3.15 0 0 0-1.2-.224c-.864 0-1.568.288-2.08.832-.528.544-.784 1.248-.784 2.112v.992zM130.469 16.84c.256 0 .48-.08.672-.272a.98.98 0 0 0 .272-.688.93.93 0 0 0-.272-.656.92.92 0 0 0-.672-.288.93.93 0 0 0-.688.288.87.87 0 0 0-.272.656c0 .272.08.496.272.688a.92.92 0 0 0 .688.272M129.781 27h1.36v-8.064h-1.36zM141.024 25.672l-1.008-.784a3 3 0 0 1-1.024.88c-.416.224-.88.32-1.392.32-.896 0-1.632-.288-2.192-.864s-.832-1.312-.832-2.208v-.032h6.176c.016-.096.032-.224.064-.384.016-.16.032-.32.032-.48 0-.496-.096-.96-.256-1.392a3.3 3.3 0 0 0-.736-1.12 3.45 3.45 0 0 0-1.136-.72 4 4 0 0 0-1.488-.272c-.624 0-1.184.112-1.696.336a3.8 3.8 0 0 0-1.28.928c-.352.384-.608.848-.8 1.376a5 5 0 0 0-.288 1.712c0 .592.096 1.152.304 1.68.192.528.48.992.864 1.376.384.4.848.72 1.392.944.544.24 1.168.352 1.84.352.736 0 1.408-.144 2-.448a3.95 3.95 0 0 0 1.456-1.2m-3.776-5.888c.656 0 1.184.224 1.584.64s.608.912.64 1.488h-4.784q.24-1.032.912-1.584c.448-.352.992-.544 1.648-.544M142.992 27h1.36v-5.472c.24-.4.544-.72.912-.976.352-.256.8-.384 1.328-.384.16 0 .304.016.432.032.128.032.24.048.368.08v-1.408c-.096-.032-.208-.048-.32-.064-.128-.016-.24-.032-.368-.032-.512 0-.96.112-1.344.32a3.7 3.7 0 0 0-1.008.848v-1.008h-1.36zM155.552 27.32c.544 0 1.056-.112 1.536-.352.48-.224.864-.56 1.168-.992V27h1.36v-5.408c0-.88-.288-1.6-.864-2.144s-1.376-.832-2.4-.832c-.704 0-1.344.144-1.888.416a3.8 3.8 0 0 0-1.36 1.136l1.024.784q.336-.528.912-.816c.384-.192.8-.304 1.28-.304.56 0 1.024.16 1.392.464.352.32.544.752.544 1.296v.56l-2.704.448c-.864.144-1.536.432-1.984.848-.448.432-.672.96-.672 1.568 0 .704.24 1.264.736 1.68q.72.624 1.92.624m-1.296-2.352c0-.352.128-.64.384-.896.256-.24.672-.4 1.232-.496l2.384-.416v1.536c-.288.464-.64.832-1.056 1.088-.416.272-.896.4-1.424.4-.464 0-.832-.112-1.104-.352a1.03 1.03 0 0 1-.416-.864M160.921 18.936 164.073 27h1.792l3.152-8.064h-1.472l-2.576 6.64-2.576-6.64zM177.567 25.672l-1.008-.784a3 3 0 0 1-1.024.88c-.416.224-.88.32-1.392.32-.896 0-1.632-.288-2.192-.864s-.832-1.312-.832-2.208v-.032h6.176c.016-.096.032-.224.064-.384.016-.16.032-.32.032-.48 0-.496-.096-.96-.256-1.392a3.3 3.3 0 0 0-.736-1.12 3.45 3.45 0 0 0-1.136-.72 4 4 0 0 0-1.488-.272c-.624 0-1.184.112-1.696.336a3.8 3.8 0 0 0-1.28.928c-.352.384-.608.848-.8 1.376a5 5 0 0 0-.288 1.712c0 .592.096 1.152.304 1.68.192.528.48.992.864 1.376.384.4.848.72 1.392.944.544.24 1.168.352 1.84.352.736 0 1.408-.144 2-.448a3.95 3.95 0 0 0 1.456-1.2m-3.776-5.888c.656 0 1.184.224 1.584.64s.608.912.64 1.488h-4.784q.24-1.032.912-1.584c.448-.352.992-.544 1.648-.544M183.217 26.04a2.9 2.9 0 0 1-1.2-.24 2.8 2.8 0 0 1-.944-.64 2.9 2.9 0 0 1-.608-.976 3.1 3.1 0 0 1-.224-1.216c0-.416.064-.816.224-1.2.144-.368.352-.688.608-.976.256-.272.56-.496.928-.656q.552-.24 1.2-.24c.48 0 .928.112 1.328.336s.72.512.976.864l1.088-.832a4.5 4.5 0 0 0-1.44-1.184 4.14 4.14 0 0 0-1.952-.464 4.7 4.7 0 0 0-1.808.352c-.544.24-1.008.56-1.392.944-.384.4-.672.864-.88 1.392a4.5 4.5 0 0 0-.304 1.664c0 .592.096 1.152.304 1.68s.496.992.88 1.376c.384.4.848.72 1.392.944.544.24 1.136.352 1.808.352.736 0 1.392-.144 1.968-.448a4 4 0 0 0 1.424-1.2l-1.088-.832a3 3 0 0 1-.96.88c-.4.224-.848.32-1.328.32M65.255 45h2.567l1.139-3.094h4.76L74.86 45h2.567l-4.505-11.9H69.76zm4.454-5.151 1.632-4.471 1.632 4.471zM78.296 46.496c0 .901.373 1.581 1.155 2.057.766.476 1.837.697 3.197.697 1.377 0 2.465-.306 3.28-.952.8-.629 1.207-1.428 1.207-2.414 0-.782-.288-1.445-.867-1.972-.578-.51-1.394-.782-2.465-.782h-2.159c-.204 0-.34-.034-.442-.119s-.135-.221-.135-.391c0-.085.017-.17.068-.272a.8.8 0 0 1 .22-.272c.12.034.255.051.391.051.136.017.273.017.425.017.544 0 1.037-.068 1.48-.238a3.3 3.3 0 0 0 1.088-.646q.433-.408.662-.969c.154-.374.239-.765.239-1.19a3.482 3.482 0 0 0-.119-.833h1.513v-1.836h-3.129a6 6 0 0 0-.816-.255 5.3 5.3 0 0 0-.918-.085 4.2 4.2 0 0 0-1.445.238c-.424.17-.781.374-1.07.646a2.66 2.66 0 0 0-.68.952c-.17.374-.239.765-.239 1.173 0 .476.086.918.29 1.326s.492.765.867 1.037c-.324.238-.562.51-.715.782a1.84 1.84 0 0 0-.22.918c0 .221.034.442.135.663.086.221.222.425.392.595a3.05 3.05 0 0 0-.885.935 2.2 2.2 0 0 0-.305 1.139m3.91-5.984c-.477 0-.834-.119-1.106-.391-.271-.255-.39-.595-.39-1.02 0-.408.119-.748.39-1.003.273-.255.63-.391 1.106-.391.441 0 .798.136 1.07.391.273.255.409.595.409 1.003q0 .638-.409 1.02c-.272.272-.629.391-1.07.391m-1.87 5.678c0-.272.067-.493.204-.697.135-.187.322-.357.578-.51h2.448c.51 0 .883.119 1.105.323.203.204.322.476.322.782 0 .425-.203.765-.594 1.037-.409.272-.987.391-1.769.391-.748 0-1.325-.119-1.716-.357-.392-.238-.579-.561-.579-.969M96.268 43.606l-1.547-1.224a2.6 2.6 0 0 1-.901.748 2.8 2.8 0 0 1-1.258.272c-.731 0-1.326-.187-1.785-.595-.476-.391-.731-.935-.8-1.649h6.002c.034-.136.05-.323.085-.544.034-.204.05-.442.05-.68 0-1.122-.373-2.04-1.087-2.754-.731-.714-1.683-1.088-2.856-1.088-.714 0-1.326.136-1.87.374a4.1 4.1 0 0 0-1.377.986 4.6 4.6 0 0 0-.867 1.479c-.204.561-.29 1.156-.29 1.785q0 .943.307 1.785c.204.561.51 1.054.918 1.462.408.425.9.765 1.496 1.003.595.255 1.275.374 2.04.374.799 0 1.53-.153 2.176-.459a4.1 4.1 0 0 0 1.564-1.275m-4.097-5.712c.56 0 1.003.17 1.309.51s.476.714.493 1.122h-3.86c.137-.544.392-.952.749-1.224.34-.272.782-.408 1.309-.408M98.395 45h2.159v-5.593c.153-.272.391-.544.697-.833s.748-.442 1.292-.442q.765 0 1.224.51c.306.34.459.782.459 1.343V45h2.193v-5.1c0-.629-.102-1.19-.272-1.666a3.3 3.3 0 0 0-.714-1.19 3.2 3.2 0 0 0-1.054-.714 3.6 3.6 0 0 0-1.292-.238q-.867 0-1.479.306a4.4 4.4 0 0 0-1.054.714v-.68h-2.16zM109.584 41.872c0 1.054.255 1.853.782 2.431.51.578 1.309.867 2.38.867.34 0 .646-.017.918-.068.272-.034.51-.102.731-.204v-1.887a2.2 2.2 0 0 1-.527.136 5 5 0 0 1-.748.051c-.425 0-.765-.102-1.003-.306q-.357-.306-.357-1.02v-3.468h2.618v-1.972h-2.618V34.29h-2.176v2.142h-1.598v1.972h1.598zM122.095 43.079a3.9 3.9 0 0 1-1.547-.306 3.7 3.7 0 0 1-1.224-.85 3.7 3.7 0 0 1-.782-1.275c-.204-.493-.289-1.02-.289-1.598 0-.561.085-1.088.289-1.581.187-.493.442-.918.782-1.275a3.7 3.7 0 0 1 1.224-.85 3.9 3.9 0 0 1 1.547-.323c.68 0 1.275.153 1.802.459s.969.697 1.309 1.173l1.904-1.479c-.544-.714-1.258-1.292-2.108-1.734a6.3 6.3 0 0 0-2.907-.68c-.935 0-1.785.17-2.567.51a6.2 6.2 0 0 0-2.006 1.36 6.1 6.1 0 0 0-1.292 2.006 6.4 6.4 0 0 0-.459 2.414c0 .85.153 1.666.459 2.431a5.8 5.8 0 0 0 1.292 1.989c.544.578 1.224 1.02 2.006 1.36s1.632.51 2.567.51q1.607 0 2.907-.663c.85-.442 1.564-1.02 2.108-1.768l-1.904-1.462c-.34.493-.782.884-1.309 1.19s-1.122.442-1.802.442M133 36.092c-.697 0-1.326.136-1.904.374a4.6 4.6 0 0 0-1.496.986 4.3 4.3 0 0 0-.952 1.462 4.7 4.7 0 0 0-.34 1.802c0 .646.102 1.241.34 1.802.221.578.544 1.071.952 1.479s.918.748 1.496.986a4.9 4.9 0 0 0 1.904.357c.68 0 1.326-.119 1.904-.357a4.5 4.5 0 0 0 1.479-.986 4.5 4.5 0 0 0 .969-1.479c.221-.561.34-1.156.34-1.802 0-.629-.119-1.224-.34-1.802a4.6 4.6 0 0 0-.969-1.462 4.5 4.5 0 0 0-1.479-.986 5 5 0 0 0-1.904-.374m.034 7.208c-.714 0-1.309-.238-1.785-.731-.476-.476-.697-1.105-.697-1.853s.221-1.36.697-1.853a2.44 2.44 0 0 1 1.785-.731c.68 0 1.241.255 1.717.731.459.493.697 1.105.697 1.853s-.238 1.36-.697 1.853a2.28 2.28 0 0 1-1.717.731M139.831 45h2.159v-5.593c.153-.272.391-.544.698-.833s.747-.442 1.291-.442q.765 0 1.224.51c.306.34.459.782.459 1.343V45h2.193v-5.1c0-.629-.102-1.19-.272-1.666a3.3 3.3 0 0 0-.714-1.19 3.2 3.2 0 0 0-1.054-.714 3.6 3.6 0 0 0-1.292-.238q-.867 0-1.479.306a4.4 4.4 0 0 0-1.054.714v-.68h-2.159zM150.477 45h2.159v-5.593c.153-.272.391-.544.697-.833s.748-.442 1.292-.442q.765 0 1.224.51c.306.34.459.782.459 1.343V45h2.193v-5.1c0-.629-.102-1.19-.272-1.666a3.3 3.3 0 0 0-.714-1.19 3.2 3.2 0 0 0-1.054-.714 3.6 3.6 0 0 0-1.292-.238q-.867 0-1.479.306a4.4 4.4 0 0 0-1.054.714v-.68h-2.159zM169.011 43.606l-1.547-1.224a2.6 2.6 0 0 1-.901.748 2.8 2.8 0 0 1-1.258.272c-.731 0-1.326-.187-1.785-.595-.476-.391-.731-.935-.799-1.649h6.001c.034-.136.051-.323.085-.544.034-.204.051-.442.051-.68 0-1.122-.374-2.04-1.088-2.754-.731-.714-1.683-1.088-2.856-1.088-.714 0-1.326.136-1.87.374a4.1 4.1 0 0 0-1.377.986 4.6 4.6 0 0 0-.867 1.479c-.204.561-.289 1.156-.289 1.785q0 .943.306 1.785c.204.561.51 1.054.918 1.462.408.425.901.765 1.496 1.003.595.255 1.275.374 2.04.374.799 0 1.53-.153 2.176-.459a4.1 4.1 0 0 0 1.564-1.275m-4.097-5.712c.561 0 1.003.17 1.309.51s.476.714.493 1.122h-3.859c.136-.544.391-.952.748-1.224.34-.272.782-.408 1.309-.408M175.185 43.3c-.714 0-1.309-.238-1.785-.731-.476-.476-.697-1.105-.697-1.853s.221-1.36.697-1.853c.459-.476 1.037-.731 1.751-.731.442 0 .816.102 1.139.289s.595.425.799.714l1.717-1.309a4.8 4.8 0 0 0-1.53-1.258 4.6 4.6 0 0 0-2.091-.476c-.748 0-1.411.136-1.989.374a4.7 4.7 0 0 0-1.496 1.003 4.2 4.2 0 0 0-.918 1.479 4.8 4.8 0 0 0-.323 1.768c0 .629.102 1.224.323 1.785.204.561.51 1.054.918 1.462.408.425.901.765 1.496 1.003.578.255 1.241.374 1.989.374.782 0 1.479-.153 2.091-.476a4.4 4.4 0 0 0 1.53-1.258l-1.717-1.309a2.36 2.36 0 0 1-.799.731c-.323.187-.697.272-1.105.272M181.215 41.872c0 1.054.255 1.853.782 2.431.51.578 1.309.867 2.38.867.34 0 .646-.017.918-.068.272-.034.51-.102.731-.204v-1.887a2.2 2.2 0 0 1-.527.136 5 5 0 0 1-.748.051c-.425 0-.765-.102-1.003-.306q-.357-.306-.357-1.02v-3.468h2.618v-1.972h-2.618V34.29h-2.176v2.142h-1.598v1.972h1.598z"/><path fill="#fff" stroke="#0579EE" d="m33.18 6.532.008.004 20.144 11.59a.4.4 0 0 1 .112.132.4.4 0 0 1 .056.172v23.14a.4.4 0 0 1-.056.172.4.4 0 0 1-.112.131l-20.144 11.59-.008.005a.4.4 0 0 1-.18.032.4.4 0 0 1-.18-.032l-.008-.005-20.144-11.59a.4.4 0 0 1-.112-.131.4.4 0 0 1-.056-.172V18.43c0-.033.014-.098.056-.172a.4.4 0 0 1 .112-.131l20.144-11.59.008-.005A.4.4 0 0 1 33 6.5c.103 0 .167.024.18.032Z"/><path fill="#508FFF" d="m32.97 48.71-15.744-9.052c-.184-.092-.322-.368-.322-.552v-17.83c0-.23.138-.459.322-.55l15.744-9.218"/><path fill="#0A76F6" d="m16.906 39.027-.002-17.855c0-.23.138-.46.322-.552l15.744-9.111"/><path fill="#E1000F" fill-rule="evenodd" d="m27.381 21.105-5.317 9.134-4.784-9.652 5.66-3.275 4.713 3.322z"/><path fill="#0A76F6" d="m32.967 48.711 15.746-9.16c.184-.092.321-.367.321-.55V21.193a.64.64 0 0 0-.321-.551l-15.744-9.133"/><path fill="#E1000F" d="m49.033 39.027.002-17.841a.64.64 0 0 0-.322-.55L32.97 11.508"/><path fill="#508FFF" fill-rule="evenodd" d="m38.172 20.445 5.656 9.717 4.714-9.626-5.733-3.324z"/><path fill="#fff" fill-rule="evenodd" d="M38.936 20.08c.37.186.713.424.951.795.106.16.238.452.159.664-.106.238-.159.663-.397.743-.29.159-.686.159-1.056.106-.211 0-.396-.053-.608-.106.74.291 1.453.663 1.955 1.353.053.106.238.159.449.159.053 0 .053.106.053.159-.106.106-.211.16-.159.292h.159c.238-.106.211-.61.554-.451.238.159.344.504.212.743-.212.212-.396.345-.608.504a.4.4 0 0 0 0 .345c.159.212.212.398.238.61.158.345.211.743.344 1.114.21.743.396 1.512.343 2.255 0 .398-.212.743-.053 1.141.106.398.343.69.555 1.061.21.292.396.504.554.796.065.112.142.224.221.337l.08.113c.249.36.474.731.307 1.142-.159.345-.687.292-1.057.504-.29.239-.052.663.106.902.238.451-.29.743-.66.902.105.16.29.106.343.212.053.24.29.398.159.664-.061.083-.151.156-.243.227l-.07.054c-.203.161-.376.33-.19.62.212.346.08.743-.052 1.115-.159.45-.555.663-.898.743-.29.106-.66.106-.951.053-.106-.053-.212-.106-.29-.106-.846-.106-1.691-.345-2.536-.345-.238.053-.502.106-.687.186-.238.159-.423.345-.608.53-.026.053-.079.08-.105.133-.027.027-.053.053-.053.08l-.016.015-.021.022-.016.015c-.158.186-.264.372-.396.584 0 .027-.026.027-.026.027 0 .026-.027.053-.053.08-.159.291-.29.61-.37.928-.343 1.14-.185 2.122.053 2.361.158.16 2.06.75 3.733 1.297q-4.384 3.661-7.087 3.661-3.734 0-12.521-4.96c1.418 0 1.216.569 2.537-.093.633-.264 2.06-.926 2.535-1.402.29-.291.581-.582.845-.9a17 17 0 0 1 1.664-1.693c.185-.159.37-.318.555-.423.053-.053.053-.16.106-.212-.238.106-.397.291-.66.397-.054 0-.106-.053-.054-.106.185-.132.37-.264.529-.397h-.027c-.053 0-.053-.053-.053-.106-.66-.105-1.135.344-1.584.741-.106.053-.212-.053-.238-.053-.74.238-1.294.9-2.034 1.191v-.106c-.29.106-.58.291-.898.344-.449.106-.845.053-1.241.053-.608.053-1.215.185-1.823.318-.026 0-.026 0-.052.026-.317.079-.634.212-.925.37l-.026.027-.08.079c-.105.106-.21.238-.343.291-.317.159-.555.423-.819.662-.026.026-.052.026-.079.026-.264.265.053-.53.343-.715-.026 0-.079-.026-.053-.052.027-.053.053-.08.08-.133 0-.026 0-.026.026-.052l-.004-.016-.018-.022a.03.03 0 0 1-.004-.015l-.238.158c-.132.106-.08-.502.053-.581h-.026c.184-.107.396-.212.58-.318l.08-.08a4.4 4.4 0 0 0-.792.398s0-.186.079-.265c.053 0 .106 0 .106.053.957-.74 2.12-.937 3.295-1.108l.32-.047c.695-.101 1.387-.21 2.037-.433.158-.106.29-.212.449-.29.237-.107.449-.345.74-.504a2.28 2.28 0 0 0 .844-1.137c0-.053-.052-.106-.052-.106a8.1 8.1 0 0 1-2.193 1.64c-1.056.556-2.192.45-3.301.609.053-.106.158-.106.237-.106 0-.159.106-.212.212-.29h.158c.053 0 .053-.107.106-.107.106 0 .264-.053.211-.053-.158-.212-.449.16-.687 0 .106-.105.053-.238.159-.29h.211c0-.107.106-.212.106-.212.74-.45 1.453-.794 2.14-1.19-.16 0-.238.158-.397.052.106 0 0-.159.106-.159.555-.158 1.004-.45 1.558-.661-.211 0-.343.159-.554 0 .105-.053.158-.159.29-.159v-.159c0-.053.053-.053.106-.053-.053 0-.106-.053-.106-.053.053-.106.211-.052.29-.158-.052 0-.158 0-.158-.053.159-.212.396-.238.66-.291-.052-.106-.21 0-.21-.106 0-.046.038-.052.082-.053H23.3c-.106-.053-.053-.159-.053-.212.29-.344.29-.794.45-1.19-.054 0-.106 0-.106-.053-.502.555-1.295.74-2.034.952h-.343c-.238.106-.608.106-.846-.053-.211-.105-.29-.238-.502-.397a6.8 6.8 0 0 0-1.24-.608c-1.242-.397-2.536-.609-3.83-.555.554-.292 1.161-.318 1.743-.503.845-.238 1.637-.556 2.535-.503-.159-.053-.343 0-.502 0-.687-.053-1.4.159-2.14.291-.501.106-.95.291-1.452.397-.29.106-.449.397-.792.344v-.159c.502-.608 1.11-1.19 1.902-1.243.898-.16 1.743 0 2.64.105.661.053 1.242.212 1.902.345.238 0 .291.396.502.45.291.105.608 0 .898.21 0-.105-.052-.21 0-.29.211-.212.45.053.66-.053.397-.238-.343-.688-.554-1.058 0-.053.053-.106.053-.106.396.344.687.74 1.189 1.005.237.106.845.238.739-.053-.238-.555-.74-1.005-1.162-1.508v-.212c-.106 0-.106-.052-.159-.105v-.212c-.211-.106-.158-.291-.237-.45-.159-.238-.053-.608-.159-.9a5 5 0 0 1-.211-.846c-.159-.846-.344-1.587-.45-2.408-.105-.952.555-1.693 1.004-2.54.344-.608.74-1.19 1.4-1.587.159-.608.555-1.111.95-1.587.397-.477 1.058-.794 1.533-1.006a8.7 8.7 0 0 1 1.311-.5l.01-.003c.488-.214 6.897-1.562 10.01 0 .066.034.053 0 .264.133.238.133.528.292.713.372M14.753 34.59c0 .233-.156.44-.39.492.39.103.78.103 1.172.285-.052.103-.156.051-.208.051.234.156.547.052.781.233-.156.155-.286 0-.443 0 1.537.44 3.152.776 4.429 1.76-1.094.543-2.214.775-3.387 1.034-.156 0-.234 0-.39-.052 0 .052 0 .155-.052.155-.21 0-.34 0-.496.104-.182.155-.468.207-.625.051-.052-.051.157 0 .208-.103h-.39c-.052 0-.052-.052-.052-.103-.235.051-.547.155-.782.206-.339.104-.182-1.577.052-1.68-.052-.053-.156-.053-.156-.156-.208 0-.287-.518-.156-.543.208-.052.442-.052.599-.207-.339-.052-.443-1.268.13-1.578.052 0 .156 0 .156.052m2.27 4.57c-.316.324-.711.177-1.053.324-.106 0-.29.06-.237-.059.033-.165.178-.227.335-.28l.094-.03q.096-.03.176-.073c.105-.059.237-.177.342-.118.105.177.237.118.343.236m-1.793-6.777c-.053 0-.106 0-.16-.053.054-.054.054-.107.054-.16-.505.559-1.648.372-.585-.133.399-.16.904-.107 1.303.053-.16.213-.4.16-.612.293m24.325-3.325q-.07.014-.138.026c-.242 0-.511.157-.754.21-.35.103-.672.286-.968.495.35-.157.7-.209 1.103-.287.296-.052.538-.105.861-.052.215.052.512.052.512.156-.108.391-.7.495-1.023.887h-.162c-.161.104-.107.338-.242.338-.161-.051-.296 0-.458.053.216.208.458.339.754.287.054 0 .162.104.162.208 0 0 .054 0 .107-.052.054 0 .108 0 .108.052v.209c-.097.125-.223.137-.355.139h-.088a.8.8 0 0 0-.176.017c.404.104.807.104 1.184 0 .296-.104 0-.6.215-.834-.107 0 0-.157-.107-.157.107-.104.215-.235.296-.287.107 0 .242-.052.296-.156 0-.104-.215-.156-.161-.234.296-.21.565-.496.457-.783-.054-.156-.457-.156-.7-.26-.167-.073-.374-.045-.583-.004z"/></svg>
