<svg width="58" height="56" viewBox="0 0 58 56" fill="none" xmlns="http://www.w3.org/2000/svg">
<g clip-path="url(#clip0_10724_68252)">
<path d="M14.466 51.2926C14.466 43.0978 21.1096 36.4541 29.3044 36.4541C37.4992 36.4541 44.1428 43.0978 44.1428 51.2926H57.7228C57.7228 35.3548 44.803 22.4351 28.8653 22.4351C12.9276 22.4351 0.0078125 35.3548 0.0078125 51.2926H14.466Z" fill="#DC000F"/>
<path d="M8.93634 30.4224L18.7403 40.8739H18.7427C21.4329 38.1463 25.17 36.4551 29.3032 36.4551L28.8641 22.436C21.1346 22.436 14.1155 25.4747 8.93555 30.4224H8.93634Z" fill="#F4849A"/>
<path d="M39.4058 40.4268L48.9696 30.595C43.7728 25.5463 36.6822 22.436 28.8652 22.436L29.3043 36.4551C33.2068 36.4551 36.7553 37.9641 39.405 40.4276H39.4066L39.4058 40.4268Z" fill="#FCBCC1"/>
<path d="M48.9696 30.5938L39.4043 40.4264C42.318 43.1357 44.142 47 44.142 51.2923H57.722C57.722 43.1723 54.3668 35.8374 48.9696 30.5938Z" fill="#615FEB"/>
<path d="M29.3035 48.1735L45.775 43.1805C46.5657 42.941 47.0644 44.0117 46.3716 44.4619L32.7502 53.3297L30.3877 52.0339L29.3027 48.1727L29.3035 48.1735Z" fill="#0C008A"/>
<path d="M28.8651 55.9211C31.0116 55.9211 32.7517 54.181 32.7517 52.0345C32.7517 49.888 31.0116 48.1479 28.8651 48.1479C26.7186 48.1479 24.9785 49.888 24.9785 52.0345C24.9785 54.181 26.7186 55.9211 28.8651 55.9211Z" fill="#9B9AFF"/>
<path d="M11.8194 8.38466L13.2672 11.3183C13.3539 11.4949 13.5225 11.6166 13.7166 11.6452L16.9541 12.1153C17.4441 12.1869 17.6398 12.7883 17.285 13.1343L14.9424 15.4181C14.8016 15.5557 14.7372 15.753 14.7706 15.947L15.3234 19.171C15.4069 19.6586 14.8947 20.0309 14.4564 19.801L11.5609 18.2785C11.3867 18.187 11.1791 18.187 11.0049 18.2785L8.10945 19.801C7.67115 20.0317 7.15888 19.6594 7.2424 19.171L7.79524 15.947C7.82865 15.753 7.76422 15.5557 7.62343 15.4181L5.28081 13.1343C4.92604 12.7891 5.12172 12.1869 5.61172 12.1153L8.84922 11.6452C9.04411 11.6166 9.21195 11.4949 9.29865 11.3183L10.7464 8.38466C10.9651 7.94079 11.5983 7.94079 11.8179 8.38466H11.8194Z" fill="#F49A01"/>
<path d="M47.0655 8.38466L48.5133 11.3183C48.6 11.4949 48.7686 11.6166 48.9627 11.6452L52.2002 12.1153C52.6902 12.1869 52.8859 12.7883 52.5311 13.1343L50.1885 15.4181C50.0477 15.5557 49.9833 15.753 50.0167 15.947L50.5695 19.171C50.653 19.6586 50.1408 20.0309 49.7025 19.801L46.807 18.2785C46.6328 18.187 46.4252 18.187 46.251 18.2785L43.3555 19.801C42.9173 20.0317 42.405 19.6594 42.4885 19.171L43.0413 15.947C43.0747 15.753 43.0103 15.5557 42.8695 15.4181L40.5269 13.1343C40.1721 12.7891 40.3678 12.1869 40.8578 12.1153L44.0953 11.6452C44.2902 11.6166 44.458 11.4949 44.5447 11.3183L45.9925 8.38466C46.2112 7.94079 46.8444 7.94079 47.064 8.38466H47.0655Z" fill="#F49A01"/>
<path d="M29.4015 0.372937L30.8492 3.30657C30.9359 3.48316 31.1046 3.60487 31.2986 3.6335L34.5361 4.10362C35.0261 4.17521 35.2218 4.77657 34.867 5.1226L32.5244 7.40635C32.3836 7.54396 32.3192 7.74123 32.3526 7.93532L32.9055 11.1593C32.989 11.6469 32.4767 12.0192 32.0384 11.7893L29.143 10.2668C28.9688 10.1753 28.7611 10.1753 28.5869 10.2668L25.6915 11.7893C25.2532 12.02 24.7409 11.6477 24.8244 11.1593L25.3773 7.93532C25.4107 7.74123 25.3463 7.54396 25.2055 7.40635L22.8628 5.1226C22.5081 4.77737 22.7038 4.17521 23.1938 4.10362L26.4313 3.6335C26.6261 3.60487 26.794 3.48316 26.8807 3.30657L28.3284 0.372937C28.5472 -0.0709268 29.1803 -0.0709268 29.3999 0.372937H29.4015Z" fill="#F49A01"/>
</g>
<defs>
<clipPath id="clip0_10724_68252">
<rect width="57.75" height="56" fill="white"/>
</clipPath>
</defs>
</svg>
