<svg width="57" height="56" viewBox="0 0 57 56" fill="none" xmlns="http://www.w3.org/2000/svg">
<g clip-path="url(#clip0_10724_68244)">
<path d="M0.922485 20.4692H56.5789V48.8367C56.5789 52.7488 53.4066 55.9211 49.4945 55.9211H7.1509C3.15374 55.9211 -0.051944 52.6175 0.0697606 48.6228L0.922485 20.4692Z" fill="url(#paint0_linear_10724_68244)"/>
<path d="M56.5781 20.4693V18.7941C56.5781 15.2432 53.6993 12.3652 50.1484 12.3652C46.5975 12.3652 43.7188 15.244 43.7188 18.7941V49.6466C43.7188 49.6466 44.0958 43.8111 50.1484 43.8111C56.201 43.8111 56.5311 49.6466 56.5311 49.6466L56.5789 20.4701L56.5781 20.4693Z" fill="url(#paint1_linear_10724_68244)"/>
<path d="M0.0672025 20.4693V18.7941C0.0672025 15.2432 2.94595 12.3652 6.49686 12.3652C10.0478 12.3652 12.9265 15.244 12.9265 18.7941V49.6466C12.9265 49.6466 12.5495 43.8111 6.49686 43.8111C0.444245 43.8111 0.114132 49.6466 0.114132 49.6466L0.0664062 20.4701L0.0672025 20.4693Z" fill="url(#paint2_linear_10724_68244)"/>
<path d="M12.9255 20.4692V28.5733L25.7252 40.8925L10.1621 55.9203H20.4998L34.7973 41.7031L43.7192 41.5822V34.1264H29.1703L15.0255 20.4692H12.9255Z" fill="white"/>
<path d="M28.2135 0.0455734C23.9419 -0.116699 17.7333 3.28705 18.0571 10.5814C18.3816 17.8757 28.2135 29.3843 28.2135 29.3843C28.2135 29.3843 38.0453 17.8757 38.3698 10.5814C38.6936 3.28705 32.485 -0.116699 28.2135 0.0455734Z" fill="#DC000F"/>
<path d="M28.2137 14.5172C30.185 14.5172 31.7829 12.9196 31.7829 10.9488C31.7829 8.978 30.185 7.38037 28.2137 7.38037C26.2425 7.38037 24.6445 8.978 24.6445 10.9488C24.6445 12.9196 26.2425 14.5172 28.2137 14.5172Z" fill="white"/>
</g>
<defs>
<linearGradient id="paint0_linear_10724_68244" x1="0.0665788" y1="38.1944" x2="56.5789" y2="38.1944" gradientUnits="userSpaceOnUse">
<stop offset="0.21" stop-color="#615FEB"/>
<stop offset="0.82" stop-color="#9B9AFF"/>
</linearGradient>
<linearGradient id="paint1_linear_10724_68244" x1="43.7187" y1="31.0051" x2="56.5781" y2="31.0051" gradientUnits="userSpaceOnUse">
<stop stop-color="#0C008A"/>
<stop offset="1" stop-color="#615FEB"/>
</linearGradient>
<linearGradient id="paint2_linear_10724_68244" x1="12.9265" y1="31.0051" x2="0.0672019" y2="31.0051" gradientUnits="userSpaceOnUse">
<stop stop-color="#0C008A"/>
<stop offset="1" stop-color="#615FEB"/>
</linearGradient>
<clipPath id="clip0_10724_68244">
<rect width="56.6364" height="56" fill="white"/>
</clipPath>
</defs>
</svg>
