<svg width="60" height="56" viewBox="0 0 60 56" fill="none" xmlns="http://www.w3.org/2000/svg">
<g clip-path="url(#clip0_10724_68272)">
<path d="M44.1148 34.3539L37.432 41.9127C37.2592 42.1082 37.2776 42.4067 37.473 42.5795L52.2992 55.6873C52.4946 55.8601 52.7931 55.8417 52.9659 55.6463L59.6487 48.0875C59.8215 47.892 59.8032 47.5935 59.6077 47.4207L44.7816 34.3129C44.5861 34.1401 44.2876 34.1584 44.1148 34.3539Z" fill="url(#paint0_linear_10724_68272)"/>
<path d="M33.1074 35.791L38.7093 40.4782L42.8433 35.8037L37.0821 31.0332L33.1074 35.791Z" fill="#827CA4"/>
<path d="M21.3028 0.0395508C9.56091 0.0395508 0.0429688 9.55828 0.0429688 21.2994C0.0429688 33.0405 9.5617 42.5592 21.3028 42.5592C33.0439 42.5592 42.5626 33.0405 42.5626 21.2994C42.5626 9.55828 33.0447 0.0395508 21.3028 0.0395508ZM21.3028 37.9227C11.9132 37.9227 4.30223 30.3109 4.30223 20.9221C4.30223 11.5334 11.914 3.92155 21.3028 3.92155C30.6916 3.92155 38.3034 11.5334 38.3034 20.9221C38.3034 30.3109 30.6916 37.9227 21.3028 37.9227Z" fill="#0C008A"/>
<path d="M9.58984 33.0967C9.58984 33.0967 11.6981 23.3545 21.8905 23.3545C32.0829 23.3545 33.0166 33.0967 33.0166 33.0967C33.0166 33.0967 28.4981 37.9282 21.3032 37.9219C14.1083 37.9155 9.58984 33.0967 9.58984 33.0967Z" fill="#F49A01"/>
<path d="M21.8914 24.7242C25.2745 24.7242 28.0171 21.9816 28.0171 18.5984C28.0171 15.2153 25.2745 12.4727 21.8914 12.4727C18.5082 12.4727 15.7656 15.2153 15.7656 18.5984C15.7656 21.9816 18.5082 24.7242 21.8914 24.7242Z" fill="#F49A01"/>
<path d="M23.8364 54.1436C29.2948 54.1436 33.7198 49.7187 33.7198 44.2603C33.7198 38.8019 29.2948 34.377 23.8364 34.377C18.378 34.377 13.9531 38.8019 13.9531 44.2603C13.9531 49.7187 18.378 54.1436 23.8364 54.1436Z" fill="#DC000F"/>
<path opacity="0.18" d="M29.5702 6.06494L6.16406 28.6579L8.17481 31.7235L33.017 8.60116C33.017 8.60116 31.4628 6.97085 29.5702 6.06494Z" fill="white"/>
<path opacity="0.18" d="M35.1737 11.668L11.7676 34.2609L13.7783 37.3265L38.6206 14.2042C38.6206 14.2042 37.0663 12.5739 35.1737 11.668Z" fill="white"/>
<path d="M21.4478 54.1436C26.9062 54.1436 31.3311 49.7187 31.3311 44.2603C31.3311 38.8019 26.9062 34.377 21.4478 34.377C15.9894 34.377 11.5645 38.8019 11.5645 44.2603C11.5645 49.7187 15.9894 54.1436 21.4478 54.1436Z" fill="#F4849A"/>
<path d="M16.73 43.9401L17.4441 43.1325C17.6683 42.8789 18.0543 42.8519 18.3119 43.0715L20.2735 44.7469C20.3552 44.8167 20.4756 44.8119 20.5517 44.7366L26.1457 39.2235C26.3929 38.9794 26.7924 38.9866 27.0317 39.2386L27.8465 40.097C28.074 40.3371 28.0732 40.7136 27.8449 40.9529L21.2959 47.807C20.8878 48.2342 20.2085 48.2414 19.7908 47.8245L16.7561 44.7897C16.5239 44.5575 16.5128 44.1858 16.73 43.9401Z" fill="white"/>
</g>
<defs>
<linearGradient id="paint0_linear_10724_68272" x1="44.7982" y1="49.0568" x2="52.1068" y2="40.7902" gradientUnits="userSpaceOnUse">
<stop stop-color="#0C008A"/>
<stop offset="1" stop-color="#615FEB"/>
</linearGradient>
<clipPath id="clip0_10724_68272">
<rect width="59.9616" height="56" fill="white"/>
</clipPath>
</defs>
</svg>
