<svg width="55" height="56" viewBox="0 0 55 56" fill="none" xmlns="http://www.w3.org/2000/svg">
<g clip-path="url(#clip0_10724_66573)">
<path d="M52.0424 23.5542H3.35742V52.3783H52.0424V23.5542Z" fill="url(#paint0_linear_10724_66573)"/>
<path d="M0.779119 52.0527H54.0881C54.5049 52.0527 54.8438 52.3916 54.8438 52.8084V55.921H0.0234375V52.8084C0.0234375 52.3916 0.362301 52.0527 0.779119 52.0527Z" fill="#0C008A"/>
<path d="M54.6271 21.3379H1.30621C1.18671 21.3379 1.08984 21.4348 1.08984 21.5543V23.3377C1.08984 23.4572 1.18671 23.554 1.30621 23.554H54.6271C54.7466 23.554 54.8435 23.4572 54.8435 23.3377V21.5543C54.8435 21.4348 54.7466 21.3379 54.6271 21.3379Z" fill="#0C008A"/>
<path d="M54.6271 28.1885H1.30621C1.18671 28.1885 1.08984 28.2853 1.08984 28.4048V30.1883C1.08984 30.3077 1.18671 30.4046 1.30621 30.4046H54.6271C54.7466 30.4046 54.8435 30.3077 54.8435 30.1883V28.4048C54.8435 28.2853 54.7466 28.1885 54.6271 28.1885Z" fill="#0C008A"/>
<path d="M45.6403 21.3379H9.75977V28.1883H45.6403V21.3379Z" fill="#9B9AFF"/>
<path d="M9.75977 21.3382L27.4332 12.6304L45.6395 21.3382H9.75977Z" fill="#DC000F"/>
<path d="M27.4336 0.625977V12.6302" stroke="black" stroke-width="1.15023" stroke-linecap="round" stroke-linejoin="round"/>
<path d="M13.4947 48.7773H3.35742V52.3784H13.4947V48.7773Z" fill="#F49A01"/>
<path d="M52.0435 48.7773H41.9062V52.3784H52.0435V48.7773Z" fill="#F49A01"/>
<path d="M20.2969 33.9717H13.4941V52.3785H20.2969V33.9717Z" fill="#615FEB"/>
<path d="M41.9043 33.9717H35.1016V52.3785H41.9043V33.9717Z" fill="#615FEB"/>
<path d="M32.3019 37.1733H22.9648V52.3792H32.3019V37.1733Z" fill="#0C008A"/>
<path d="M32.3019 37.1733H22.9648V42.5085H32.3019V37.1733Z" fill="#9B9AFF"/>
<path d="M6.62752 35.0391H10.491C10.7496 35.0391 10.9604 35.2491 10.9604 35.5084V46.5103H6.1582V35.5084C6.1582 35.2499 6.36821 35.0391 6.62752 35.0391Z" fill="white"/>
<path d="M45.0416 35.0391H48.9051C49.1636 35.0391 49.3744 35.2491 49.3744 35.5084V46.5103H44.5723V35.5084C44.5723 35.2499 44.7823 35.0391 45.0416 35.0391Z" fill="white"/>
<path d="M28.2623 0.0395508H39.1545C39.5172 0.0395508 39.8115 0.333869 39.8115 0.696596V7.29489H28.1406V0.161255C28.1406 0.0944371 28.1955 0.0395508 28.2623 0.0395508Z" fill="#FCBCC1"/>
<path d="M32.3438 7.29492H39.8131V9.68049C39.8131 10.0003 39.5537 10.2596 39.234 10.2596H32.3438V7.29492Z" fill="url(#paint1_linear_10724_66573)"/>
<path d="M9.75977 30.3325H23.9356V33.2606C23.9356 33.6527 23.6166 33.9717 23.2244 33.9717H10.4709C10.0787 33.9717 9.75977 33.6527 9.75977 33.2606V30.3325Z" fill="#9B9AFF"/>
<path d="M31.416 30.3325H45.5918V33.2606C45.5918 33.6527 45.2728 33.9717 44.8807 33.9717H32.1272C31.735 33.9717 31.416 33.6527 31.416 33.2606V30.3325Z" fill="#9B9AFF"/>
<path d="M28.0911 0.0395508H32.1145V7.29489H27.9766V0.154892C27.9766 0.0912553 28.0283 0.0395508 28.0919 0.0395508H28.0911Z" fill="#0C008A"/>
<path d="M36.0772 0.0395508H32.1055V7.29489H36.0772V0.0395508Z" fill="white"/>
</g>
<defs>
<linearGradient id="paint0_linear_10724_66573" x1="3.54435" y1="30.3299" x2="50.2407" y2="45.0927" gradientUnits="userSpaceOnUse">
<stop stop-color="#0C008A"/>
<stop offset="1" stop-color="#615FEB"/>
</linearGradient>
<linearGradient id="paint1_linear_10724_66573" x1="32.3438" y1="8.77685" x2="39.8131" y2="8.77685" gradientUnits="userSpaceOnUse">
<stop stop-color="#DC000F"/>
<stop offset="1" stop-color="#F4849A"/>
</linearGradient>
<clipPath id="clip0_10724_66573">
<rect width="54.8864" height="56" fill="white"/>
</clipPath>
</defs>
</svg>
