<svg width="87" height="80" viewBox="0 0 87 80" fill="none" xmlns="http://www.w3.org/2000/svg">
<g clip-path="url(#clip0_10724_66758)">
<path d="M7.58317 27.5874H57.7798V69.9749H7.78658C7.67408 69.9749 7.58203 69.8829 7.58203 69.7704V27.5874H7.58317Z" fill="url(#paint0_linear_10724_66758)"/>
<path d="M57.7793 27.5874H80.3952V69.7329C80.3952 69.8658 80.2873 69.9749 80.1532 69.9749H57.7793V27.5874Z" fill="#DC000F"/>
<path d="M7.58244 27.5876L1.86994 15.6694C1.70517 15.3262 1.95517 14.9285 2.33585 14.9285H22.362C22.6018 14.9285 22.8211 15.0614 22.9324 15.2739L29.3711 27.5876H7.58244Z" fill="#F4849A"/>
<path d="M57.7791 27.5874L50.2246 44.8817C50.1223 45.1158 49.8905 45.2681 49.6348 45.2681H0.73823C0.273457 45.2681 -0.039042 44.7897 0.149594 44.3635L7.58028 27.5874H57.7769H57.7791Z" fill="#FCBCC1"/>
<path d="M35.0191 23.8501H42.06C42.2816 23.8501 42.4612 24.0296 42.4612 24.2512V27.5876H34.6191V24.2512C34.6191 24.0296 34.7987 23.8501 35.0203 23.8501H35.0191Z" fill="#0C008A"/>
<path d="M37.9132 0.0568004H39.1711C39.4939 0.0568004 39.7927 0.224982 39.9609 0.501119L42.6393 4.91816C42.8495 5.26475 42.8086 5.70907 42.5382 6.01135L40.6643 8.11021C40.5132 8.27953 40.4302 8.49771 40.4302 8.72498V23.842H36.8041V8.77271C36.8041 8.5318 36.7098 8.29998 36.5405 8.12726L34.5836 6.12725C34.2916 5.82839 34.2359 5.37044 34.4495 5.01021L37.1211 0.507937C37.287 0.227255 37.5893 0.0556641 37.9155 0.0556641L37.9132 0.0568004Z" fill="#9B9AFF"/>
<path d="M14.3434 5.19321L17.6831 10.8921C17.7945 11.083 17.8172 11.3137 17.7445 11.5228L16.7581 14.3466C16.6422 14.6784 16.3127 14.8864 15.9627 14.8478L12.8184 14.5C12.5718 14.4728 12.3547 14.3262 12.2377 14.1091L9.22632 8.53981C9.12519 8.35231 8.85473 8.35003 8.75246 8.5364C8.10814 9.70799 6.56837 13.1875 8.58655 16.7432C10.3377 19.8273 13.3684 20.5864 15.3309 20.7319C16.5786 20.8239 17.7013 21.5228 18.3445 22.5966L21.3445 27.6103H27.5456L22.8684 19.9444C22.2615 18.9489 22.1456 17.7353 22.5297 16.6341C23.1081 14.9784 23.615 12.233 22.1706 9.41935C20.2888 5.75344 16.0831 4.95571 14.6059 4.78526C14.3843 4.76026 14.2309 4.9989 14.3434 5.19094V5.19321Z" fill="#0C008A"/>
<path d="M62.6475 4.86597C58.7759 5.00575 55.3532 8.1012 55.3532 11.9762C55.3532 13.3557 55.5929 14.2182 55.91 14.8864C56.4588 16.0432 56.4032 17.3944 55.7145 18.4739L49.9043 27.5876H57.8179L61.3168 21.6478C61.8952 20.666 62.9111 20.0432 64.0418 19.9114C67.8475 19.4682 70.5168 15.8955 70.5168 12.4501C70.5168 8.16484 66.9657 4.70916 62.6463 4.86597H62.6475ZM65.6213 14.3285L63.2611 15.6807C63.0543 15.7989 62.802 15.8035 62.5918 15.691L60.0191 14.3239C59.7929 14.2035 59.6509 13.9682 59.6509 13.7114V10.6205C59.6509 10.3694 59.7861 10.1387 60.0054 10.016L62.4441 8.64893C62.6691 8.52279 62.9463 8.53188 63.1622 8.67393L65.6566 10.3057C65.852 10.4342 65.9702 10.6523 65.9702 10.8864V13.7285C65.9702 13.9773 65.8372 14.2069 65.6213 14.3296V14.3285Z" fill="#0C008A"/>
<path d="M57.7793 27.5876L63.9452 15.2841C64.0543 15.066 64.277 14.9285 64.5202 14.9285H85.7861C86.2895 14.9285 86.6157 15.4614 86.385 15.9091L80.3952 27.5876H57.7793Z" fill="url(#paint1_linear_10724_66758)"/>
<path d="M10.9355 61.3887H18.6049" stroke="white" stroke-width="1.40909" stroke-miterlimit="10" stroke-linecap="round"/>
<path d="M10.9355 64.2H18.6049" stroke="white" stroke-width="1.40909" stroke-miterlimit="10" stroke-linecap="round"/>
<path d="M12.6022 56.991H10.5908C10.5256 56.991 10.4727 57.0439 10.4727 57.1091V59.1205C10.4727 59.1858 10.5256 59.2387 10.5908 59.2387H12.6022C12.6675 59.2387 12.7204 59.1858 12.7204 59.1205V57.1091C12.7204 57.0439 12.6675 56.991 12.6022 56.991Z" fill="white"/>
<path d="M69.0973 74.0022L69.9336 72.009C70.1132 71.5806 69.912 71.0874 69.4836 70.9079L67.7177 70.167C67.3768 70.0238 67.1677 69.6738 67.2063 69.3056C67.2768 68.634 67.27 67.9636 67.1904 67.3056C67.145 66.9295 67.3563 66.5693 67.7075 66.4249L69.4098 65.7295C69.8404 65.5534 70.0461 65.0624 69.87 64.6318L69.0518 62.6306C68.8757 62.1999 68.3847 61.9943 67.9541 62.1704L66.1757 62.8977C65.8347 63.0363 65.4427 62.9397 65.2097 62.6556C64.8279 62.1886 64.3961 61.7568 63.9177 61.3693C63.6268 61.1329 63.5245 60.734 63.67 60.3886L64.3154 58.8511C64.495 58.4227 64.2938 57.9295 63.8654 57.7499L61.8722 56.9136C61.4438 56.734 60.9507 56.9352 60.7711 57.3636L60.1257 58.9011C59.9813 59.2454 59.6268 59.4534 59.2552 59.4113C58.6972 59.3477 58.1382 59.3374 57.587 59.3772C57.2245 59.4034 56.887 59.1931 56.7495 58.8568L56.1836 57.4715C56.0075 57.0409 55.5166 56.8352 55.0859 57.0113L53.0847 57.8295C52.6541 58.0056 52.4484 58.4965 52.6245 58.9272L53.1234 60.1488C53.2688 60.5045 53.1552 60.9124 52.8473 61.142C52.2734 61.5681 51.7473 62.0659 51.2825 62.6284C51.0473 62.9124 50.6518 63.0068 50.312 62.8647L49.1234 62.3659C48.695 62.1863 48.2018 62.3874 48.0222 62.8159L47.1859 64.809C47.0063 65.2374 47.2075 65.7306 47.6359 65.9102L48.7745 66.3886C49.1222 66.5352 49.3302 66.8943 49.2836 67.2693C49.2041 67.9079 49.195 68.5465 49.2518 69.1749C49.2847 69.5431 49.0745 69.8909 48.7325 70.0306L47.5154 70.5284C47.0847 70.7045 46.8791 71.1954 47.0552 71.6261L47.8734 73.6272C48.0495 74.0579 48.5404 74.2636 48.9711 74.0874L50.112 73.6215C50.462 73.4784 50.8654 73.5863 51.0961 73.8863C51.5188 74.4352 52.0075 74.9374 52.5552 75.3818C52.845 75.6159 52.9438 76.0147 52.7995 76.359L52.2257 77.7261C52.0461 78.1545 52.2473 78.6477 52.6757 78.8272L54.6688 79.6636C55.0972 79.8431 55.5904 79.642 55.77 79.2136L56.3438 77.8465C56.4882 77.5011 56.8438 77.2943 57.2154 77.3363C57.9666 77.4215 58.7166 77.4113 59.4507 77.3113C59.8325 77.259 60.2018 77.4693 60.3473 77.8261L60.9779 79.3681C61.1541 79.7988 61.645 80.0045 62.0757 79.8284L64.0768 79.0102C64.5075 78.834 64.7132 78.3431 64.537 77.9124L63.8404 76.2068C63.7029 75.8715 63.795 75.484 64.0722 75.2499C64.5166 74.8738 64.9268 74.4511 65.2961 73.9863C65.5302 73.692 65.9313 73.5909 66.2779 73.7363L67.995 74.4568C68.4234 74.6363 68.9166 74.4352 69.0961 74.0068L69.0973 74.0022ZM56.1995 73.4954C53.2927 72.3386 51.9302 69.0034 53.1938 66.142C54.3847 63.4454 57.5336 62.1579 60.2734 63.2488C63.1802 64.4056 64.5427 67.7409 63.2791 70.6022C62.0882 73.2988 58.9393 74.5863 56.1995 73.4954Z" fill="#FCBCC1"/>
</g>
<defs>
<linearGradient id="paint0_linear_10724_66758" x1="16.8104" y1="36.6533" x2="56.7582" y2="67.0499" gradientUnits="userSpaceOnUse">
<stop stop-color="#DC000F"/>
<stop offset="1" stop-color="#F4849A"/>
</linearGradient>
<linearGradient id="paint1_linear_10724_66758" x1="57.7793" y1="21.258" x2="86.4611" y2="21.258" gradientUnits="userSpaceOnUse">
<stop stop-color="#DC000F"/>
<stop offset="1" stop-color="#F4849A"/>
</linearGradient>
<clipPath id="clip0_10724_66758">
<rect width="86.4773" height="80" fill="white"/>
</clipPath>
</defs>
</svg>
