<svg xmlns="http://www.w3.org/2000/svg" width="50" height="50"><rect width="50" height="50" fill="#fff" rx="6.667"/><path fill="#1B4991" d="M12.13 24.424H9.707l-.332.762H8.077l2.447-5.964h.8l2.438 5.964h-1.3zm-1.21-3.292-.79 2.306h1.577zm4.778 4.054h-1.21v-4.392h1.21zm5.638-6.657v6.658h-1.112v-.543c-.306.418-.816.649-1.425.649-1.255 0-2.15-.977-2.15-2.299s.895-2.298 2.15-2.298c.555 0 1.013.185 1.328.523v-2.69zm-1.192 4.465c0-.834-.565-1.216-1.122-1.216-.628 0-1.147.462-1.147 1.207s.51 1.216 1.147 1.216c.557 0 1.122-.364 1.122-1.207m6.114-.418v2.61h-1.112v-.425c-.313.329-.78.533-1.353.533-.968 0-1.534-.568-1.534-1.314 0-.799.654-1.277 1.676-1.277h1.112v-.195c0-.48-.278-.773-.825-.773-.475 0-.806.223-1.174.604l-.628-.737c.52-.613 1.157-.906 1.937-.906 1.13 0 1.901.629 1.901 1.88m-1.211.97v-.055h-.95c-.395 0-.62.15-.62.444 0 .303.261.48.636.48.514 0 .934-.355.934-.87m6.456-1.085v2.726h-1.202V22.62c0-.507-.332-.852-.825-.852s-.842.345-.842.852v2.566h-1.21v-4.393h1.113v.4c.305-.303.753-.498 1.299-.498 1.039 0 1.667.709 1.667 1.765m4.015 1.723v1.002c-.252.062-.52.107-.835.107-1.093 0-1.775-.524-1.775-1.651v-1.838h-.7v-1.012h.7v-1.108h1.21v1.11h1.253v1.012h-1.254v1.73c0 .505.268.683.825.683.146 0 .343-.018.576-.035m3.98-2.831-.609.737c-.287-.266-.635-.418-.995-.418-.287 0-.475.098-.475.31 0 .178.143.266.467.39l.43.178c.796.32 1.246.657 1.246 1.34 0 .907-.76 1.402-1.73 1.402-.79 0-1.444-.338-1.838-.852l.61-.728c.358.364.77.595 1.246.595.306 0 .565-.115.565-.364 0-.205-.188-.284-.458-.4l-.474-.194c-.754-.303-1.21-.648-1.21-1.34 0-.844.69-1.323 1.632-1.323.643 0 1.19.223 1.594.667m-25.734 6.03-.915.638c-.394-.621-.95-.985-1.695-.985-1.103 0-1.909.798-1.909 1.934 0 1.127.806 1.918 1.909 1.918.744 0 1.3-.364 1.695-.986l.915.639c-.51.896-1.47 1.455-2.617 1.455C9.389 31.998 8 30.686 8 28.963c0-1.721 1.39-3.036 3.156-3.036 1.138 0 2.089.56 2.608 1.456m5.37 2.308c0 1.305-1.076 2.298-2.392 2.298s-2.368-.993-2.368-2.299c0-1.295 1.048-2.289 2.375-2.289 1.31 0 2.386.994 2.386 2.29m-3.532.009c0 .692.474 1.19 1.147 1.19.655 0 1.148-.507 1.148-1.19 0-.693-.493-1.207-1.148-1.207-.673 0-1.147.514-1.147 1.207m8.6-.533v2.725H23v-2.565c0-.507-.332-.853-.825-.853s-.842.346-.842.853v2.565h-1.21v-4.394h1.113v.399c.305-.303.754-.497 1.3-.497 1.038.001 1.666.71 1.666 1.767m5.11 0v2.725h-1.201v-2.565c0-.507-.332-.853-.825-.853s-.842.346-.842.853v2.565h-1.21v-4.394h1.112v.399c.306-.303.754-.497 1.3-.497 1.04.001 1.667.71 1.667 1.767m5.246.932h-3.111c.142.559.6.87 1.247.87.484 0 .88-.168 1.237-.443l.503.817a2.72 2.72 0 0 1-1.776.657c-1.408 0-2.43-1.003-2.43-2.298s1.013-2.299 2.321-2.299c1.247 0 2.09.906 2.09 2.043 0 .244-.046.502-.081.653m-3.111-.843h2.018c-.01-.559-.449-.887-.96-.887s-.923.337-1.058.887m8.185-.772-.842.648c-.251-.373-.574-.639-1.067-.639-.69 0-1.164.514-1.164 1.198 0 .692.474 1.206 1.164 1.206.484 0 .806-.265 1.067-.63l.842.64c-.368.657-1.048 1.091-1.928 1.091-1.327 0-2.376-1.002-2.376-2.308 0-1.295 1.049-2.289 2.376-2.289.887 0 1.56.426 1.928 1.083m3.746 2.406v1.002c-.25.061-.519.106-.834.106-1.093 0-1.776-.523-1.776-1.65V28.51h-.7v-1.012h.7v-1.11h1.21v1.11h1.254v1.012h-1.254v1.73c0 .505.268.683.825.683.146.002.343-.016.575-.033"/><path fill="#EF4056" d="M17.522 20.45c.684 0 1.238-.548 1.238-1.225 0-.676-.554-1.225-1.238-1.225s-1.237.549-1.237 1.225c0 .677.554 1.226 1.237 1.226"/></svg>