<svg xmlns="http://www.w3.org/2000/svg" width="80" height="80" fill="none"><path fill="#fff" d="M10.667.5h58.666C74.948.5 79.5 5.052 79.5 10.667v58.666c0 5.615-4.552 10.167-10.167 10.167H10.667C5.052 79.5.5 74.948.5 69.333V10.667C.5 5.052 5.052.5 10.667.5"/><path stroke="#DDD" d="M10.667.5h58.666C74.948.5 79.5 5.052 79.5 10.667v58.666c0 5.615-4.552 10.167-10.167 10.167H10.667C5.052 79.5.5 74.948.5 69.333V10.667C.5 5.052 5.052.5 10.667.5Z"/><path fill="#274185" d="M25.253 33.462c0-2.366 1.843-4.07 5.148-4.627L35.445 28v-.8c0-1.913-1.427-3.095-3.444-3.095-1.705 0-3.026.765-3.93 2.052l-2.401-1.844c1.391-1.878 3.618-3.026 6.435-3.026 4.21 0 6.54 2.47 6.54 5.913v10.332h-3.2v-1.774c-1.114 1.356-3.062 2.226-5.01 2.226-3.06.035-5.182-1.74-5.182-4.522m5.809 1.948c1.948 0 3.478-.94 4.417-2.435V30.26l-4.209.73c-1.948.349-2.748 1.184-2.748 2.366-.034 1.218.94 2.053 2.54 2.053M40.419 21.878h3.2v1.53c1.183-1.251 2.748-2.156 4.974-2.156 3.444 0 6.088 2.33 6.088 6.853v9.392h-3.235v-9.253c0-2.47-1.357-3.965-3.618-3.965-2.157 0-3.409 1.321-4.209 2.713v10.54h-3.2zM38.193 52.977l2.574 1.982c-1.461 1.983-3.827 3.235-6.784 3.235-5.356 0-8.73-3.965-8.73-8.661 0-4.661 3.374-8.662 8.73-8.662 2.923 0 5.323 1.287 6.784 3.235l-2.575 1.983c-.904-1.252-2.365-2.122-4.209-2.122-3.095 0-5.322 2.4-5.322 5.566s2.227 5.565 5.357 5.565c1.844 0 3.305-.904 4.175-2.121M45.845 44.802h-3.478v-2.887h3.478v-3.896h3.235v3.896h5.6v2.887h-5.6v7.34c0 2.122 1.113 2.782 2.853 2.782 1.043 0 2.191-.139 2.748-.347v2.817c-.73.313-2.018.452-3.235.452-3.653 0-5.6-1.913-5.6-5.74zM56.837 19.13v2.157h3.096v-3.026c0-1.078-.974-2.191-2.052-2.261h-3.235v2.991z"/><path fill="#FFCB05" d="M56.837 60.42v-2.156h3.096v3.026c0 1.078-.974 2.192-2.052 2.261h-3.235V60.56z"/><path fill="#5C72B7" d="M23.096 60.42v-2.156H20v3.026c0 1.078.974 2.192 2.052 2.261h3.235V60.56z"/><path fill="#008473" d="M23.096 19.13v2.157H20v-3.026c0-1.078.974-2.191 2.052-2.261h3.235v2.991z"/></svg>