<svg xmlns="http://www.w3.org/2000/svg" width="120" height="120"><path fill="#fff" d="M0 0h120v120H0z"/><path fill="#274185" d="M37.879 50.193c0-3.549 2.765-6.105 7.722-6.94L53.167 42v-1.2c0-2.87-2.14-4.644-5.166-4.644-2.556 0-4.54 1.148-5.896 3.078l-3.6-2.765c2.087-2.818 5.426-4.54 9.653-4.54 6.313 0 9.81 3.705 9.81 8.87v15.497h-4.801v-2.66c-1.67 2.034-4.592 3.339-7.514 3.339-4.591.052-7.774-2.61-7.774-6.783m8.714 2.922c2.921 0 5.217-1.41 6.626-3.653v-4.07l-6.313 1.096c-2.922.522-4.123 1.774-4.123 3.548-.052 1.826 1.41 3.078 3.81 3.078m14.035-20.295h4.8v2.295c1.775-1.878 4.123-3.235 7.462-3.235 5.166 0 9.131 3.496 9.131 10.28v14.087H77.17V42.366c0-3.705-2.035-5.948-5.427-5.948-3.235 0-5.113 1.983-6.313 4.07v15.81h-4.8zm-3.339 46.647 3.861 2.974c-2.191 2.974-5.74 4.853-10.175 4.853-8.035 0-13.096-5.949-13.096-12.993 0-6.992 5.061-12.992 13.096-12.992 4.383 0 7.983 1.93 10.175 4.852l-3.861 2.975c-1.357-1.879-3.548-3.183-6.314-3.183-4.644 0-7.983 3.6-7.983 8.348s3.34 8.349 8.036 8.349c2.765 0 4.956-1.357 6.26-3.183m11.48-12.262H63.55v-4.33h5.218v-5.845h4.853v5.844h8.4v4.331h-8.4v11.01c0 3.182 1.67 4.174 4.278 4.174 1.565 0 3.287-.21 4.122-.522v4.226c-1.096.47-3.026.679-4.853.679-5.478 0-8.4-2.87-8.4-8.61zm16.488-38.507v3.235H89.9v-4.54c0-1.617-1.461-3.287-3.079-3.391H81.97v4.487z"/><path fill="#FFCB05" d="M85.256 90.63v-3.234H89.9v4.54c0 1.617-1.461 3.286-3.079 3.39H81.97V90.84z"/><path fill="#5C72B7" d="M34.644 90.63v-3.234H30v4.54c0 1.617 1.461 3.286 3.078 3.39h4.853V90.84z"/><path fill="#008473" d="M34.644 28.696v3.235H30v-4.54c0-1.617 1.461-3.287 3.078-3.391h4.853v4.487z"/></svg>