<svg xmlns="http://www.w3.org/2000/svg" width="50" height="50"><path fill="#fff" d="M40.91 0H9.09A9.09 9.09 0 0 0 0 9.09v31.82A9.09 9.09 0 0 0 9.09 50h31.82A9.09 9.09 0 0 0 50 40.91V9.09A9.09 9.09 0 0 0 40.91 0"/><path fill="url(#a)" d="M33.703 16.297A12.27 12.27 0 0 0 25 12.69c-3.4 0-6.477 1.383-8.703 3.608A12.27 12.27 0 0 0 12.69 25c0 3.4 1.382 6.477 3.607 8.702A12.27 12.27 0 0 0 25 37.31c3.4 0 6.477-1.382 8.703-3.608A12.27 12.27 0 0 0 37.31 25c0-3.4-1.382-6.477-3.608-8.703"/><path fill="url(#b)" d="M20.712 24.261a3.544 3.544 0 0 1 5.018 0l1.26-1.25 10.435-10.435.426-.426c-.37-.37-1.05-.426-1.97-.076L19.443 18.4c-.928.35-1.875 1.07-2.651 1.941l2.67 2.67z"/><path fill="url(#c)" d="m19.46 30.54 1.26-1.26a3.544 3.544 0 0 1 0-5.019l-1.26-1.25-2.67-2.67c-.758.842-1.355 1.827-1.6 2.755l-3.457 12.68c-.256.938-.105 1.695.35 2.15l.492-.493z"/><path fill="url(#d)" d="m26.988 30.54-1.26-1.26a3.54 3.54 0 0 1-5.019 0l-1.26 1.26-6.884 6.885-.492.492c.454.454 1.203.606 2.15.35l3.087-.842 9.592-2.614c.928-.256 1.913-.852 2.756-1.6z"/><path fill="url(#e)" d="m37.86 12.14-.427.426-10.445 10.446-1.26 1.259a3.543 3.543 0 0 1 0 5.019l1.26 1.259 2.67 2.67c.872-.776 1.592-1.723 1.942-2.642l5.824-15.15.502-1.308c.35-.918.302-1.61-.067-1.98"/><path fill="#fff" d="M25.738 24.262a3.54 3.54 0 0 0-5.019 0 3.544 3.544 0 0 0 0 5.018 3.544 3.544 0 0 0 5.019 0 3.54 3.54 0 0 0 0-5.018"/><path fill="#0909B9" d="M24.479 25.521a1.77 1.77 0 0 0-1.26-.521 1.775 1.775 0 0 0-1.78 1.78 1.775 1.775 0 0 0 1.78 1.78A1.775 1.775 0 0 0 25 26.78c0-.492-.198-.937-.52-1.259"/><defs><linearGradient id="a" x1="19.422" x2="33.473" y1="30.578" y2="16.527" gradientUnits="userSpaceOnUse"><stop stop-color="#EFEFEF"/><stop offset="1" stop-color="#929292"/></linearGradient><linearGradient id="b" x1="27.325" x2="27.325" y1="10.903" y2="25.839" gradientUnits="userSpaceOnUse"><stop stop-color="#518FFF"/><stop offset="1" stop-color="#5F5FF1"/></linearGradient><linearGradient id="c" x1="16.159" x2="16.159" y1="19.653" y2="39.02" gradientUnits="userSpaceOnUse"><stop stop-color="#F95C5E"/><stop offset="1" stop-color="#E1000F"/></linearGradient><linearGradient id="d" x1="20.866" x2="20.866" y1="28.2" y2="39.266" gradientUnits="userSpaceOnUse"><stop stop-color="#E1000F"/><stop offset="1" stop-color="#881317"/></linearGradient><linearGradient id="e" x1="31.95" x2="31.95" y1="10.727" y2="33.138" gradientUnits="userSpaceOnUse"><stop stop-color="#5F5FF1"/><stop offset="1" stop-color="#000091"/></linearGradient></defs></svg>