<svg xmlns="http://www.w3.org/2000/svg" width="50" height="50"><path fill="#fff" d="M40 0H10C4.477 0 0 4.477 0 10v30c0 5.523 4.477 10 10 10h30c5.523 0 10-4.477 10-10V10c0-5.523-4.477-10-10-10"/><path fill="#000091" d="M12.946 15.625c0-.832 0-1.248.136-1.576.18-.438.529-.785.966-.967.328-.136.744-.136 1.576-.136 2.496 0 3.745 0 4.73.408a5.36 5.36 0 0 1 2.898 2.9c.408.984.408 2.232.408 4.728 0 .832 0 1.248-.136 1.576a1.8 1.8 0 0 1-.966.967c-.328.136-.744.136-1.577.136-2.496 0-3.744 0-4.728-.408a5.36 5.36 0 0 1-2.9-2.9c-.407-.984-.407-2.232-.407-4.728m16.071 8.035c-.832 0-1.248 0-1.576-.135a1.8 1.8 0 0 1-.967-.966c-.136-.329-.136-.745-.136-1.577 0-2.496 0-3.744.408-4.728a5.36 5.36 0 0 1 2.9-2.9c.984-.407 2.232-.407 4.728-.407.832 0 1.248 0 1.576.136.438.18.785.528.967.966.136.328.136.744.136 1.576 0 2.496 0 3.744-.408 4.729a5.36 5.36 0 0 1-2.9 2.9c-.984.407-2.232.407-4.728.407m-8.036 2.679c.833 0 1.249 0 1.577.136.437.18.785.528.966.966.136.328.136.744.136 1.576 0 2.496 0 3.744-.408 4.729a5.36 5.36 0 0 1-2.899 2.9c-.984.407-2.233.407-4.729.407-.832 0-1.248 0-1.576-.136a1.8 1.8 0 0 1-.966-.966c-.136-.329-.136-.745-.136-1.577 0-2.496 0-3.744.408-4.728a5.36 5.36 0 0 1 2.899-2.9c.984-.407 2.232-.407 4.728-.407m16.072 8.035c0 .832 0 1.248-.136 1.577a1.8 1.8 0 0 1-.967.966c-.328.136-.744.136-1.576.136-2.496 0-3.744 0-4.729-.408a5.36 5.36 0 0 1-2.899-2.9c-.408-.984-.408-2.232-.408-4.728 0-.832 0-1.248.136-1.576.181-.438.53-.785.967-.966.328-.136.744-.136 1.576-.136 2.496 0 3.744 0 4.729.407a5.36 5.36 0 0 1 2.899 2.9c.408.984.408 2.232.408 4.728"/></svg>