<svg xmlns="http://www.w3.org/2000/svg" width="80" height="80" fill="none"><path fill="#fff" d="M.75 4.74A3.99 3.99 0 0 1 4.74.75h70.52a3.99 3.99 0 0 1 3.99 3.99v70.52a3.99 3.99 0 0 1-3.99 3.99H4.74a3.99 3.99 0 0 1-3.99-3.99z"/><path stroke="#DDD" stroke-width="1.5" d="M.75 4.74A3.99 3.99 0 0 1 4.74.75h70.52a3.99 3.99 0 0 1 3.99 3.99v70.52a3.99 3.99 0 0 1-3.99 3.99H4.74a3.99 3.99 0 0 1-3.99-3.99z"/><path fill="#E1000F" stroke="#fff" stroke-width="2" d="m40.438 9.808-.512-.306-.512.306-16.273 9.699-.488.29v20.157l.128.229 15.404 27.379.287.51h2.908l.287-.51 15.404-27.38.129-.228V19.798l-.488-.291z"/><path fill="#fff" d="M44.586 27.273h6.154v-3.686l-10.814-6.442-10.849 6.442V36.47l10.85 6.407L50.74 36.47v-3.686h-6.154z"/><path fill="#000091" d="M44.586 32.785v-5.512l-4.66-2.791-4.66 2.791v5.512l4.66 2.756z"/></svg>