<svg width="480" height="343" viewBox="0 0 480 343" fill="none" xmlns="http://www.w3.org/2000/svg">
<path d="M356.631 159.759C356.631 144.035 369.402 68.9926 385.157 68.9926C400.912 68.9926 413.683 144.035 413.683 159.759C413.683 175.483 400.912 188.229 385.157 188.229C369.402 188.229 356.631 175.483 356.631 159.759Z" fill="#009F79"/>
<mask id="mask0_17446_91727" style="mask-type:alpha" maskUnits="userSpaceOnUse" x="360" y="71" width="57" height="120">
<path d="M360.873 165.041C360.873 149.803 375.513 71.9576 390.738 71.9576C405.963 71.9576 416.008 149.803 416.008 165.041C416.008 180.278 403.666 190.476 388.44 190.476C373.215 190.476 360.873 180.278 360.873 165.041Z" fill="black" fill-opacity="0.25"/>
</mask>
<g mask="url(#mask0_17446_91727)">
<path d="M356.632 159.395C356.632 143.515 368.445 69.8412 384.199 69.8412C399.954 69.8412 413.684 143.515 413.684 159.395C413.684 175.275 400.913 188.149 385.158 188.149C369.403 188.149 356.632 175.275 356.632 159.395Z" fill="black"/>
</g>
<path d="M241.512 140.189H237.002V218.216H241.512V140.189Z" fill="#273475"/>
<path d="M208.191 137.327C208.191 121.603 220.963 46.5609 236.718 46.5609C252.472 46.5609 265.244 121.603 265.244 137.327C265.244 153.051 252.472 165.797 236.718 165.797C220.963 165.797 208.191 153.051 208.191 137.327Z" fill="#009F79"/>
<mask id="mask1_17446_91727" style="mask-type:alpha" maskUnits="userSpaceOnUse" x="212" y="49" width="56" height="120">
<path d="M212.432 142.609C212.432 127.371 227.072 49.5255 242.297 49.5255C257.522 49.5255 267.567 127.371 267.567 142.609C267.567 157.846 255.225 168.044 240 168.044C224.774 168.044 212.432 157.846 212.432 142.609Z" fill="black" fill-opacity="0.25"/>
</mask>
<g mask="url(#mask1_17446_91727)">
<path d="M208.191 136.963C208.191 121.083 220.004 47.4091 235.758 47.4091C251.513 47.4091 265.243 121.083 265.243 136.963C265.243 152.844 252.472 165.717 236.717 165.717C220.962 165.717 208.191 152.844 208.191 136.963Z" fill="black"/>
</g>
<path d="M311.918 139.425H396.113V232.458H311.918V139.425Z" fill="white"/>
<path d="M335.974 96.6603H269.069L226.22 139.425H311.918C321.019 122.724 326.874 113.361 335.974 96.6603Z" fill="#FED131"/>
<path d="M353.27 73.8129H343.22V100.011H353.27L353.27 73.8129Z" fill="#FED131"/>
<path d="M369.05 85.4062L353.264 73.8129L337.477 85.4062V112.416H369.05V85.4062Z" fill="white"/>
<path d="M226.22 139.425H311.919V232.458H226.22V139.425Z" fill="#273475"/>
<path d="M369.05 112.416H337.477L311.917 139.425H396.113L369.05 112.416Z" fill="white"/>
<path d="M345.37 144.027H331.839V165.034H345.37V144.027Z" fill="#273475"/>
<path d="M331.839 153.813H345.37" stroke="white" stroke-width="0.33904"/>
<path d="M338.574 144.027V165.034" stroke="white" stroke-width="0.33904"/>
<path d="M381.134 144.027H367.603V165.034H381.134V144.027Z" fill="#273475"/>
<path d="M367.603 153.813H381.134" stroke="white" stroke-width="0.33904"/>
<path d="M374.337 144.027V165.034" stroke="white" stroke-width="0.33904"/>
<path d="M382.886 177.778H369.355V198.785H382.886V177.778Z" fill="#273475"/>
<path d="M369.355 187.564H382.886" stroke="white" stroke-width="0.33904"/>
<path d="M376.09 177.778V198.785" stroke="white" stroke-width="0.33904"/>
<path d="M344.716 177.778H331.185V198.785H344.716V177.778Z" fill="#273475"/>
<path d="M331.185 187.564H344.716" stroke="white" stroke-width="0.33904"/>
<path d="M337.919 177.778V198.785" stroke="white" stroke-width="0.33904"/>
<path d="M337.472 85.9797H326.948V112.416H337.472V85.9797Z" fill="#FED131"/>
<path d="M337.454 85.9797H326.962L343.218 73.8125H353.278L337.454 85.9797Z" fill="#273475"/>
<path d="M221.499 47.0455H210.974V74.055H221.499V47.0455Z" fill="white"/>
<path d="M210.971 47.0455H179.398V74.055H210.971V47.0455Z" fill="#273475"/>
<path d="M122.153 60.0241L204.608 58.2997L247.458 101.065H161.759L122.153 60.0241Z" fill="#FED131"/>
<path d="M247.457 101.065H161.759V194.097H247.457V101.065Z" fill="#FEFEFE"/>
<path d="M201.798 139.514C201.798 134.139 206.165 129.781 211.551 129.781C216.937 129.781 221.304 134.139 221.304 139.514V188.182H201.798V139.514Z" fill="#273475"/>
<path d="M136.202 74.0551H147.478L161.761 101.065L136.202 74.0551Z" fill="#FED131"/>
<path d="M161.761 101.065H77.5654V194.097H161.761V101.065Z" fill="#273475"/>
<path d="M122.153 60.0237L161.761 101.065H77.5654L122.153 60.0237Z" fill="#273475"/>
<path fill-rule="evenodd" clip-rule="evenodd" d="M341.525 247.679C341.531 247.446 341.533 247.213 341.533 246.979C341.533 231.897 329.283 219.671 314.172 219.671C299.06 219.671 286.81 231.897 286.81 246.979C286.81 247.213 286.813 247.446 286.818 247.679H341.525Z" fill="#009F79"/>
<mask id="mask2_17446_91727" style="mask-type:alpha" maskUnits="userSpaceOnUse" x="278" y="219" width="56" height="29">
<path fill-rule="evenodd" clip-rule="evenodd" d="M333.101 247.679C333.107 247.446 333.11 247.213 333.11 246.979C333.11 231.897 320.859 219.671 305.747 219.671C290.636 219.671 278.386 231.897 278.386 246.979C278.386 247.213 278.389 247.446 278.395 247.679H333.101Z" fill="black" fill-opacity="0.25"/>
</mask>
<g mask="url(#mask2_17446_91727)">
<path fill-rule="evenodd" clip-rule="evenodd" d="M341.519 247.679C341.525 247.447 341.528 247.213 341.528 246.979C341.528 231.897 329.278 219.671 314.166 219.671C299.054 219.671 286.804 231.897 286.804 246.979C286.804 247.213 286.807 247.447 286.813 247.679H341.519Z" fill="black"/>
</g>
<path fill-rule="evenodd" clip-rule="evenodd" d="M333.323 300.504C333.328 300.271 333.331 300.038 333.331 299.804C333.331 284.722 321.081 272.495 305.97 272.495C290.858 272.495 278.607 284.722 278.607 299.804C278.607 300.038 278.61 300.271 278.616 300.504H333.323Z" fill="#009F79"/>
<mask id="mask3_17446_91727" style="mask-type:alpha" maskUnits="userSpaceOnUse" x="270" y="272" width="55" height="29">
<path fill-rule="evenodd" clip-rule="evenodd" d="M324.896 300.504C324.902 300.271 324.905 300.038 324.905 299.804C324.905 284.722 312.655 272.496 297.543 272.496C282.432 272.496 270.181 284.722 270.181 299.804C270.181 300.038 270.184 300.271 270.19 300.504H324.896Z" fill="black" fill-opacity="0.25"/>
</mask>
<g mask="url(#mask3_17446_91727)">
<path fill-rule="evenodd" clip-rule="evenodd" d="M333.312 300.504C333.318 300.271 333.321 300.038 333.321 299.804C333.321 284.722 321.071 272.496 305.959 272.496C290.847 272.496 278.597 284.722 278.597 299.804C278.597 300.038 278.6 300.271 278.606 300.504H333.312Z" fill="black"/>
</g>
<path fill-rule="evenodd" clip-rule="evenodd" d="M366.233 247.679C366.239 247.446 366.242 247.213 366.242 246.979C366.242 231.897 353.991 219.671 338.88 219.671C323.769 219.671 311.518 231.897 311.518 246.979C311.518 247.213 311.521 247.446 311.527 247.679H366.233Z" fill="#009F79"/>
<mask id="mask4_17446_91727" style="mask-type:alpha" maskUnits="userSpaceOnUse" x="303" y="219" width="55" height="29">
<path fill-rule="evenodd" clip-rule="evenodd" d="M357.808 247.679C357.814 247.446 357.817 247.213 357.817 246.979C357.817 231.897 345.567 219.671 330.455 219.671C315.343 219.671 303.093 231.897 303.093 246.979C303.093 247.213 303.096 247.446 303.102 247.679H357.808Z" fill="black" fill-opacity="0.25"/>
</mask>
<g mask="url(#mask4_17446_91727)">
<path fill-rule="evenodd" clip-rule="evenodd" d="M366.227 247.679C366.232 247.447 366.235 247.213 366.235 246.979C366.235 231.897 353.985 219.671 338.873 219.671C323.762 219.671 311.511 231.897 311.511 246.979C311.511 247.213 311.514 247.447 311.52 247.679H366.227Z" fill="black"/>
</g>
<path fill-rule="evenodd" clip-rule="evenodd" d="M350.052 274.603C350.059 274.329 350.063 274.054 350.063 273.778C350.063 256.002 335.624 241.592 317.813 241.592C300.002 241.592 285.563 256.002 285.563 273.778C285.563 274.054 285.567 274.329 285.574 274.603H350.052Z" fill="#009F79"/>
<mask id="mask5_17446_91727" style="mask-type:alpha" maskUnits="userSpaceOnUse" x="275" y="241" width="66" height="34">
<path fill-rule="evenodd" clip-rule="evenodd" d="M340.127 274.603C340.134 274.329 340.137 274.054 340.137 273.778C340.137 256.002 325.698 241.592 307.887 241.592C290.077 241.592 275.638 256.002 275.638 273.778C275.638 274.054 275.642 274.329 275.648 274.603H340.127Z" fill="black" fill-opacity="0.25"/>
</mask>
<g mask="url(#mask5_17446_91727)">
<path fill-rule="evenodd" clip-rule="evenodd" d="M350.05 274.603C350.057 274.329 350.061 274.054 350.061 273.778C350.061 256.002 335.622 241.592 317.811 241.592C300 241.592 285.562 256.002 285.562 273.778C285.562 274.054 285.565 274.329 285.572 274.603H350.05Z" fill="black"/>
</g>
<path d="M227.314 196.968H143.119V290H227.314V196.968Z" fill="#273475"/>
<path d="M203.256 154.203H270.161L313.011 196.968H227.312C218.211 180.267 212.357 170.903 203.256 154.203Z" fill="#FED131"/>
<path d="M269.69 177.778L244.244 179.894L235.761 196.825L269.69 177.778Z" fill="#273475"/>
<path d="M269.69 177.778L312.944 201.058H227.278L269.69 177.778Z" fill="white"/>
<path d="M212.281 142.949H201.757V169.958H212.281V142.949Z" fill="#3B5FA9"/>
<path d="M201.753 142.949H170.18V169.958H201.753V142.949Z" fill="#273475"/>
<path d="M313.011 196.968H227.312V290H313.011V196.968Z" fill="#FEFEFE"/>
<path d="M201.755 169.958H213.032L227.315 196.968L201.755 169.958Z" fill="#FED131"/>
<path d="M170.181 169.958H201.755L227.314 196.968H143.119L170.181 169.958Z" fill="#273475"/>
<path d="M227.297 277.897H273.321V300.512H227.297V277.897Z" fill="#273475"/>
<path d="M263.328 251.024C263.328 245.637 267.703 241.27 273.101 241.27C278.498 241.27 282.873 245.637 282.873 251.024V280.284H263.328V251.024Z" fill="#273475"/>
<path d="M304.135 277.996H240.845V282.497H304.135V277.996Z" fill="#3B5FA9"/>
<path d="M312.735 282.497H249.445V286.999H312.735V282.497Z" fill="#3B5FA9"/>
<path d="M321.333 286.999H258.043V291.5H321.333V286.999Z" fill="#3B5FA9"/>
<path d="M328.309 291.5H265.02V296.002H328.309V291.5Z" fill="#3B5FA9"/>
<path d="M335.28 296.003H271.991V300.504H335.28V296.003Z" fill="#3B5FA9"/>
<path d="M302.307 207.407H288.775V228.415H302.307V207.407Z" fill="#273475"/>
<path d="M288.775 217.194H302.307" stroke="white" stroke-width="0.33904"/>
<path d="M295.51 207.407V228.414" stroke="white" stroke-width="0.33904"/>
<path d="M276.859 207.407H263.328V228.415H276.859V207.407Z" fill="#273475"/>
<path d="M263.328 217.194H276.86" stroke="white" stroke-width="0.33904"/>
<path d="M270.063 207.407V228.414" stroke="white" stroke-width="0.33904"/>
<path d="M251.094 207.407H237.563V228.415H251.094V207.407Z" fill="#273475"/>
<path d="M237.563 217.194H251.094" stroke="white" stroke-width="0.33904"/>
<path d="M244.298 207.407V228.415" stroke="white" stroke-width="0.33904"/>
<path fill-rule="evenodd" clip-rule="evenodd" d="M125.155 196.723C125.16 196.491 125.163 196.257 125.163 196.023C125.163 180.941 112.913 168.715 97.8015 168.715C82.6898 168.715 70.4395 180.941 70.4395 196.023C70.4395 196.257 70.4424 196.491 70.4483 196.723H125.155Z" fill="#009F79"/>
<mask id="mask6_17446_91727" style="mask-type:alpha" maskUnits="userSpaceOnUse" x="62" y="168" width="55" height="29">
<path fill-rule="evenodd" clip-rule="evenodd" d="M116.728 196.724C116.734 196.491 116.737 196.258 116.737 196.024C116.737 180.942 104.486 168.715 89.3747 168.715C74.2631 168.715 62.0127 180.942 62.0127 196.024C62.0127 196.258 62.0157 196.491 62.0215 196.724H116.728Z" fill="black" fill-opacity="0.25"/>
</mask>
<g mask="url(#mask6_17446_91727)">
<path fill-rule="evenodd" clip-rule="evenodd" d="M125.144 196.724C125.15 196.491 125.153 196.258 125.153 196.024C125.153 180.942 112.902 168.715 97.7907 168.715C82.6791 168.715 70.4287 180.942 70.4287 196.024C70.4287 196.258 70.4316 196.491 70.4375 196.724H125.144Z" fill="black"/>
</g>
<path d="M132.717 220.975H128.207V299.003H132.717V220.975Z" fill="#273475"/>
<path d="M99.3955 218.113C99.3955 202.39 112.167 127.347 127.922 127.347C143.676 127.347 156.448 202.39 156.448 218.113C156.448 233.837 143.676 246.584 127.922 246.584C112.167 246.584 99.3955 233.837 99.3955 218.113Z" fill="#009F79"/>
<mask id="mask7_17446_91727" style="mask-type:alpha" maskUnits="userSpaceOnUse" x="108" y="117" width="58" height="130">
<path d="M108.173 218.113C108.173 202.39 120.944 117.614 136.699 117.614C152.454 117.614 165.225 202.39 165.225 218.113C165.225 233.837 152.454 246.584 136.699 246.584C120.944 246.584 108.173 233.837 108.173 218.113Z" fill="black" fill-opacity="0.25"/>
</mask>
<g mask="url(#mask7_17446_91727)">
<path d="M99.394 218.113C99.394 202.39 114.523 127.347 130.278 127.347C146.032 127.347 156.447 202.39 156.447 218.113C156.447 233.837 143.675 246.584 127.92 246.584C112.166 246.584 99.394 233.837 99.394 218.113Z" fill="black"/>
</g>
<path d="M203.951 253.968H136.092V275.132H203.951V253.968Z" fill="#273475"/>
<path d="M227.276 224.339H163.305L136.091 253.968H203.95L227.276 224.339Z" fill="#FED131"/>
<path d="M227.276 300.529V224.339L203.95 253.968V300.529H227.276Z" fill="white"/>
<path d="M208.191 273.016C208.191 267.172 212.939 262.434 218.794 262.434C224.65 262.434 229.397 267.172 229.397 273.016V296.296H208.191V273.016Z" fill="#273475"/>
<path d="M271.81 194.709C274.153 194.709 276.052 192.814 276.052 190.476C276.052 188.138 274.153 186.243 271.81 186.243C269.468 186.243 267.569 188.138 267.569 190.476C267.569 192.814 269.468 194.709 271.81 194.709Z" fill="#273475"/>
<path d="M294.478 181.153L278.792 173.811L274.897 182.1L290.584 189.442L294.478 181.153Z" fill="#C4C4C4"/>
<path d="M284.328 176.402L278.792 173.811L274.897 182.1L280.433 184.691L284.328 176.402Z" fill="#3B5FA9"/>
<path d="M289.864 178.994L284.327 176.403L280.433 184.691L285.969 187.283L289.864 178.994Z" fill="white"/>
<path d="M295.399 181.586L289.862 178.994L285.968 187.283L291.504 189.874L295.399 181.586Z" fill="#CE0500"/>
<path d="M279.132 174.004L278.209 173.572L270.42 190.149L271.343 190.581L279.132 174.004Z" fill="#273475"/>
<path d="M247.283 181.153L262.97 173.811L266.865 182.1L251.178 189.442L247.283 181.153Z" fill="#C4C4C4"/>
<path d="M257.434 176.402L262.97 173.811L266.865 182.1L261.328 184.691L257.434 176.402Z" fill="#3B5FA9"/>
<path d="M251.898 178.994L257.435 176.403L261.329 184.691L255.793 187.283L251.898 178.994Z" fill="white"/>
<path d="M246.363 181.586L251.9 178.994L255.794 187.283L250.258 189.874L246.363 181.586Z" fill="#CE0500"/>
<path d="M262.629 174.004L263.552 173.572L271.341 190.149L270.419 190.58L262.629 174.004Z" fill="#273475"/>
<path fill-rule="evenodd" clip-rule="evenodd" d="M231.721 303.911C231.727 303.637 231.731 303.362 231.731 303.086C231.731 285.31 217.292 270.899 199.481 270.899C181.67 270.899 167.231 285.31 167.231 303.086C167.231 303.362 167.235 303.637 167.242 303.911H231.721Z" fill="#009F79"/>
<mask id="mask8_17446_91727" style="mask-type:alpha" maskUnits="userSpaceOnUse" x="157" y="270" width="65" height="34">
<path fill-rule="evenodd" clip-rule="evenodd" d="M221.787 303.911C221.793 303.637 221.797 303.362 221.797 303.086C221.797 285.31 207.358 270.899 189.547 270.899C171.736 270.899 157.297 285.31 157.297 303.086C157.297 303.362 157.301 303.637 157.308 303.911H221.787Z" fill="black" fill-opacity="0.25"/>
</mask>
<g mask="url(#mask8_17446_91727)">
<path fill-rule="evenodd" clip-rule="evenodd" d="M231.714 303.911C231.721 303.637 231.724 303.362 231.724 303.086C231.724 285.31 217.286 270.899 199.475 270.899C181.664 270.899 167.225 285.31 167.225 303.086C167.225 303.362 167.228 303.637 167.236 303.911H231.714Z" fill="black"/>
</g>
<path fill-rule="evenodd" clip-rule="evenodd" d="M148.604 292.444C148.61 292.195 148.613 291.945 148.613 291.694C148.613 275.534 135.487 262.434 119.296 262.434C103.104 262.434 89.9775 275.534 89.9775 291.694C89.9775 291.945 89.9807 292.195 89.987 292.444H148.604Z" fill="#009F79"/>
<mask id="mask9_17446_91727" style="mask-type:alpha" maskUnits="userSpaceOnUse" x="80" y="262" width="60" height="31">
<path fill-rule="evenodd" clip-rule="evenodd" d="M139.584 292.444C139.59 292.195 139.593 291.945 139.593 291.694C139.593 275.534 126.467 262.434 110.275 262.434C94.0836 262.434 80.9575 275.534 80.9575 291.694C80.9575 291.945 80.9607 292.195 80.967 292.444H139.584Z" fill="black" fill-opacity="0.25"/>
</mask>
<g mask="url(#mask9_17446_91727)">
<path fill-rule="evenodd" clip-rule="evenodd" d="M148.604 292.444C148.611 292.195 148.614 291.945 148.614 291.694C148.614 275.534 135.488 262.434 119.296 262.434C103.104 262.434 89.978 275.534 89.978 291.694C89.978 291.945 89.9812 292.195 89.9875 292.444H148.604Z" fill="black"/>
</g>
<path d="M148.612 292.444H89.9761V302.948H148.612V292.444Z" fill="#009F79"/>
<path d="M89.9761 292.444H139.591V303.905H89.9761V292.444Z" fill="#00775B"/>
<path fill-rule="evenodd" clip-rule="evenodd" d="M189.299 303.911C189.306 303.637 189.309 303.362 189.309 303.086C189.309 285.31 174.87 270.899 157.06 270.899C139.249 270.899 124.81 285.31 124.81 303.086C124.81 303.362 124.813 303.637 124.82 303.911H189.299Z" fill="#009F79"/>
<mask id="mask10_17446_91727" style="mask-type:alpha" maskUnits="userSpaceOnUse" x="114" y="270" width="66" height="34">
<path fill-rule="evenodd" clip-rule="evenodd" d="M179.375 303.911C179.382 303.637 179.386 303.362 179.386 303.086C179.386 285.31 164.947 270.899 147.136 270.899C129.325 270.899 114.886 285.31 114.886 303.086C114.886 303.362 114.89 303.637 114.897 303.911H179.375Z" fill="black" fill-opacity="0.25"/>
</mask>
<g mask="url(#mask10_17446_91727)">
<path fill-rule="evenodd" clip-rule="evenodd" d="M189.299 303.911C189.306 303.637 189.309 303.362 189.309 303.086C189.309 285.31 174.87 270.899 157.06 270.899C139.249 270.899 124.81 285.31 124.81 303.086C124.81 303.362 124.813 303.637 124.82 303.911H189.299Z" fill="black"/>
</g>
<path fill-rule="evenodd" clip-rule="evenodd" d="M401.481 247.6C401.487 247.368 401.49 247.134 401.49 246.9C401.49 231.818 389.239 219.592 374.128 219.592C359.016 219.592 346.766 231.818 346.766 246.9C346.766 247.134 346.769 247.368 346.775 247.6H401.481Z" fill="#009F79"/>
<mask id="mask11_17446_91727" style="mask-type:alpha" maskUnits="userSpaceOnUse" x="338" y="219" width="56" height="29">
<path fill-rule="evenodd" clip-rule="evenodd" d="M393.052 247.6C393.058 247.368 393.061 247.134 393.061 246.9C393.061 231.818 380.811 219.592 365.699 219.592C350.587 219.592 338.337 231.818 338.337 246.9C338.337 247.134 338.34 247.368 338.346 247.6H393.052Z" fill="black" fill-opacity="0.25"/>
</mask>
<g mask="url(#mask11_17446_91727)">
<path fill-rule="evenodd" clip-rule="evenodd" d="M401.472 247.6C401.478 247.368 401.481 247.134 401.481 246.9C401.481 231.818 389.231 219.592 374.119 219.592C359.007 219.592 346.757 231.818 346.757 246.9C346.757 247.134 346.76 247.368 346.766 247.6H401.472Z" fill="black"/>
</g>
<path d="M310.616 48.8201V44.0817" stroke="#EFCB3A" stroke-width="1.75946" stroke-linecap="round" stroke-linejoin="round"/>
<path d="M310.616 60.1166V55.3768" stroke="#EFCB3A" stroke-width="1.75946" stroke-linecap="round" stroke-linejoin="round"/>
<path d="M307.777 53.7385L303.673 56.1084" stroke="#EFCB3A" stroke-width="1.75946" stroke-linecap="round" stroke-linejoin="round"/>
<path d="M317.558 48.0907L313.455 50.4592" stroke="#EFCB3A" stroke-width="1.75946" stroke-linecap="round" stroke-linejoin="round"/>
<path d="M313.455 53.7385L317.558 56.1084" stroke="#EFCB3A" stroke-width="1.75946" stroke-linecap="round" stroke-linejoin="round"/>
<path d="M303.673 48.0907L307.777 50.4592" stroke="#EFCB3A" stroke-width="1.75946" stroke-linecap="round" stroke-linejoin="round"/>
<path d="M100.818 34.9424V30.2041" stroke="#EFCB3A" stroke-width="1.75946" stroke-linecap="round" stroke-linejoin="round"/>
<path d="M100.818 46.2389V41.4991" stroke="#EFCB3A" stroke-width="1.75946" stroke-linecap="round" stroke-linejoin="round"/>
<path d="M97.9809 39.8609L93.8774 42.2308" stroke="#EFCB3A" stroke-width="1.75946" stroke-linecap="round" stroke-linejoin="round"/>
<path d="M107.76 34.2131L103.656 36.5816" stroke="#EFCB3A" stroke-width="1.75946" stroke-linecap="round" stroke-linejoin="round"/>
<path d="M103.656 39.8609L107.76 42.2308" stroke="#EFCB3A" stroke-width="1.75946" stroke-linecap="round" stroke-linejoin="round"/>
<path d="M93.8774 34.2131L97.9809 36.5816" stroke="#EFCB3A" stroke-width="1.75946" stroke-linecap="round" stroke-linejoin="round"/>
<path d="M286.521 30.1856C288.32 30.1856 289.777 28.7278 289.777 26.9295C289.777 25.1313 288.32 23.6735 286.521 23.6735C284.723 23.6735 283.265 25.1313 283.265 26.9295C283.265 28.7278 284.723 30.1856 286.521 30.1856Z" stroke="#EFCB3A" stroke-width="1.75946" stroke-linecap="round" stroke-linejoin="round"/>
</svg>
