<svg xmlns="http://www.w3.org/2000/svg" width="80" height="80" fill="none"><path fill="#fff" d="M.5 10.667C.5 5.052 5.052.5 10.667.5h58.666C74.948.5 79.5 5.052 79.5 10.667v58.666c0 5.615-4.552 10.167-10.167 10.167H10.667C5.052 79.5.5 74.948.5 69.333z"/><path stroke="#DDD" d="M.5 10.667C.5 5.052 5.052.5 10.667.5h58.666C74.948.5 79.5 5.052 79.5 10.667v58.666c0 5.615-4.552 10.167-10.167 10.167H10.667C5.052 79.5.5 74.948.5 69.333z"/><path fill="#E30613" d="m22.913 57.302-5.58-3.1V25.42l14.17-7.882 5.757 3.188-14.347 7.926zm34.45-9.609 5.58-3.1V25.375L40.138 12.667l-5.756 3.188 22.982 12.797zM40.139 60.49l-14.391-8.015v6.377l14.391 8.015 22.805-12.709v-6.376z"/></svg>