<svg xmlns="http://www.w3.org/2000/svg" width="70" height="70" viewBox="0 0 232.4 209.5"><path style="fill:#e1000f" d="M36.7.1 1.1 20.6v41l33.7 57.9h3.8l33.5-57.9v-41z"/><path style="fill:#fff" d="M46.8 35.2h13.4v-7.8L36.7 13.8 13 27.4v27.2l23.7 13.8 23.5-13.8v-7.7H46.8z"/><path style="fill:#000091" d="M46.8 46.9V35.2l-10.1-5.9-10.3 5.9v11.7l10.3 5.9z"/><path d="m21.4 155.8 4.3 3.3c-2.5 3.4-6.5 5.5-11.3 5.5C6 164.6.1 158 .1 150.4s5.8-14.2 14.3-14.2c4.9 0 8.8 2.2 11.3 5.5l-4.3 3.4c-1.5-2.2-4-3.7-7.1-3.7-5.1 0-8.6 4-8.6 9s3.6 9 8.6 9c3.1 0 5.5-1.5 7.1-3.6zM56 150.4c0 7.6-5.8 14.2-14.2 14.2s-14.3-6.6-14.3-14.2 5.8-14.2 14.3-14.2c8.4 0 14.2 6.4 14.2 14.2zm-5.6 0c0-5.2-3.6-9-8.6-9s-8.6 4-8.6 9c0 5.1 3.6 9 8.6 9 4.9 0 8.6-3.9 8.6-9zM60.3 137h7l12 19.4V137h5.5v26.8h-7l-12-19.4v19.4h-5.5V137zM92.9 156.4c1.6 2.1 3.8 3.3 6 3.3s3.5-1.2 3.5-3.1c0-5-12.2-3.6-12.2-12.7 0-4.3 3.6-7.7 8.6-7.7 4.1 0 7.1 1.8 9.4 4.6l-4 3.6c-1.6-2-3.4-3.4-5.4-3.4-1.9 0-3.2 1.2-3.2 2.9 0 4.9 12.2 3.5 12.2 12.7-.1 5.1-4 8-8.9 8-4.6 0-7.5-1.7-9.9-4.5l3.9-3.7zM113.1 137h15.7v4.6h-10.2v6.4h8.6v4.6h-8.6v6.9h10.2v4.6h-15.7V137zM135.9 137h5.5v26.8h-5.5V137zM148.2 137h5.5v21.8h10.2v5h-15.7V137zM168.9 137h5.5v21.8h10.2v5h-15.7V137zM189.7 137h15.7v4.6h-10.2v6.4h8.6v4.6h-8.6v6.9h10.2v4.6h-15.7V137zM210.6 137h8.2c5.9 0 9.5 3 9.5 8 0 3.3-1.6 5.7-4.4 7l8.4 11.9h-6.4l-7.1-10.8H216v10.8h-5.5l.1-26.9zm5.4 4.5v7h3.1c2.3 0 3.7-1.4 3.7-3.6 0-2-1.4-3.4-3.7-3.4H216zM1.1 175.9h7l12.1 19.4v-19.4h5.5v26.9h-7L6.6 183.4v19.4H1.1v-26.9zM48.4 175.9h5.5v16.3c0 7.1-4.2 11.4-11 11.4S32 199.4 32 192.2v-16.3h5.5v16.8c0 3.6 2 5.8 5.5 5.8 3.4 0 5.4-2.1 5.4-5.8v-16.8zM60.4 175.9h6.8l6.6 11.3 6.6-11.3h6.8v26.9h-5.5v-19.3l-6 10.1h-3.9l-6-10.1v19.3h-5.5l.1-26.9zM94.1 175.9h15.7v4.6H99.6v6.4h8.7v4.6h-8.7v6.9h10.3v4.6H94.1v-27.1zm5.4-2.4 4.4-5.2h5.6l-5 5.2h-5zM116.6 175.9h8.3c5.9 0 9.6 3 9.6 8.1 0 3.3-1.6 5.7-4.4 7l8.5 12h-6.4l-7.2-11h-2.8v10.9h-5.6v-27zm5.4 4.5v7h3.1c2.3 0 3.7-1.4 3.7-3.6 0-2-1.4-3.4-3.7-3.4H122zM142.7 175.9h5.5v26.9h-5.5v-26.9zM183.7 204.7c.6 0 1.4-.1 1.9-.3v4.6c-.9.3-1.7.5-2.9.5-3 0-5.8-1.2-8.5-3.6L171 203c-1.2.3-2.4.5-3.7.5-8.5 0-14.3-6.6-14.3-14.2 0-7.7 5.8-14.2 14.3-14.2s14.2 6.6 14.2 14.2c0 4.5-2 8.6-5.3 11.3l1.6 1.5c2.4 1.9 4.3 2.6 5.9 2.6zm-7.5-15.4c0-5.2-3.6-9.1-8.7-9.1s-8.7 4-8.7 9.1 3.6 9.1 8.7 9.1 8.7-4 8.7-9.1zM202.9 175.9h5.5v16.3c0 7.1-4.2 11.4-11 11.4s-10.9-4.2-10.9-11.4v-16.3h5.5v16.8c0 3.6 2 5.8 5.5 5.8 3.4 0 5.4-2.1 5.4-5.8v-16.8zM214.3 175.9H230v4.6h-10.3v6.4h8.7v4.6h-8.7v6.9H230v4.6h-15.7v-27.1z"/></svg>
