<svg xmlns="http://www.w3.org/2000/svg" width="120" height="120"><path fill="#fff" d="M0 0h120v120H0z"/><path fill="#000091" d="M44.529 71.254c.01 0 .02-.016.02-.016a1.2 1.2 0 0 0 .237-.228c-.01 0-.02 0-.031-.015a4 4 0 0 0-.227.258m11.402-3.841-.18.155c.102-.025.18-.051.18-.155"/><path fill="#000091" fill-rule="evenodd" d="M52.243 71.336c.33-.332.66-.684.991-1.047h-.01c.62-.704 1.22-1.379 1.941-1.992q.33-.303.63-.514a.3.3 0 0 0 .06-.117c.015-.044.03-.088.06-.114-.142.054-.255.14-.37.227-.118.09-.237.18-.39.236-.06 0-.12-.06-.06-.121.21-.151.42-.312.62-.473h-.04c-.06 0-.06-.06-.06-.12-.744-.12-1.317.39-1.829.846l-.032.029c-.08.04-.155 0-.214-.031a.2.2 0 0 0-.076-.03c-.453.152-.844.432-1.237.714-.362.26-.727.521-1.144.685v-.12a5 5 0 0 0-.423.176 3.3 3.3 0 0 1-.628.236c-.392.091-.755.08-1.107.068q-.173-.007-.344-.007c-.64.063-1.274.2-1.906.338l-.205.044q-.015.007-.03.01l-.03.01c-.38.1-.731.242-1.081.443l-.04.02-.04.05q-.025.027-.04.05c-.12.142-.23.263-.4.353-.252.126-.469.321-.683.513q-.137.126-.278.242c-.02.02-.06.03-.09.03-.31.302-.62.604-.94.896-.02.02-.11.03-.181.02 0 0 .01 0 .01-.01l.03-.06.15-.242q.045-.067.085-.136l.085-.136c.08-.12.16-.241.25-.352.02-.03.02-.06 0-.08a.1.1 0 0 0-.08-.03c.29-.282.63-.524.981-.735v-.01c-.04.01-.1-.02-.07-.06a1 1 0 0 0 .076-.12l.024-.042.01-.025.01-.025a.1.1 0 0 0-.02-.025q-.012-.01-.02-.026l-.06.04a2 2 0 0 0-.21.152c-.044.038-.085.09-.128.144-.092.116-.189.238-.332.238-.01 0-.06 0-.09-.01-.03 0-.05-.01-.06-.02v-.009l.01-.001s.01-.01.01-.02c0 0 0-.01.01-.01l.014-.025.015-.026.015-.025q.008-.01.016-.025.006-.008.01-.02l.01-.02.01-.02c.01-.019.023-.04.03-.06l.015-.026.015-.025q.022-.031.04-.065l.04-.066a.2.2 0 0 1 .04-.06l.03-.056.03-.055c.03-.05 0-.09-.04-.1.11-.142.24-.262.4-.353h-.02c.138-.07.28-.15.421-.231q.126-.073.25-.141c.03-.03.06-.06.1-.08-.33.11-.631.26-.921.462 0 0-.08.03-.1.05 0 0-.06.02-.14-.05-.01-.01-.01-.02-.01-.04.034-.07.106-.116.184-.166.056-.037.115-.075.166-.126.06 0 .11 0 .11.06 1.152-.903 2.573-1.112 4-1.322.876-.129 1.755-.258 2.574-.55q.129-.09.26-.176.133-.086.26-.176c.147-.06.277-.165.416-.275.137-.109.281-.224.455-.309.46-.352.81-.755.99-1.348 0-.06-.06-.121-.06-.121a9.2 9.2 0 0 1-2.56 1.932c-.888.469-1.84.538-2.78.607a17 17 0 0 0-1.053.098c.06-.12.18-.12.29-.12 0-.144.068-.205.156-.284q.036-.031.074-.07h.17c.03 0 .045-.03.06-.06s.03-.06.06-.06c.12 0 .29-.06.23-.06-.091-.118-.225-.072-.372-.02-.142.05-.296.104-.438.02a.4.4 0 0 0 .083-.192c.016-.068.03-.13.087-.16h.23c0-.121.12-.232.12-.232.522-.314 1.026-.588 1.52-.857.33-.18.657-.357.982-.542-.066 0-.124.027-.18.053-.09.042-.176.081-.28.007.06 0 .06-.042.06-.085s0-.086.06-.086c.375-.1.71-.263 1.05-.429.241-.117.486-.236.75-.336a.8.8 0 0 0-.222.042c-.136.04-.266.078-.418-.042q.058-.031.104-.07c.064-.051.126-.1.246-.1v-.172c0-.06.06-.06.12-.06-.06 0-.12-.06-.12-.06.032-.065.095-.078.165-.093a.36.36 0 0 0 .186-.079c-.06 0-.17 0-.17-.06.17-.232.46-.292.75-.352-.03-.06-.087-.06-.137-.06s-.093 0-.093-.061c0-.06.06-.06.12-.06h-.12c-.094-.048-.077-.133-.066-.191l.006-.041c.235-.277.312-.604.39-.929a4 4 0 0 1 .13-.47c-.06 0-.12 0-.12-.06-.562.624-1.454.86-2.301 1.085l-.08.022h-.29c-.29.12-.701.12-.991-.06a1.6 1.6 0 0 1-.343-.261 3 3 0 0 0-.238-.203 7.2 7.2 0 0 0-1.45-.704c-1.452-.463-2.963-.705-4.474-.645.422-.232.87-.324 1.325-.417a9 9 0 0 0 .707-.166l.442-.134c.83-.255 1.635-.501 2.52-.45-.116-.041-.264-.026-.4-.013q-.098.012-.18.013c-.67-.05-1.345.1-2.05.255q-.224.05-.452.097a8 8 0 0 0-.802.223 8 8 0 0 1-.89.24c-.134.046-.241.125-.346.202-.17.124-.331.242-.584.21v-.18c.58-.705 1.28-1.4 2.212-1.46.899-.146 1.747-.042 2.632.067q.223.028.45.054c.725.058 1.404.22 2.135.395l.076.018c.16 0 .25.14.337.277.071.111.14.22.243.246.143.05.285.058.428.068.207.013.415.026.623.164q-.002-.06-.014-.12c-.013-.077-.026-.152.014-.233.13-.13.277-.095.423-.06.114.026.226.053.328 0 .317-.197.02-.5-.279-.802-.143-.146-.287-.292-.362-.426 0-.06.06-.12.06-.12.132.117.254.239.375.36.304.302.601.598 1.016.807.29.12.99.292.87-.06-.205-.457-.556-.852-.91-1.252-.146-.164-.293-.33-.43-.5v-.231c-.091 0-.113-.035-.14-.078l-.03-.043v-.232c-.147-.077-.18-.199-.213-.321a.7.7 0 0 0-.078-.202c-.1-.162-.107-.362-.114-.569-.006-.164-.012-.332-.066-.488-.12-.352-.17-.644-.23-.996-.065-.36-.137-.705-.207-1.043a20 20 0 0 1-.313-1.765c-.093-.854.338-1.577.78-2.315.13-.219.262-.439.38-.665.41-.704.871-1.399 1.632-1.872.166-.687.617-1.259 1.066-1.828l.035-.044c.443-.552 1.183-.89 1.729-1.139l.062-.028a15 15 0 0 1 1.55-.594H17v30.99h28.519c.763-.553 1.52-.902 2.423-1.317.412-.19.853-.393 1.34-.636.102-.052.225-.112.36-.179.815-.4 2.112-1.039 2.601-1.522m-9.049-4.18c-.113.01-.233.023-.188-.068.042-.204.25-.265.455-.325.087-.025.173-.05.245-.087l.033-.017.024-.012c.113-.06.25-.134.353-.091.069.098.154.123.237.148a.4.4 0 0 1 .173.083c-.217.217-.469.238-.725.26-.17.014-.341.029-.505.1q-.046.001-.102.008m-8.853-1.416c0 .06.06.12.06.12 1.4-1.58 2.672-2.928 4.473-4.045.048-.02.03.005.006.038-.035.05-.084.118.054.082.596-.136.864-.647 1.125-1.144.067-.128.134-.256.206-.375.273-.445.661-.73 1.052-1.017.282-.206.566-.415.81-.684 0 .06 0 .12-.06.18.06.061.12.061.18.061a1 1 0 0 1 .33-.144c.141-.04.274-.078.37-.208-.46-.181-1.051-.242-1.511-.06-1.221.583-2.262 1.52-3.252 2.576-.6.634-1.221 1.228-1.982 1.64a18 18 0 0 1-1.861 2.98m4.885-3.743a.5.5 0 0 1-.092.127.4.4 0 0 0-.078.103c-.06.12-.12.17-.23.231-.06 0-.12 0-.12-.06.06-.23.23-.462.46-.522.06.01.06.07.06.12m2.56 8.938c.05-.05.109-.11.139-.171.05-.121-.26-.09-.31-.06a.7.7 0 0 0-.109.116l-.01.014q-.066.071-.14.138-.053.045-.1.094c-.14.14-.28.281-.43.412-.1.09.22.131.29.07.08-.06.15-.13.22-.2.026 0 .053-.005.07-.008l.013-.002h.006c.166-.056.29-.172.41-.284l.03-.029c.04-.04-.01-.08-.08-.09m-.906-.655-.002.001-.001.01q-.092.062-.183.127c-.156.11-.312.22-.478.315-.159.09-.321.167-.486.245q-.142.066-.284.138s0-.01-.01-.01c-.02-.03-.06-.04-.1-.02-.22.12-.41.281-.58.452-.03.02-.06.05-.08.08l-.09.091v.01c-.04.04-.081.08-.131.141l-.026.031a.15.15 0 0 1-.054.05c-.04.02-.14.02-.13-.04v-.01c-.03.02-.07.04-.1.05l-.045.025q-.023.011-.045.025c-.01-.01-.03-.01-.04-.01s-.03 0-.04.01l-.07.058a4 4 0 0 0-.48.485s0 .01-.01.01q0 .008-.006.01-.004.004-.005.01l-.02.02-.008.012q-.003.009-.012.01l-.01.01a.2.2 0 0 1-.04.06c-.01.01-.03.02-.05.02-.01-.01-.02-.02-.02-.03l-.01-.016q-.003-.008-.01-.015-.014-.023-.025-.045l-.025-.045v-.01l-.005-.016-.005-.015.18-.211.01-.01.03-.035q.015-.02.03-.035.023-.03.05-.06.027-.031.05-.061l.015-.025q.008-.01.015-.026c.06-.08.12-.16.18-.251v-.01c.01-.01.02-.02.02-.04.03-.04.06-.081.08-.121l.06-.121v-.01l.01-.01q0-.007.006-.01.004-.003.005-.01l.03-.07.03-.071v-.01l.01-.04.01-.03q.003-.015.01-.031v-.01l.01-.045.01-.046c0-.01 0-.03-.01-.04.06-.11.14-.211.23-.312l-.015.005-.009.004-.006.001a1 1 0 0 0-.122.104q-.046.046-.098.087c-.06.05-.18-.03-.1-.09.05-.04.09-.08.13-.12 0 0 0-.011.01-.011q.06-.055.117-.118c.058-.062.117-.125.183-.174.07-.05.12-.09.18-.14.01-.01.02-.02.03-.02.04-.051.08-.102.13-.152 0 0 .01 0 .01-.01.344-.333.827-.45 1.32-.57.31-.077.625-.153.912-.286.161-.067.342-.04.52-.014.142.02.282.041.41.014.17 0 .35 0 .52.121-.395.211-.773.452-1.146.69q-.163.105-.324.206zm1.25-4.102c-.046.005-.076.009-.05.035.17.171.52.11.76-.02.17-.12.35-.12.58-.12.06 0 .06-.111.06-.172.17.06.29.06.46.06 1.392-.291 2.733-.583 4.014-1.227-1.297-1.002-2.894-1.448-4.46-1.885q-.39-.107-.774-.219a.6.6 0 0 1 .17.038c.114.038.23.077.35-.038-.158-.127-.335-.15-.51-.175-.145-.02-.289-.04-.42-.117q.021 0 .047.007c.06.011.137.026.183-.067-.304-.153-.608-.205-.915-.257-.158-.027-.316-.054-.476-.096.29-.06.47-.291.47-.583 0-.06-.12-.06-.18-.06-.69.352-1.16.996-1.45 1.75.26.155.543.137.82.12.156-.01.311-.02.46.001-.131.125-.32.159-.503.191q-.103.018-.197.04c-.18.041-.35.172-.29.293.04.05.08.07.13.08a.8.8 0 0 0-.36.212c.164.13.334.104.502.08.066-.01.132-.02.198-.02 0 .073.048.098.098.124a.3.3 0 0 1 .072.047c-.29.11-.52.352-.58.524-.072.174-.205.287-.336.4-.088.075-.176.15-.245.244v.18c-.193.172-.392.325-.588.476-.402.31-.794.611-1.103 1.045.06 0 .06.06.06.12a.8.8 0 0 1-.209.197c-.087.064-.169.124-.201.216 0 .06 0 .12.06.12.367-.12.685-.325.996-.525.283-.182.56-.36.865-.47.249-.06.466-.173.677-.284.18-.093.355-.184.544-.24.145-.03.305-.073.465-.116.16-.042.32-.085.465-.115 0 .06 0 .12.06.12h.46c-.028.069-.117.08-.178.086" clip-rule="evenodd"/><path fill="#E1000F" d="M102.25 44H68.916s.06.01.313.141c.272.141.624.333.836.444.433.221.846.503 1.118.937.121.171.293.524.182.756-.121.292-.181.766-.474.876-.352.182-.816.182-1.23.121-.23 0-.463-.06-.704-.12.876.352 1.703.765 2.287 1.582.06.12.292.171.524.171.06 0 .06.12.06.171-.12.121-.231.182-.17.353h.17c.293-.12.232-.705.645-.524.293.171.413.584.232.877a5.3 5.3 0 0 1-.705.584.5.5 0 0 0 0 .413c.171.232.231.464.292.706.181.413.232.877.413 1.29.232.877.464 1.754.413 2.64 0 .464-.231.877-.06 1.35.12.464.413.817.645 1.23.231.353.463.585.645.938.352.584.997 1.169.705 1.874-.171.413-.816.353-1.23.585-.352.292-.06.766.122 1.058.292.524-.353.877-.766 1.058.12.181.352.121.413.232.06.292.353.463.171.766-.232.353-.937.524-.584 1.058.231.413.08.867-.06 1.29-.172.524-.646.756-1.059.877-.353.12-.766.12-1.108.06-.121-.06-.232-.12-.353-.12-.998-.122-1.995-.404-2.983-.404-.292.06-.584.111-.816.232a4.7 4.7 0 0 0-.705.625l-.01.01c-.04.05-.091.09-.131.141-.02.03-.05.06-.07.09-.021.02-.031.041-.051.061a6 6 0 0 0-.464.675.1.1 0 0 1-.03.04c-.01.03-.03.051-.05.081a6 6 0 0 0-.444 1.079c-.403 1.34-.221 2.489.06 2.771.081.08 1.936.655 3.225 1.23.605.272 1.028.473 1.38.695h32.73V44z"/><path fill="gray" d="M70.896 55.302c.231.06.583.06.583.18-.12.464-.814.584-1.166 1.058h-.18c-.171.12-.121.412-.292.412-.17-.06-.352 0-.522.06.23.232.522.413.874.353.06 0 .17.12.17.231 0 0 .061 0 .121-.06.06 0 .12 0 .12.06v.232c-.17.231-.472.12-.703.171.473.12.935.12 1.347 0 .352-.12 0-.705.231-.996-.12 0 0-.182-.12-.182.12-.12.23-.291.352-.352.12 0 .29-.06.351-.181 0-.12-.23-.171-.18-.292.351-.231.642-.584.522-.936-.06-.181-.523-.181-.814-.292-.292-.11-.643 0-.995.06-.292 0-.583.182-.874.232-.413.12-.764.352-1.106.584.412-.171.814-.232 1.286-.352.352.01.644-.07.995.01"/></svg>