<svg xmlns="http://www.w3.org/2000/svg" width="80" height="80" fill="none"><path fill="#fff" d="M.5 10.667C.5 5.052 5.052.5 10.667.5h58.666C74.948.5 79.5 5.052 79.5 10.667v58.666c0 5.615-4.552 10.167-10.167 10.167H10.667C5.052 79.5.5 74.948.5 69.333z"/><path stroke="#DDD" d="M.5 10.667C.5 5.052 5.052.5 10.667.5h58.666C74.948.5 79.5 5.052 79.5 10.667v58.666c0 5.615-4.552 10.167-10.167 10.167H10.667C5.052 79.5.5 74.948.5 69.333z"/><path fill="#000091" d="M29.686 47.502c.006 0 .013-.01.013-.01a.8.8 0 0 0 .158-.152c-.007 0-.014 0-.02-.01a3 3 0 0 0-.151.172M37.286 44.942l-.12.103c.069-.017.12-.035.12-.103"/><path fill="#000091" fill-rule="evenodd" d="M34.829 47.558q.33-.335.66-.698h-.006c.413-.47.814-.92 1.294-1.329q.22-.201.42-.342c.02-.02.03-.05.04-.078.01-.03.02-.06.04-.076-.095.036-.17.093-.247.15-.079.06-.158.12-.26.158-.04 0-.08-.04-.04-.08q.212-.153.414-.316h-.027c-.04 0-.04-.04-.04-.08-.497-.08-.878.26-1.22.565l-.02.019c-.054.026-.104 0-.144-.021a.1.1 0 0 0-.05-.02c-.302.102-.563.288-.825.476-.242.173-.485.348-.763.457v-.08a3 3 0 0 0-.281.117c-.138.063-.276.126-.42.158-.26.06-.503.052-.737.045q-.116-.005-.23-.005c-.427.042-.849.134-1.27.225l-.137.03-.02.007-.02.006a3 3 0 0 0-.72.296l-.027.013-.027.033q-.016.018-.027.034a.9.9 0 0 1-.267.235 2.2 2.2 0 0 0-.454.342q-.093.084-.186.161c-.014.014-.04.02-.06.02q-.309.305-.627.597c-.014.014-.074.02-.12.014 0 0 .006 0 .006-.007l.02-.04.1-.161.057-.09q.027-.046.057-.091.078-.122.167-.235.02-.032 0-.054a.08.08 0 0 0-.054-.02c.194-.188.42-.349.654-.49v-.007c-.027.007-.067-.013-.047-.04a1 1 0 0 0 .05-.08l.017-.027.007-.017.006-.017-.013-.017-.013-.016-.04.026q-.077.047-.14.101a1 1 0 0 0-.086.096c-.06.077-.125.16-.221.16-.007 0-.04 0-.06-.008q-.03-.001-.04-.013v-.006h.006s.007-.007.007-.014c0 0 0-.007.007-.007l.01-.017.01-.016.01-.017.01-.017.006-.013.007-.014.008-.014a.2.2 0 0 0 .019-.04l.01-.016.01-.017q.015-.02.026-.044l.027-.043a.1.1 0 0 1 .027-.04q.01-.02.02-.037l.02-.037c.02-.034 0-.06-.027-.067a.9.9 0 0 1 .267-.235h-.013q.138-.071.28-.155.084-.048.167-.093.029-.032.066-.054c-.22.074-.42.174-.614.309 0 0-.053.02-.066.033 0 0-.04.014-.094-.033q-.008-.009-.006-.027c.023-.047.07-.078.122-.111.038-.024.078-.05.111-.084.04 0 .074 0 .074.04.768-.602 1.715-.742 2.666-.881.584-.086 1.17-.172 1.717-.367q.085-.06.173-.117t.173-.117c.098-.041.185-.11.277-.184.091-.072.188-.149.304-.206.307-.235.54-.503.66-.899 0-.04-.04-.08-.04-.08a6.1 6.1 0 0 1-1.708 1.288c-.591.312-1.225.358-1.853.404-.235.017-.47.034-.702.066.04-.08.12-.08.194-.08 0-.096.046-.137.104-.19l.05-.046h.113c.02 0 .03-.02.04-.04s.02-.04.04-.04c.08 0 .193-.04.153-.04-.061-.08-.15-.048-.248-.014-.094.033-.197.07-.292.014.035-.04.046-.086.055-.128.01-.046.02-.086.058-.107h.154c0-.08.08-.155.08-.155.348-.209.684-.392 1.013-.57q.33-.179.654-.362a.3.3 0 0 0-.12.035c-.06.028-.117.054-.186.005.04 0 .04-.029.04-.057 0-.029 0-.057.04-.057.25-.067.473-.175.7-.286.16-.078.324-.158.5-.224-.052 0-.1.014-.148.028-.09.026-.178.051-.279-.028a.4.4 0 0 0 .07-.047c.042-.034.084-.067.164-.067v-.114c0-.04.04-.04.08-.04-.04 0-.08-.04-.08-.04.021-.043.063-.052.11-.062a.24.24 0 0 0 .123-.053c-.04 0-.113 0-.113-.04.114-.154.307-.195.5-.235-.02-.04-.058-.04-.091-.04-.034 0-.062 0-.062-.04s.04-.04.08-.04h-.08c-.063-.032-.052-.089-.044-.128q.004-.016.004-.027c.157-.185.208-.403.26-.62a3 3 0 0 1 .087-.313c-.04 0-.08 0-.08-.04-.375.416-.97.574-1.535.724l-.053.014h-.193a.76.76 0 0 1-.66-.04c-.093-.048-.158-.109-.23-.174a2 2 0 0 0-.158-.135 4.8 4.8 0 0 0-.967-.47 8.7 8.7 0 0 0-2.982-.429c.281-.155.58-.216.883-.279.156-.032.314-.064.471-.11l.295-.09c.553-.169 1.09-.333 1.68-.3-.077-.027-.176-.017-.267-.008a1 1 0 0 1-.12.009c-.446-.033-.896.066-1.366.17l-.302.065c-.184.038-.359.093-.534.148-.193.06-.387.121-.593.16a.9.9 0 0 0-.232.135c-.112.082-.22.161-.389.14v-.12c.387-.47.854-.933 1.475-.973.6-.098 1.165-.029 1.755.044l.3.036c.483.039.935.147 1.423.263l.05.012c.107 0 .167.094.226.185.047.074.093.146.162.164.095.033.19.039.285.045.138.009.276.018.415.11a1 1 0 0 0-.009-.08c-.009-.052-.018-.102.009-.155.086-.087.185-.064.282-.04.076.017.151.035.218 0 .212-.132.014-.334-.185-.535a1.6 1.6 0 0 1-.242-.284c0-.04.04-.08.04-.08q.131.118.25.24c.203.201.401.398.678.538.193.08.66.194.58-.04-.137-.305-.371-.569-.607-.835q-.148-.164-.287-.333v-.154c-.06 0-.075-.024-.093-.053l-.02-.028v-.154c-.098-.052-.12-.133-.142-.215a.5.5 0 0 0-.052-.134c-.066-.109-.071-.242-.076-.38-.004-.109-.008-.22-.044-.325a4 4 0 0 1-.153-.664q-.067-.359-.138-.695c-.083-.397-.162-.779-.21-1.177-.06-.57.227-1.051.52-1.543q.133-.218.255-.443c.273-.47.58-.933 1.087-1.248.11-.459.412-.84.711-1.22l.023-.028c.296-.369.79-.594 1.153-.76l.041-.019a10 10 0 0 1 1.034-.396H11.333v20.66h19.013c.508-.368 1.014-.601 1.615-.878a30 30 0 0 0 1.134-.543c.543-.267 1.408-.693 1.734-1.015m-6.033-2.788c-.075.008-.155.016-.125-.045.028-.136.167-.176.303-.216a1 1 0 0 0 .163-.058l.022-.011.016-.009c.075-.04.168-.089.236-.06.045.065.102.082.157.098.041.012.082.024.116.056-.144.144-.313.159-.483.173-.114.01-.228.02-.337.067zm-5.902-.943c0 .04.04.08.04.08.934-1.053 1.781-1.952 2.982-2.697.032-.014.02.003.004.025-.023.034-.056.08.036.055.398-.09.576-.43.75-.762q.067-.13.137-.251c.182-.296.441-.486.702-.677.188-.138.377-.277.54-.457 0 .04 0 .08-.04.12.04.041.08.041.12.041a.6.6 0 0 1 .22-.096c.094-.027.183-.052.246-.139-.307-.12-.7-.16-1.007-.04-.814.39-1.508 1.013-2.168 1.718-.4.422-.814.818-1.321 1.093a12 12 0 0 1-1.241 1.987m3.257-2.496a.3.3 0 0 1-.062.085c-.018.019-.036.037-.051.069a.3.3 0 0 1-.154.154c-.04 0-.08 0-.08-.04.04-.154.154-.308.307-.348.04.007.04.047.04.08m1.706 5.959a.5.5 0 0 0 .093-.114c.033-.08-.173-.06-.207-.04a.4.4 0 0 0-.072.078l-.008.009q-.042.047-.093.092-.034.03-.067.062a6 6 0 0 1-.286.275c-.067.06.146.087.193.047q.078-.062.147-.134.028-.001.047-.005l.008-.001h.005c.11-.038.192-.115.273-.19l.02-.019c.027-.026-.007-.053-.053-.06m-.603-.436h-.002v.006l-.123.085a4 4 0 0 1-.318.21 5 5 0 0 1-.324.163q-.095.044-.19.092s0-.006-.007-.006c-.013-.02-.04-.027-.066-.014-.147.08-.274.188-.387.302a.2.2 0 0 0-.054.054l-.06.06v.007c-.026.027-.053.054-.086.094l-.018.02a.1.1 0 0 1-.036.034c-.026.013-.093.013-.086-.027v-.007a.3.3 0 0 1-.067.034l-.03.016q-.015.007-.03.017c-.007-.007-.02-.007-.027-.007s-.02 0-.026.007l-.047.039q-.046.036-.094.082-.118.11-.226.241s0 .007-.007.007q0 .005-.004.007-.002.002-.003.007l-.013.013-.006.007q-.002.006-.008.006l-.006.007a.1.1 0 0 1-.027.04.05.05 0 0 1-.033.014q-.012-.01-.014-.02l-.006-.01q-.002-.006-.007-.01l-.017-.03-.016-.03v-.008l-.004-.01q-.002-.004-.003-.01l.12-.14.007-.007.02-.024.02-.023q.016-.02.033-.04l.034-.04q.004-.01.01-.018l.01-.016q.06-.08.12-.168v-.007c.006-.007.013-.013.013-.027q.032-.04.053-.08l.04-.08v-.007l.007-.007q0-.005.003-.007t.004-.007l.02-.046.02-.047v-.007l.007-.027.006-.02q.002-.01.007-.02v-.007l.007-.03.006-.03c0-.007 0-.02-.006-.027q.062-.11.153-.208l-.01.003-.006.003h-.004a.5.5 0 0 0-.081.07 1 1 0 0 1-.066.058c-.04.034-.12-.02-.067-.06.034-.027.06-.054.087-.08 0 0 0-.008.007-.008q.039-.037.078-.078c.038-.042.078-.084.122-.116.047-.034.08-.06.12-.094q.01-.012.02-.014c.027-.033.053-.067.087-.1 0 0 .006 0 .006-.007.23-.222.551-.3.88-.38.207-.05.417-.102.608-.19.108-.045.228-.028.347-.01.094.014.188.028.274.01.113 0 .233 0 .346.08-.263.14-.515.301-.764.46l-.216.137zm.833-2.735c-.031.003-.051.006-.034.023.113.114.347.074.507-.013.114-.08.234-.08.387-.08.04 0 .04-.075.04-.115.113.04.194.04.307.04.927-.194 1.821-.389 2.675-.818-.864-.668-1.93-.965-2.972-1.256q-.26-.073-.517-.147c.038 0 .075.013.113.026.076.025.154.05.234-.026-.106-.084-.224-.1-.34-.116-.097-.013-.193-.026-.28-.078q.014 0 .031.004c.04.008.091.018.122-.044-.203-.102-.405-.137-.61-.172-.105-.018-.21-.036-.317-.063a.38.38 0 0 0 .313-.39c0-.04-.08-.04-.12-.04-.46.235-.774.665-.967 1.168.174.102.362.09.547.079.104-.007.208-.013.307.001-.088.083-.214.106-.336.128q-.069.011-.131.027c-.12.026-.234.114-.194.194a.14.14 0 0 0 .087.054.56.56 0 0 0-.24.14c.11.087.223.07.335.054q.066-.011.132-.013c0 .049.032.065.065.083q.027.012.048.031c-.193.074-.347.235-.387.35-.047.115-.136.19-.223.266-.06.05-.118.1-.164.163v.12a7 7 0 0 1-.392.317c-.268.207-.529.408-.735.697.04 0 .04.04.04.08a.5.5 0 0 1-.14.13c-.057.044-.112.084-.133.145 0 .04 0 .08.04.08.244-.08.456-.217.664-.35.188-.121.373-.24.576-.314.166-.04.31-.115.452-.188.12-.063.237-.124.362-.16a6 6 0 0 0 .31-.078c.107-.028.214-.057.31-.077 0 .04 0 .08.04.08h.307c-.018.046-.078.053-.119.058" clip-rule="evenodd"/><path fill="#E1000F" d="M68.167 29.333H45.944s.04.007.208.094c.182.095.417.222.558.296.289.148.564.336.746.625.08.114.194.35.12.504-.08.195-.12.51-.315.584-.235.121-.544.121-.82.08-.154 0-.309-.04-.47-.08.585.236 1.135.51 1.525 1.055.04.08.195.114.35.114.04 0 .04.081.04.115-.081.08-.155.12-.115.235h.115c.194-.08.154-.47.43-.35.194.115.275.39.154.585a3.5 3.5 0 0 1-.47.39.33.33 0 0 0 0 .275c.114.155.154.31.195.47.12.276.154.585.275.86.155.585.31 1.17.276 1.76 0 .31-.155.585-.04.9.08.31.275.545.43.82.154.236.308.39.43.626.234.39.664.779.47 1.25-.115.275-.545.234-.82.389-.235.195-.04.51.08.705.195.35-.235.585-.51.706.08.12.235.08.275.154.04.195.235.31.114.51-.154.236-.624.35-.39.706.155.276.055.578-.04.86-.114.35-.43.504-.705.585-.235.08-.51.08-.739.04-.08-.04-.154-.08-.235-.08-.665-.081-1.33-.27-1.988-.27-.195.041-.39.075-.545.155a3 3 0 0 0-.47.417l-.007.007c-.026.033-.06.06-.087.094-.013.02-.033.04-.047.06-.013.014-.02.027-.033.04a4 4 0 0 0-.31.45.1.1 0 0 1-.02.027c-.006.02-.02.034-.033.054a4 4 0 0 0-.296.72c-.268.893-.148 1.659.04 1.847.054.053 1.29.437 2.15.82.403.18.685.315.92.463h21.82V29.333z"/><path fill="gray" d="M47.264 36.868c.154.04.389.04.389.12-.08.31-.543.39-.777.705h-.121c-.114.08-.08.275-.194.275-.114-.04-.235 0-.349.04.154.155.349.275.583.235.04 0 .114.08.114.155 0 0 .04 0 .08-.04.04 0 .081 0 .081.04v.154c-.114.154-.315.08-.47.114.316.08.624.08.899 0 .234-.08 0-.47.154-.664-.08 0 0-.121-.08-.121.08-.08.154-.195.234-.235.08 0 .194-.04.234-.12 0-.081-.154-.115-.12-.195.234-.155.429-.39.348-.624-.04-.121-.348-.121-.542-.195s-.43 0-.664.04c-.194 0-.388.121-.583.155-.274.08-.509.234-.737.389.275-.114.543-.154.858-.235.234.007.429-.047.663.007"/></svg>