<svg xmlns="http://www.w3.org/2000/svg" width="50" height="50"><rect width="50" height="50" fill="#fff" rx="6.667"/><path fill="#1A51AF" d="m30.116 19.612-3.015-1.71c-.696-.405-.986-1.275-.58-1.971l3.015-5.188c.405-.695 1.304-.956 2-.55l3.014 1.71c.696.376.957 1.275.551 1.97l-2.986 5.189c-.405.695-1.304.956-2 .55m-10.32-8.84 7.682 13.159c.58.957.58 2.174.029 3.16L20 40.19c-.406.696-1.305.957-2 .552l-3.015-1.71a1.433 1.433 0 0 1-.55-1.972l4.81-8.318-9.738.058c-.811 0-1.478-.638-1.478-1.45L8 23.902c0-.783.637-1.45 1.45-1.45l9.738-.057-4.898-8.406a1.464 1.464 0 0 1 .521-2l2.986-1.739a1.464 1.464 0 0 1 2 .522m12.348 21.13a1.464 1.464 0 0 0-2-.522l-2.985 1.74a1.464 1.464 0 0 0-.522 2l3.015 5.159a1.464 1.464 0 0 0 2 .521l2.985-1.738a1.464 1.464 0 0 0 .522-2zm7.797-9.623-6 .029c-.782 0-1.449.667-1.449 1.478l.03 3.45c.028.81.666 1.449 1.478 1.449l6-.03c.811-.028 1.449-.666 1.449-1.478l-.03-3.449c-.028-.811-.666-1.45-1.478-1.45"/></svg>