<svg xmlns="http://www.w3.org/2000/svg" width="120" height="120"><path fill="#fff" d="M0 0h120v120H0z"/><path fill="#1A51AF" d="m73.565 45.418-7.585-4.303c-1.75-1.02-2.48-3.209-1.458-4.96l7.584-13.053c1.021-1.75 3.282-2.407 5.032-1.386l7.585 4.303c1.75.948 2.407 3.209 1.386 4.959l-7.512 13.054c-1.021 1.75-3.282 2.407-5.032 1.386M47.602 23.174l19.326 33.11c1.459 2.407 1.459 5.47.073 7.95L48.112 97.198c-1.02 1.75-3.281 2.407-5.032 1.386l-7.584-4.303c-1.75-.948-2.407-3.21-1.386-4.96l12.106-20.93-24.504.146c-2.042 0-3.72-1.605-3.72-3.647l-.072-8.678c0-1.97 1.604-3.647 3.646-3.647l24.505-.146-12.326-21.15c-1.02-1.75-.437-4.01 1.313-5.031l7.512-4.376c1.75-1.021 4.011-.438 5.032 1.312M78.67 76.34c-1.021-1.75-3.282-2.334-5.032-1.313l-7.512 4.376c-1.75 1.021-2.334 3.282-1.313 5.032l7.585 12.982c1.021 1.75 3.282 2.333 5.032 1.312l7.512-4.375c1.75-1.021 2.334-3.282 1.313-5.032zm19.618-24.213-15.096.073c-1.97 0-3.647 1.678-3.647 3.72l.073 8.678c.073 2.042 1.678 3.647 3.72 3.647l15.096-.073c2.042-.073 3.646-1.677 3.646-3.72l-.073-8.678c-.072-2.042-1.677-3.647-3.719-3.647"/></svg>