<svg width="194" height="48" viewBox="0 0 194 48" fill="none" xmlns="http://www.w3.org/2000/svg">
<g clip-path="url(#clip0_10363_26213)">
<path fill-rule="evenodd" clip-rule="evenodd" d="M7.20787 10.6246C5.55049 11.5815 4.53233 13.3526 4.53937 15.2663L4.60334 32.6471C4.6103 34.5398 5.61919 36.2872 7.25485 37.2396L22.275 45.9854C23.9289 46.9484 25.9717 46.9521 27.6291 45.9952L42.56 37.3749C44.2174 36.418 45.2355 34.647 45.2285 32.7332L45.1645 15.3524C45.1576 13.4597 44.1487 11.7123 42.513 10.7599L27.4928 2.01413C25.839 1.05115 23.7961 1.04739 22.1388 2.00428L7.20787 10.6246ZM12.0707 31.3975L12.0158 16.4766L24.8028 9.09402L37.6972 16.602L37.7521 31.5229L26.9713 37.7472L25.5664 42.1025C25.2482 43.0887 23.8528 43.0887 23.5346 42.1025L21.9341 37.1406L12.0707 31.3975Z" fill="url(#paint0_linear_10363_26213)"/>
<path fill-rule="evenodd" clip-rule="evenodd" d="M24.5982 18.1864L19.2299 21.2858L19.2529 27.5263L24.6458 30.6664L30.0141 27.567L29.9912 21.3265L24.5982 18.1864Z" fill="#E1000F"/>
<path d="M59.8279 21.9998V7.99975H63.3679L66.7879 13.8798L70.2079 7.99975H73.7479V21.9998H70.9079V11.9598L67.7879 17.1998H65.7879L62.6679 11.9598V21.9998H59.8279ZM81.9785 11.5198C85.2585 11.5198 87.4985 13.9398 87.4985 16.9598C87.4985 19.9798 85.2585 22.3998 81.9785 22.3998C78.6985 22.3998 76.4585 19.9798 76.4585 16.9598C76.4585 13.9398 78.6985 11.5198 81.9785 11.5198ZM82.0185 19.9998C83.6385 19.9998 84.8585 18.6998 84.8585 16.9598C84.8585 15.1998 83.6385 13.9198 82.0185 13.9198C80.3385 13.9198 79.0985 15.1998 79.0985 16.9598C79.0985 18.7198 80.3385 19.9998 82.0185 19.9998ZM89.8152 21.9998V11.9198H92.3552V12.7198C93.0552 12.0398 93.9952 11.5198 95.3352 11.5198C97.5152 11.5198 99.2552 13.0198 99.2552 15.9998V21.9998H96.6952V16.0998C96.6952 14.7598 95.9352 13.9198 94.6952 13.9198C93.4152 13.9198 92.7352 14.7798 92.3552 15.4198V21.9998H89.8152ZM108.07 21.9998V7.99975H110.91V21.9998H108.07ZM114.483 21.9998V11.9198H117.023V12.7198C117.723 12.0398 118.663 11.5198 120.003 11.5198C122.183 11.5198 123.923 13.0198 123.923 15.9998V21.9998H121.363V16.0998C121.363 14.7598 120.603 13.9198 119.363 13.9198C118.083 13.9198 117.403 14.7798 117.023 15.4198V21.9998H114.483ZM131.647 19.9998C132.647 19.9998 133.447 19.5398 133.927 18.8398L135.907 20.3598C134.967 21.5998 133.487 22.3998 131.647 22.3998C128.167 22.3998 126.087 19.8998 126.087 16.9598C126.087 14.0198 128.167 11.5198 131.647 11.5198C133.487 11.5198 134.967 12.3198 135.907 13.5598L133.927 15.0798C133.447 14.3798 132.647 13.9198 131.607 13.9198C129.947 13.9198 128.727 15.1998 128.727 16.9598C128.727 18.7398 129.947 19.9998 131.647 19.9998ZM137.804 21.9998V6.99975H140.344V21.9998H137.804ZM150.029 17.6398V11.9198H152.589V17.5198C152.589 20.5398 150.829 22.3998 147.869 22.3998C144.909 22.3998 143.169 20.5398 143.169 17.5198V11.9198H145.729V17.6398C145.729 19.0998 146.489 19.9998 147.889 19.9998C149.269 19.9998 150.029 19.0998 150.029 17.6398ZM154.443 20.5398L156.123 19.0198C156.743 19.7998 157.483 20.3598 158.443 20.3598C159.263 20.3598 159.683 19.8798 159.683 19.2798C159.683 17.5198 154.863 18.1798 154.863 14.6398C154.863 12.8598 156.363 11.5198 158.463 11.5198C160.003 11.5198 161.403 12.2598 162.123 13.2398L160.443 14.7198C159.923 14.0798 159.263 13.5598 158.483 13.5598C157.683 13.5598 157.303 13.9998 157.303 14.5198C157.303 16.2398 162.123 15.6398 162.123 19.1198C162.083 21.2398 160.383 22.3998 158.483 22.3998C156.683 22.3998 155.403 21.6798 154.443 20.5398ZM165.744 10.1598C164.844 10.1598 164.084 9.39975 164.084 8.49976C164.084 7.59976 164.844 6.83976 165.744 6.83976C166.644 6.83976 167.384 7.59976 167.384 8.49976C167.384 9.39975 166.644 10.1598 165.744 10.1598ZM164.464 21.9998V11.9198H167.004V21.9998H164.464ZM174.85 11.5198C178.13 11.5198 180.37 13.9398 180.37 16.9598C180.37 19.9798 178.13 22.3998 174.85 22.3998C171.57 22.3998 169.33 19.9798 169.33 16.9598C169.33 13.9398 171.57 11.5198 174.85 11.5198ZM174.89 19.9998C176.51 19.9998 177.73 18.6998 177.73 16.9598C177.73 15.1998 176.51 13.9198 174.89 13.9198C173.21 13.9198 171.97 15.1998 171.97 16.9598C171.97 18.7198 173.21 19.9998 174.89 19.9998ZM182.686 21.9998V11.9198H185.226V12.7198C185.926 12.0398 186.866 11.5198 188.206 11.5198C190.386 11.5198 192.126 13.0198 192.126 15.9998V21.9998H189.566V16.0998C189.566 14.7598 188.806 13.9198 187.566 13.9198C186.286 13.9198 185.606 14.7798 185.226 15.4198V21.9998H182.686ZM59.8279 43.9998V29.9998H63.4679L69.7279 40.1198V29.9998H72.5679V43.9998H68.9279L62.6679 33.8798V43.9998H59.8279ZM82.6466 39.6398V33.9198H85.2066V39.5198C85.2066 42.5398 83.4466 44.3998 80.4866 44.3998C77.5266 44.3998 75.7866 42.5398 75.7866 39.5198V33.9198H78.3466V39.6398C78.3466 41.0998 79.1066 41.9998 80.5066 41.9998C81.8866 41.9998 82.6466 41.0998 82.6466 39.6398ZM88.0184 43.9998V33.9198H90.5584V34.6798C91.2384 34.0198 92.0984 33.5198 93.3384 33.5198C94.6184 33.5198 95.7384 34.0798 96.3984 35.1598C97.1184 34.2798 98.0784 33.5198 99.7784 33.5198C101.858 33.5198 103.498 34.9598 103.498 37.7998V43.9998H100.938V37.8998C100.938 36.6798 100.278 35.9198 99.1384 35.9198C98.0384 35.9198 97.4384 36.6798 97.0384 37.3598C97.0584 37.4998 97.0584 37.6398 97.0584 37.7998V43.9998H94.4984V37.8998C94.4984 36.6798 93.8384 35.9198 92.6984 35.9198C91.5384 35.9198 90.9384 36.7798 90.5584 37.4198V43.9998H88.0184ZM112.257 32.3198H109.817L111.897 28.9998H114.657L112.257 32.3198ZM115.677 42.3598C114.737 43.6198 113.177 44.3998 111.277 44.3998C107.697 44.3998 105.677 41.8998 105.677 38.9598C105.677 35.9798 107.557 33.5198 110.857 33.5198C113.657 33.5198 115.497 35.4198 115.497 38.0598C115.497 38.6198 115.417 39.1398 115.337 39.4798H108.277C108.517 41.3598 109.677 42.1198 111.257 42.1198C112.357 42.1198 113.317 41.6398 113.857 40.9198L115.677 42.3598ZM110.797 35.5998C109.497 35.5998 108.637 36.3198 108.357 37.6398H112.997C112.957 36.6198 112.217 35.5998 110.797 35.5998ZM117.979 43.9998V33.9198H120.519V34.9198C121.179 34.2398 122.039 33.7198 123.179 33.7198C123.519 33.7198 123.819 33.7798 124.059 33.8598V36.3598C123.739 36.2798 123.399 36.2198 122.939 36.2198C121.699 36.2198 120.899 36.8998 120.519 37.5398V43.9998H117.979ZM127.384 32.1598C126.484 32.1598 125.724 31.3998 125.724 30.4998C125.724 29.5998 126.484 28.8398 127.384 28.8398C128.284 28.8398 129.024 29.5998 129.024 30.4998C129.024 31.3998 128.284 32.1598 127.384 32.1598ZM126.104 43.9998V33.9198H128.644V43.9998H126.104ZM130.97 38.9598C130.97 36.0198 132.89 33.5198 136.09 33.5198C137.45 33.5198 138.43 33.9598 139.21 34.7398V33.9198H141.77V48.9198H139.21V43.1798C138.43 43.9598 137.45 44.3998 136.09 44.3998C132.89 44.3998 130.97 41.8998 130.97 38.9598ZM133.61 38.9598C133.61 40.7198 134.71 41.9998 136.43 41.9998C137.61 41.9998 138.59 41.4798 139.21 40.5598V37.3598C138.53 36.4198 137.57 35.9198 136.43 35.9198C134.71 35.9198 133.61 37.1998 133.61 38.9598ZM151.455 39.6398V33.9198H154.015V39.5198C154.015 42.5398 152.255 44.3998 149.295 44.3998C146.335 44.3998 144.595 42.5398 144.595 39.5198V33.9198H147.155V39.6398C147.155 41.0998 147.915 41.9998 149.315 41.9998C150.695 41.9998 151.455 41.0998 151.455 39.6398ZM166.107 42.3598C165.167 43.6198 163.607 44.3998 161.707 44.3998C158.127 44.3998 156.107 41.8998 156.107 38.9598C156.107 35.9798 157.987 33.5198 161.287 33.5198C164.087 33.5198 165.927 35.4198 165.927 38.0598C165.927 38.6198 165.847 39.1398 165.767 39.4798H158.707C158.947 41.3598 160.107 42.1198 161.687 42.1198C162.787 42.1198 163.747 41.6398 164.287 40.9198L166.107 42.3598ZM161.227 35.5998C159.927 35.5998 159.067 36.3198 158.787 37.6398H163.427C163.387 36.6198 162.647 35.5998 161.227 35.5998Z" fill="#161616"/>
</g>
<defs>
<linearGradient id="paint0_linear_10363_26213" x1="16.5449" y1="45.8985" x2="37.5625" y2="6.38731" gradientUnits="userSpaceOnUse">
<stop stop-color="#0C008A"/>
<stop offset="0.51" stop-color="#5F5FE0"/>
<stop offset="1" stop-color="#F4849A"/>
</linearGradient>
<clipPath id="clip0_10363_26213">
<rect width="193.768" height="48" fill="white" transform="translate(0 -0.000244141)"/>
</clipPath>
</defs>
</svg>
