<svg xmlns="http://www.w3.org/2000/svg" width="80" height="80" fill="none"><path fill="#fff" d="M.75 4.74A3.99 3.99 0 0 1 4.74.75h70.52a3.99 3.99 0 0 1 3.99 3.99v70.52a3.99 3.99 0 0 1-3.99 3.99H4.74a3.99 3.99 0 0 1-3.99-3.99z"/><path stroke="#DDD" stroke-width="1.5" d="M.75 4.74A3.99 3.99 0 0 1 4.74.75h70.52a3.99 3.99 0 0 1 3.99 3.99v70.52a3.99 3.99 0 0 1-3.99 3.99H4.74a3.99 3.99 0 0 1-3.99-3.99z"/><path fill="#1A51AF" fill-rule="evenodd" d="m49.043 30.279-5.056-2.869c-1.167-.68-1.653-2.14-.973-3.306l5.057-8.703c.68-1.167 2.188-1.604 3.355-.924l5.056 2.869a2.403 2.403 0 0 1 .924 3.306l-5.008 8.703c-.68 1.167-2.188 1.604-3.355.924m-17.308-14.83 12.884 22.074c.972 1.604.972 3.646.048 5.3L32.075 64.798c-.68 1.166-2.188 1.604-3.355.923l-5.056-2.868a2.403 2.403 0 0 1-.924-3.306l8.07-13.954-16.335.097c-1.362 0-2.48-1.07-2.48-2.43l-.049-5.787a2.44 2.44 0 0 1 2.431-2.43l16.337-.098-8.217-14.1a2.456 2.456 0 0 1 .875-3.354l5.008-2.918a2.455 2.455 0 0 1 3.355.876m20.712 35.444a2.456 2.456 0 0 0-3.355-.875l-5.008 2.917a2.456 2.456 0 0 0-.875 3.355l5.056 8.655a2.456 2.456 0 0 0 3.355.875l5.008-2.918a2.455 2.455 0 0 0 .875-3.354zm13.078-16.141-10.064.048c-1.313 0-2.43 1.119-2.43 2.48l.048 5.786c.048 1.36 1.118 2.43 2.48 2.43l10.064-.048c1.36-.049 2.43-1.118 2.43-2.48l-.048-5.785c-.049-1.362-1.118-2.431-2.48-2.431" clip-rule="evenodd"/></svg>