<svg width="96" height="96" viewBox="0 0 96 96" fill="none" xmlns="http://www.w3.org/2000/svg">
<path d="M0 14.4C0 6.4471 6.4471 0 14.4 0H81.6C89.5529 0 96 6.4471 96 14.4V81.6C96 89.5529 89.5529 96 81.6 96H14.4C6.4471 96 0 89.5529 0 81.6V14.4Z" fill="#F5F5FE"/>
<mask id="mask0_10724_38948" style="mask-type:luminance" maskUnits="userSpaceOnUse" x="23" y="24" width="50" height="51">
<path d="M73.0005 24.0005H23V74.001H73.0005V24.0005Z" fill="white"/>
</mask>
<g mask="url(#mask0_10724_38948)">
<path d="M23.8926 30.2504C23.8926 28.5861 23.8926 27.7541 24.1643 27.0978C24.5268 26.2226 25.2221 25.5273 26.0974 25.1648C26.7536 24.8931 27.5856 24.8931 29.2496 24.8931C34.2419 24.8931 36.7382 24.8931 38.7072 25.7086C41.3325 26.7961 43.4183 28.8819 44.5058 31.5071C45.3213 33.4762 45.3213 35.9724 45.3213 40.9647C45.3213 42.6287 45.3213 43.4608 45.0495 44.117C44.687 44.9923 43.9915 45.6875 43.1165 46.05C42.4603 46.3218 41.6283 46.3218 39.964 46.3218C34.9719 46.3218 32.4757 46.3218 30.5066 45.5063C27.8814 44.419 25.7956 42.333 24.7081 39.7077C23.8926 37.7387 23.8926 35.2424 23.8926 30.2504Z" fill="#000091"/>
<path d="M56.035 46.3218C54.3708 46.3218 53.539 46.3218 52.8825 46.05C52.0075 45.6875 51.312 44.9923 50.9495 44.117C50.6777 43.4608 50.6777 42.6287 50.6777 40.9647C50.6777 35.9724 50.6777 33.4762 51.4932 31.5071C52.5807 28.8819 54.6665 26.7961 57.292 25.7086C59.2608 24.8931 61.7571 24.8931 66.7494 24.8931C68.4134 24.8931 69.2454 24.8931 69.9019 25.1648C70.7769 25.5273 71.4722 26.2226 71.8347 27.0978C72.1067 27.7541 72.1067 28.5861 72.1067 30.2504C72.1067 35.2427 72.1067 37.7387 71.2909 39.7077C70.2034 42.333 68.1179 44.419 65.4924 45.5063C63.5234 46.3218 61.0271 46.3218 56.035 46.3218Z" fill="#000091"/>
<path d="M39.964 51.6792C41.6283 51.6792 42.4603 51.6792 43.1165 51.9512C43.9915 52.3137 44.687 53.009 45.0495 53.884C45.3213 54.5402 45.3213 55.3725 45.3213 57.0365C45.3213 62.0288 45.3213 64.5248 44.5058 66.4938C43.4183 69.1191 41.3325 71.2051 38.7072 72.2924C36.7382 73.1079 34.2419 73.1079 29.2496 73.1079C27.5856 73.1079 26.7536 73.1079 26.0974 72.8362C25.2221 72.4737 24.5268 71.7784 24.1643 70.9034C23.8926 70.2471 23.8926 69.4149 23.8926 67.7509C23.8926 62.7586 23.8926 60.2625 24.7081 58.2933C25.7956 55.6682 27.8814 53.5822 30.5066 52.495C32.4757 51.6792 34.9719 51.6792 39.964 51.6792Z" fill="#000091"/>
<path d="M72.1067 67.7509C72.1067 69.4149 72.1067 70.2471 71.8347 70.9034C71.4722 71.7784 70.7769 72.4737 69.9019 72.8362C69.2454 73.1079 68.4134 73.1079 66.7494 73.1079C61.7571 73.1079 59.2608 73.1079 57.292 72.2924C54.6665 71.2051 52.5807 69.1191 51.4932 66.4938C50.6777 64.5248 50.6777 62.0288 50.6777 57.0365C50.6777 55.3725 50.6777 54.5402 50.9495 53.884C51.312 53.009 52.0075 52.3137 52.8825 51.9512C53.539 51.6792 54.3708 51.6792 56.035 51.6792C61.0273 51.6792 63.5234 51.6792 65.4924 52.495C68.1179 53.5822 70.2034 55.6682 71.2909 58.2933C72.1067 60.2625 72.1067 62.7586 72.1067 67.7509Z" fill="#000091"/>
</g>
</svg>
