<svg width="96" height="96" viewBox="0 0 96 96" fill="none" xmlns="http://www.w3.org/2000/svg">
<path d="M0 14.4C0 6.4471 6.4471 0 14.4 0H81.6C89.5529 0 96 6.4471 96 14.4V81.6C96 89.5529 89.5529 96 81.6 96H14.4C6.4471 96 0 89.5529 0 81.6V14.4Z" fill="#F5F5FE"/>
<path fill-rule="evenodd" clip-rule="evenodd" d="M26.4737 31.9505C24.4849 33.0988 23.2631 35.224 23.2715 37.5205L23.3483 58.3774C23.3566 60.6487 24.5673 62.7456 26.5301 63.8885L44.5543 74.3834C46.5389 75.539 48.9903 75.5435 50.9792 74.3952L68.8963 64.0508C70.8851 62.9025 72.1069 60.7773 72.0985 58.4808L72.0217 37.6239C72.0134 35.3526 70.8027 33.2557 68.8399 32.1128L50.8157 21.6179C48.8311 20.4623 46.3797 20.4578 44.3908 21.6061L26.4737 31.9505ZM32.3091 56.8779L32.2432 38.9729L47.5876 30.1138L63.0609 39.1234L63.1268 57.0285L50.1894 64.4979L48.5036 69.7239C48.1218 70.9074 46.4473 70.9074 46.0655 69.7239L44.1447 63.7694L32.3091 56.8779Z" fill="url(#paint0_linear_10724_38995)"/>
<path fill-rule="evenodd" clip-rule="evenodd" d="M47.3417 41.0245L40.8997 44.7438L40.9273 52.2324L47.3988 56.0005L53.8408 52.2812L53.8132 44.7926L47.3417 41.0245Z" fill="#E1000F"/>
<defs>
<linearGradient id="paint0_linear_10724_38995" x1="37.6782" y1="74.2792" x2="62.8993" y2="26.8657" gradientUnits="userSpaceOnUse">
<stop stop-color="#0C008A"/>
<stop offset="0.51" stop-color="#5F5FE0"/>
<stop offset="1" stop-color="#F4849A"/>
</linearGradient>
</defs>
</svg>
