<svg width="50" height="50" viewBox="0 0 50 50" fill="none" xmlns="http://www.w3.org/2000/svg">
<path d="M40 0H10C4.47715 0 0 4.47715 0 10V40C0 45.5228 4.47715 50 10 50H40C45.5229 50 50 45.5228 50 40V10C50 4.47715 45.5229 0 40 0Z" fill="white"/>
<mask id="mask0_16007_16525" style="mask-type:luminance" maskUnits="userSpaceOnUse" x="12" y="12" width="26" height="26">
<path d="M37.5 12.5H12.5V37.5H37.5V12.5Z" fill="white"/>
</mask>
<g mask="url(#mask0_16007_16525)">
<path d="M12.9458 15.6249C12.9458 14.7928 12.9458 14.3768 13.0817 14.0487C13.2629 13.611 13.6106 13.2634 14.0482 13.0822C14.3763 12.9463 14.7923 12.9463 15.6243 12.9463C18.1204 12.9463 19.3686 12.9463 20.3531 13.354C21.6657 13.8978 22.7086 14.9407 23.2523 16.2533C23.6601 17.2378 23.6601 18.4859 23.6601 20.982C23.6601 21.814 23.6601 22.23 23.5242 22.5582C23.3429 22.9958 22.9952 23.3434 22.5577 23.5247C22.2296 23.6605 21.8136 23.6605 20.9814 23.6605C18.4854 23.6605 17.2373 23.6605 16.2528 23.2528C14.9402 22.7092 13.8973 21.6662 13.3536 20.3535C12.9458 19.369 12.9458 18.1209 12.9458 15.6249Z" fill="#000091"/>
<path d="M29.017 23.661C28.1849 23.661 27.769 23.661 27.4408 23.5252C27.0033 23.3439 26.6555 22.9963 26.4743 22.5587C26.3384 22.2305 26.3384 21.8145 26.3384 20.9825C26.3384 18.4864 26.3384 17.2383 26.7461 16.2538C27.2899 14.9412 28.3328 13.8983 29.6455 13.3545C30.6299 12.9468 31.878 12.9468 34.3741 12.9468C35.2061 12.9468 35.6221 12.9468 35.9504 13.0827C36.3879 13.2639 36.7355 13.6115 36.9168 14.0492C37.0528 14.3773 37.0528 14.7933 37.0528 15.6254C37.0528 18.1215 37.0528 19.3695 36.6449 20.354C36.1011 21.6667 35.0584 22.7097 33.7456 23.2533C32.7611 23.661 31.513 23.661 29.017 23.661Z" fill="#000091"/>
<path d="M20.9814 26.3394C21.8136 26.3394 22.2296 26.3394 22.5577 26.4754C22.9952 26.6566 23.3429 27.0042 23.5242 27.4417C23.6601 27.7699 23.6601 28.186 23.6601 29.018C23.6601 31.5141 23.6601 32.7621 23.2523 33.7466C22.7086 35.0592 21.6657 36.1022 20.3531 36.6459C19.3686 37.0536 18.1204 37.0536 15.6243 37.0536C14.7923 37.0536 14.3763 37.0536 14.0482 36.9177C13.6106 36.7365 13.2629 36.3889 13.0817 35.9514C12.9458 35.6232 12.9458 35.2071 12.9458 34.3751C12.9458 31.879 12.9458 30.631 13.3536 29.6464C13.8973 28.3339 14.9402 27.2909 16.2528 26.7472C17.2373 26.3394 18.4854 26.3394 20.9814 26.3394Z" fill="#000091"/>
<path d="M37.0528 34.3751C37.0528 35.2071 37.0528 35.6232 36.9168 35.9514C36.7355 36.3889 36.3879 36.7365 35.9504 36.9177C35.6221 37.0536 35.2061 37.0536 34.3741 37.0536C31.878 37.0536 30.6299 37.0536 29.6455 36.6459C28.3328 36.1022 27.2899 35.0592 26.7461 33.7466C26.3384 32.7621 26.3384 31.5141 26.3384 29.018C26.3384 28.186 26.3384 27.7699 26.4743 27.4417C26.6555 27.0042 27.0033 26.6566 27.4408 26.4754C27.769 26.3394 28.1849 26.3394 29.017 26.3394C31.5131 26.3394 32.7611 26.3394 33.7456 26.7472C35.0584 27.2909 36.1011 28.3339 36.6449 29.6464C37.0528 30.631 37.0528 31.879 37.0528 34.3751Z" fill="#000091"/>
</g>
</svg>
