<svg preserveAspectRatio="none" width="100%" height="100%" overflow="visible" style="display: block;" viewBox="0 0 36 14" fill="none" xmlns="http://www.w3.org/2000/svg">
<g id="aidants-connect 1" clip-path="url(#clip0_0_210)">
<path id="Vector" d="M4.12921 6.42353H1.70844L1.37642 7.18653H0.0771585L2.52423 1.22159H3.32487L5.76258 7.18653H4.46294L4.12921 6.42353ZM2.91973 3.13202L2.13043 5.43776H3.70732L2.91973 3.13202ZM7.6977 7.18653H6.48821V2.79404H7.6977V7.18653ZM13.3362 0.529062V7.18663H12.2242V6.64451C11.9186 7.06214 11.4086 7.29248 10.7992 7.29248C9.54466 7.29248 8.64837 6.31589 8.64837 4.99402C8.64837 3.67216 9.54466 2.69566 10.7992 2.69566C11.3542 2.69566 11.8117 2.88135 12.1267 3.21924V0.529062H13.3362ZM12.1436 4.99402C12.1436 4.16045 11.5792 3.77801 11.0223 3.77801C10.3941 3.77801 9.8747 4.24029 9.8747 4.98475C9.8747 5.7311 10.3848 6.20076 11.0223 6.20076C11.5792 6.20076 12.1436 5.83686 12.1436 4.99402ZM18.2585 4.57629V7.18653H17.1466V6.76143C16.8334 7.09005 16.3664 7.29428 15.7927 7.29428C14.8251 7.29428 14.2588 6.72614 14.2588 5.97979C14.2588 5.18151 14.9133 4.70258 15.9352 4.70258H17.0471V4.50762C17.0471 4.02868 16.7696 3.73535 16.2221 3.73535C15.7477 3.73535 15.4158 3.95812 15.0483 4.33867L14.4201 3.60168C14.9395 2.98899 15.577 2.69566 16.3571 2.69566C17.4879 2.69566 18.2585 3.32499 18.2585 4.57629ZM17.0471 5.54541V5.49149H16.0965C15.7027 5.49149 15.4776 5.6419 15.4776 5.93533C15.4776 6.23794 15.7383 6.41426 16.1133 6.41426C16.6271 6.41426 17.0471 6.05963 17.0471 5.54541ZM23.5032 4.46117V7.18653H22.3012V4.62094C22.3012 4.1141 21.9693 3.76883 21.4762 3.76883C20.983 3.76883 20.6343 4.1141 20.6343 4.62094V7.18663H19.4248V2.79404H20.5367V3.19322C20.8424 2.89052 21.2906 2.69566 21.8362 2.69566C22.875 2.69566 23.5032 3.40483 23.5032 4.46117ZM27.518 6.18402V7.18653C27.2667 7.24783 26.9986 7.29248 26.6835 7.29248C25.5904 7.29248 24.9078 6.7689 24.9078 5.64199V3.80402H24.2083V2.79224H24.9078V1.68378H26.1173V2.79394H27.3717V3.80572H26.1173V5.53605C26.1173 6.04099 26.3853 6.21921 26.9423 6.21921C27.0885 6.21921 27.2855 6.20076 27.518 6.18402ZM31.4989 3.3529L30.8895 4.08989C30.6025 3.82445 30.2538 3.67216 29.8938 3.67216C29.6068 3.67216 29.4194 3.77054 29.4194 3.98224C29.4194 4.16045 29.5619 4.24767 29.8863 4.37206L30.3156 4.55028C31.1126 4.86963 31.5627 5.20752 31.5627 5.89068C31.5627 6.79671 30.8013 7.29239 29.8319 7.29239C29.0425 7.29239 28.388 6.95449 27.9943 6.44028L28.6037 5.71247C28.9618 6.07637 29.3743 6.30652 29.8506 6.30652C30.1563 6.30652 30.4151 6.19149 30.4151 5.94271C30.4151 5.73848 30.2276 5.65864 29.9575 5.54352L29.4831 5.34866C28.7293 5.04595 28.2736 4.70068 28.2736 4.00825C28.2736 3.16541 28.9637 2.68639 29.905 2.68639C30.5482 2.68639 31.0958 2.90916 31.4989 3.3529ZM5.76437 9.38283L4.84927 10.0214C4.45556 9.39958 3.89859 9.03567 3.15413 9.03567C2.05154 9.03567 1.24521 9.83395 1.24521 10.9701C1.24521 12.097 2.05154 12.8879 3.15413 12.8879C3.89859 12.8879 4.45367 12.524 4.84927 11.9022L5.76437 12.5408C5.25432 13.4374 4.29428 13.9963 3.14666 13.9963C1.38966 13.9981 0.000158457 12.6856 0.000158457 10.9628C0.000158457 9.24179 1.38966 7.9273 3.15602 7.9273C4.29428 7.9273 5.24496 8.48617 5.76437 9.38283ZM11.1347 11.6905C11.1347 12.9956 10.0584 13.9888 8.74202 13.9888C7.42574 13.9888 6.37375 12.9956 6.37375 11.6905C6.37375 10.3946 7.42196 9.40137 8.74959 9.40137C10.0584 9.40137 11.1347 10.3946 11.1347 11.6905ZM7.60197 11.6997C7.60197 12.3923 8.07636 12.8898 8.74959 12.8898C9.404 12.8898 9.89712 12.383 9.89712 11.6997C9.89712 11.0073 9.404 10.493 8.74959 10.493C8.07636 10.493 7.60197 11.0073 7.60197 11.6997ZM16.2014 11.167V13.8923H14.9995V11.3267C14.9995 10.8198 14.6675 10.4745 14.1744 10.4745C13.6812 10.4745 13.3324 10.8198 13.3324 11.3267V13.8923H12.1229V9.49795H13.2349V9.89705C13.5405 9.59444 13.9887 9.39948 14.5344 9.39948C15.5733 9.40137 16.2014 10.1105 16.2014 11.167ZM21.3131 11.167V13.8923H20.1112V11.3267C20.1112 10.8198 19.7792 10.4745 19.2861 10.4745C18.7929 10.4745 18.4441 10.8198 18.4441 11.3267V13.8923H17.2346V9.49795H18.3466V9.89705C18.6523 9.59444 19.1004 9.39948 19.6461 9.39948C20.6868 9.40137 21.3131 10.1105 21.3131 11.167ZM26.5579 12.0989H23.4469C23.5895 12.6577 24.0471 12.9697 24.694 12.9697C25.1777 12.9697 25.5734 12.8007 25.9316 12.5259L26.434 13.3428C25.9316 13.7605 25.3409 14 24.6583 14C23.2501 14 22.2281 12.9975 22.2281 11.7016C22.2281 10.4058 23.2407 9.40326 24.5495 9.40326C25.7966 9.40326 26.6385 10.3092 26.6385 11.4455C26.6385 11.6905 26.5934 11.9485 26.5579 12.0989ZM23.4469 11.2561H25.4646C25.4553 10.6972 25.0165 10.3686 24.5046 10.3686C23.9945 10.3686 23.582 10.7065 23.4469 11.2561ZM31.632 10.4837L30.7901 11.1317C30.5388 10.7585 30.2163 10.493 29.7231 10.493C29.033 10.493 28.5586 11.0073 28.5586 11.6905C28.5586 12.383 29.033 12.8972 29.7231 12.8972C30.207 12.8972 30.5294 12.6318 30.7901 12.2679L31.632 12.9065C31.2645 13.5637 30.5838 13.9981 29.7044 13.9981C28.3767 13.9981 27.3285 12.9956 27.3285 11.6905C27.3285 10.3946 28.3767 9.40137 29.7044 9.40137C30.5913 9.40137 31.2645 9.82658 31.632 10.4837ZM35.3785 12.8898V13.8923C35.1273 13.9535 34.8591 13.9981 34.5441 13.9981C33.4509 13.9981 32.7684 13.4746 32.7684 12.3477V10.5097H32.069V9.49795H32.7684V8.38779H33.9778V9.49795H35.2323V10.5097H33.9778V12.2401C33.9778 12.745 34.246 12.9232 34.8029 12.9232C34.9492 12.9251 35.146 12.9065 35.3785 12.8898Z" fill="var(--fill-0, #1B4991)"/>
<g id="Vector_2">
</g>
<path id="Vector_3" d="M9.52237 2.45057C10.2059 2.45057 10.76 1.90201 10.76 1.22528C10.76 0.548554 10.2059 0 9.52237 0C8.83892 0 8.28479 0.548649 8.28479 1.22528C8.28479 1.90201 8.83892 2.45057 9.52237 2.45057Z" fill="var(--fill-0, #EF4056)"/>
</g>
<defs>
<clipPath id="clip0_0_210">
<rect width="35.3784" height="14" fill="white"/>
</clipPath>
</defs>
</svg>
