<svg preserveAspectRatio="none" width="100%" height="100%" overflow="visible" style="display: block;" viewBox="0 0 50 50" fill="none" xmlns="http://www.w3.org/2000/svg">
<g id="CARTO">
<path id="Vector" d="M40.9091 0H9.09091C4.07014 0 0 4.07014 0 9.09091V40.9091C0 45.9299 4.07014 50 9.09091 50H40.9091C45.9299 50 50 45.9299 50 40.9091V9.09091C50 4.07014 45.9299 0 40.9091 0Z" fill="var(--fill-0, white)"/>
<path id="Vector_2" d="M33.7023 16.2972C31.4773 14.0716 28.3994 12.6892 25 12.6892C21.6 12.6892 18.5227 14.0716 16.2972 16.2972C14.0716 18.5227 12.6892 21.6 12.6892 25C12.6892 28.3994 14.0716 31.4773 16.2972 33.7023C18.5227 35.9278 21.6 37.3102 25 37.3102C28.3994 37.3102 31.4773 35.9278 33.7023 33.7023C35.9278 31.4773 37.3102 28.3994 37.3102 25C37.3102 21.6 35.9278 18.5227 33.7023 16.2972Z" fill="url(#paint0_linear_0_201)"/>
<path id="Vector_3" d="M20.7112 24.2614C21.355 23.6177 22.2453 23.22 23.2203 23.22C24.1959 23.22 25.0862 23.6177 25.73 24.2614L26.9896 23.0114L37.4249 12.5762L37.851 12.1501C37.4817 11.7808 36.7999 11.7239 35.8817 12.0739L19.4419 18.4001C18.5141 18.7501 17.5669 19.47 16.7908 20.341L19.4612 23.0114L20.7112 24.2614Z" fill="url(#paint1_linear_0_201)"/>
<path id="Vector_4" d="M19.4601 30.5397L20.7192 29.28C20.0754 28.6363 19.6777 27.7459 19.6777 26.7704C19.6777 25.7857 20.0754 24.905 20.7192 24.2613L19.4601 23.0113L16.7896 20.3408C16.0317 21.1834 15.4351 22.1681 15.1891 23.0965L11.7328 35.7761C11.4771 36.7136 11.6283 37.4715 12.0828 37.926L12.5754 37.4334L19.4601 30.5397Z" fill="url(#paint2_linear_0_201)"/>
<path id="Vector_5" d="M26.9875 30.54L25.7279 29.2803C25.0841 29.9246 24.1938 30.3224 23.2188 30.3224C22.2336 30.3224 21.3529 29.9246 20.7091 29.2803L19.4495 30.54L12.5654 37.4246L12.0728 37.9167C12.5273 38.3712 13.2756 38.5229 14.2222 38.2672L17.3097 37.4246L26.9023 34.811C27.8301 34.5553 28.8154 33.9587 29.658 33.2104L26.9875 30.54Z" fill="url(#paint3_linear_0_201)"/>
<path id="Vector_6" d="M37.859 12.1399L37.4329 12.566L26.988 23.0115L25.7284 24.2706C26.3727 24.9149 26.7704 25.8047 26.7704 26.7802C26.7704 27.7649 26.3727 28.6456 25.7284 29.2899L26.988 30.549L29.6585 33.2194C30.5295 32.4433 31.2494 31.4961 31.5999 30.5774L37.4238 15.4263L37.9255 14.1194C38.2761 13.2007 38.2283 12.5092 37.859 12.1399Z" fill="url(#paint4_linear_0_201)"/>
<path id="Vector_7" d="M25.738 24.2616C25.0942 23.6172 24.2039 23.2195 23.2289 23.2195C22.2533 23.2195 21.363 23.6172 20.7192 24.2616C20.0755 24.9053 19.6777 25.7957 19.6777 26.7707C19.6777 27.7559 20.0755 28.6366 20.7192 29.2803C21.363 29.9241 22.2533 30.3218 23.2289 30.3218C24.2135 30.3218 25.0942 29.9241 25.738 29.2803C26.3823 28.6366 26.78 27.7462 26.78 26.7707C26.78 25.7957 26.3823 24.9053 25.738 24.2616Z" fill="var(--fill-0, white)"/>
<path id="Vector_8" d="M24.4789 25.521C24.1573 25.1989 23.7118 25 23.2198 25C22.7272 25 22.2823 25.1989 21.9601 25.521C21.638 25.8426 21.4391 26.2881 21.4391 26.7801C21.4391 27.2727 21.638 27.7176 21.9601 28.0398C22.2823 28.3619 22.7272 28.5608 23.2198 28.5608C23.7118 28.5608 24.1573 28.3619 24.4789 28.0398C24.801 27.7176 24.9999 27.2727 24.9999 26.7801C24.9999 26.2881 24.801 25.8426 24.4789 25.521Z" fill="var(--fill-0, #0909B9)"/>
</g>
<defs>
<linearGradient id="paint0_linear_0_201" x1="19.4216" y1="30.5778" x2="33.4727" y2="16.5267" gradientUnits="userSpaceOnUse">
<stop stop-color="#EFEFEF"/>
<stop offset="1" stop-color="#929292"/>
</linearGradient>
<linearGradient id="paint1_linear_0_201" x1="27.3249" y1="10.9029" x2="27.3249" y2="25.8387" gradientUnits="userSpaceOnUse">
<stop stop-color="#518FFF"/>
<stop offset="1" stop-color="#5F5FF1"/>
</linearGradient>
<linearGradient id="paint2_linear_0_201" x1="16.159" y1="19.6533" x2="16.159" y2="39.0204" gradientUnits="userSpaceOnUse">
<stop stop-color="#F95C5E"/>
<stop offset="1" stop-color="#E1000F"/>
</linearGradient>
<linearGradient id="paint3_linear_0_201" x1="20.8659" y1="28.2002" x2="20.8659" y2="39.2655" gradientUnits="userSpaceOnUse">
<stop stop-color="#E1000F"/>
<stop offset="1" stop-color="#881317"/>
</linearGradient>
<linearGradient id="paint4_linear_0_201" x1="31.9499" y1="10.7268" x2="31.9499" y2="33.1376" gradientUnits="userSpaceOnUse">
<stop stop-color="#5F5FF1"/>
<stop offset="1" stop-color="#000091"/>
</linearGradient>
</defs>
</svg>
