<svg preserveAspectRatio="none" width="100%" height="100%" overflow="visible" style="display: block;" viewBox="0 0 384 125" fill="none" xmlns="http://www.w3.org/2000/svg">
<g id="Logo RF_Incubateur 1">
<path id="Vector" d="M74.0907 21.2454H58.9006C58.9511 21.2624 58.9998 21.2851 59.0453 21.3131L59.4275 21.5175C59.6306 21.6125 59.8049 21.7599 59.9326 21.9448C59.9847 22.0258 60.0656 22.1862 60.0118 22.2926C59.9578 22.4277 59.9326 22.6406 59.7979 22.6947C59.6209 22.767 59.4265 22.7858 59.2389 22.7486C59.13 22.7437 59.0219 22.7257 58.9174 22.6947C59.318 22.855 59.6918 23.0425 59.9578 23.4174C59.9847 23.4715 60.0925 23.4986 60.1986 23.4986C60.2255 23.4986 60.2255 23.551 60.2255 23.5779C60.1717 23.632 60.1195 23.659 60.1448 23.7383H60.2255C60.3585 23.6844 60.3316 23.4174 60.5185 23.4986C60.584 23.5389 60.6315 23.6028 60.6515 23.6772C60.6716 23.7517 60.6626 23.8308 60.6263 23.8988C60.5258 23.9962 60.4183 24.0859 60.3047 24.1673C60.2922 24.197 60.2858 24.2289 60.2858 24.2611C60.2858 24.2933 60.2922 24.3251 60.3047 24.3548C60.3722 24.4507 60.4182 24.5603 60.4394 24.6758C60.5185 24.8632 60.5454 25.0777 60.6263 25.2636C60.7523 25.6529 60.8154 26.06 60.8131 26.4694C60.8131 26.6823 60.7054 26.8696 60.7862 27.0842C60.8567 27.2847 60.9554 27.4741 61.0791 27.6466C61.1859 27.7825 61.2837 27.9253 61.3722 28.0739C61.5321 28.3424 61.8267 28.6093 61.6937 28.9319C61.6129 29.1194 61.3199 29.1008 61.1331 29.1987C60.9732 29.3321 61.1062 29.5467 61.1852 29.6801C61.3199 29.9216 61.0253 30.0821 60.8384 30.1631C60.8923 30.2425 61.0068 30.2155 61.0253 30.2696C61.0522 30.403 61.1852 30.484 61.1062 30.6174C60.9984 30.7779 60.6784 30.859 60.8384 31.0988C60.9461 31.2863 60.8772 31.494 60.8131 31.6883C60.7726 31.7902 60.7073 31.8804 60.6232 31.9505C60.5391 32.0207 60.4389 32.0688 60.3316 32.0902C60.1675 32.1379 59.9945 32.1465 59.8265 32.1156C59.7751 32.0854 59.7175 32.0675 59.6582 32.0632C59.2052 32.0092 58.7506 31.8758 58.2978 31.8758C58.1693 31.8958 58.0437 31.9316 57.924 31.9822C57.808 32.0681 57.6998 32.1641 57.6007 32.2692L57.5435 32.3334L57.5081 32.3757C57.5081 32.3757 57.4929 32.3925 57.4862 32.4027C57.4087 32.5004 57.3383 32.6037 57.2757 32.7118L57.2639 32.7321L57.2437 32.7692C57.1591 32.9252 57.0913 33.09 57.0417 33.2607C56.8599 33.8737 56.9391 34.399 57.067 34.5273C57.1023 34.5628 57.9476 34.8246 58.5369 35.0864C58.7545 35.1792 58.9654 35.2869 59.1682 35.409H74.084L74.0907 21.2454Z" fill="var(--fill-0, #E1000F)"/>
<path id="Vector_2" d="M59.8037 26.4115C59.9097 26.4385 60.0697 26.4385 60.0697 26.4926C60.0175 26.7071 59.6959 26.7595 59.536 26.9739H59.4568C59.3761 27.028 59.403 27.1614 59.3221 27.1614C59.2417 27.1435 59.1576 27.153 59.083 27.1885C59.1307 27.2477 59.1922 27.2941 59.2621 27.3236C59.3321 27.3531 59.4083 27.3646 59.4837 27.3573C59.5061 27.3656 59.5255 27.3802 59.5395 27.3994C59.5536 27.4187 59.5618 27.4416 59.5629 27.4654C59.5836 27.4634 59.6027 27.4538 59.6167 27.4383C59.6438 27.4383 59.6707 27.4383 59.6707 27.4654V27.5718C59.5898 27.6783 59.4568 27.6259 59.349 27.6512C59.5504 27.7053 59.7623 27.7053 59.9636 27.6512C60.132 27.5988 59.9636 27.3303 60.0697 27.1969C60.0175 27.1969 60.0697 27.1175 60.0175 27.1175C60.0697 27.0635 60.1236 26.9824 60.1774 26.9487C60.2085 26.9495 60.2394 26.9428 60.2673 26.9289C60.2951 26.915 60.3193 26.8946 60.3373 26.8692C60.3373 26.8151 60.2296 26.7882 60.2566 26.7358C60.4165 26.6277 60.5495 26.4673 60.4974 26.3068C60.4703 26.2275 60.2566 26.2275 60.1236 26.1734C59.9728 26.1426 59.8167 26.1518 59.6707 26.2004C59.534 26.223 59.3998 26.2586 59.27 26.3068C59.0886 26.3692 58.9181 26.4598 58.7649 26.5753C58.9552 26.5033 59.1513 26.4468 59.3507 26.4064C59.5014 26.3888 59.6536 26.3906 59.8037 26.4115Z" fill="var(--fill-0, #9D9D9C)"/>
<path id="Vector_3" d="M51.3118 33.7436C51.4633 33.5917 51.6165 33.4296 51.7698 33.2658C52.0439 32.9408 52.341 32.6361 52.6587 32.3537C52.7508 32.27 52.8481 32.1921 52.95 32.1206C52.9752 32.0953 52.9752 32.0413 53.0022 32.0142C52.8691 32.0682 52.7884 32.1831 52.6554 32.2287C52.6285 32.2287 52.6031 32.2016 52.6285 32.1747L52.9146 31.9601H52.8961C52.8692 31.9601 52.8691 31.9348 52.8691 31.9079C52.5224 31.8538 52.2545 32.0953 52.0156 32.3081C51.9616 32.335 51.9078 32.2828 51.8825 32.2828C51.4818 32.4162 51.1889 32.7642 50.7882 32.9245V32.8655C50.6282 32.9194 50.4716 33.0157 50.3083 33.0529C50.0856 33.0887 49.8596 33.0979 49.6348 33.0799C49.3085 33.1173 48.9848 33.1738 48.665 33.2488H48.6381C48.4621 33.2945 48.2923 33.362 48.133 33.4498L48.1145 33.46C48.103 33.4758 48.0905 33.491 48.0774 33.5055C48.0275 33.573 47.9652 33.6303 47.8939 33.6744C47.7347 33.7748 47.5863 33.8914 47.451 34.0224C47.439 34.0316 47.4241 34.0364 47.409 34.0359C47.2659 34.1743 47.1245 34.3129 46.9779 34.448C46.9528 34.4602 46.9245 34.4637 46.8972 34.4581C46.9022 34.4493 46.9078 34.4409 46.914 34.4327C46.9359 34.3939 46.9577 34.3568 46.9813 34.3196C47.005 34.2825 47.0336 34.2368 47.0605 34.1946C47.0874 34.1525 47.1346 34.0849 47.175 34.0258C47.1796 34.021 47.1822 34.0147 47.1822 34.008C47.1822 34.0014 47.1796 33.9951 47.175 33.9903C47.1649 33.9811 47.1516 33.9763 47.138 33.9767C47.2743 33.8479 47.4246 33.7347 47.5857 33.639C47.5672 33.639 47.542 33.639 47.5555 33.6136C47.5689 33.5884 47.5857 33.5647 47.601 33.5393L47.6111 33.5156L47.5908 33.4955C47.5462 33.5208 47.5039 33.5501 47.4645 33.5832C47.4006 33.6406 47.35 33.7522 47.2541 33.7522H47.2136C47.2034 33.7511 47.1936 33.7476 47.185 33.742C47.189 33.7338 47.1935 33.7258 47.1985 33.7184L47.2103 33.6964L47.2204 33.6778L47.239 33.644L47.2541 33.6188C47.2642 33.5985 47.276 33.5798 47.2878 33.5596L47.3046 33.5309L47.3332 33.4835C47.3466 33.46 47.3332 33.443 47.313 33.4346C47.3621 33.3697 47.424 33.3156 47.4949 33.2758C47.5958 33.2234 47.6985 33.1611 47.8013 33.107L47.8451 33.0681C47.695 33.1196 47.5524 33.1905 47.4208 33.2792C47.4047 33.2851 47.3894 33.2931 47.3754 33.3029C47.363 33.3057 47.3501 33.3049 47.3382 33.3008C47.3263 33.2966 47.3158 33.2892 47.308 33.2792C47.306 33.2726 47.306 33.2656 47.308 33.259C47.3349 33.2049 47.414 33.1779 47.4763 33.1256C47.5033 33.1256 47.5285 33.1256 47.5285 33.1525C48.3839 32.477 49.5489 32.6459 50.5441 32.2962L50.7847 32.1273C50.9178 32.0751 51.0238 31.9417 51.1855 31.8605C51.4005 31.7111 51.5598 31.4943 51.6383 31.244C51.6352 31.2241 51.6257 31.2059 51.6114 31.1917C51.2747 31.5547 50.8754 31.8539 50.4329 32.0751C49.8722 32.369 49.2543 32.3149 48.6717 32.3959C48.6986 32.3419 48.7509 32.3419 48.8047 32.3419C48.8047 32.2624 48.8587 32.2354 48.9125 32.1814H48.9917C49.0186 32.1814 49.0186 32.1273 49.0455 32.1273C49.0978 32.1273 49.1785 32.102 49.1516 32.102C49.0725 31.9939 48.9125 32.1814 48.7778 32.102C48.8318 32.048 48.8047 31.9669 48.8587 31.9417H48.9648C48.9704 31.9006 48.9893 31.8626 49.0186 31.8335C49.4193 31.592 49.793 31.4062 50.1651 31.1917C50.0861 31.1917 50.0321 31.2711 49.9531 31.2188C50.0052 31.2188 49.9531 31.1376 50.0052 31.1376C50.2999 31.0583 50.5389 30.8962 50.8336 30.7898C50.7258 30.7898 50.6467 30.8708 50.5389 30.7898C50.5928 30.7627 50.6197 30.7103 50.7073 30.7103V30.6293C50.7073 30.6023 50.7342 30.6023 50.7612 30.6023C50.7408 30.5993 50.7219 30.5899 50.7073 30.5752C50.7342 30.5228 50.8151 30.5482 50.8757 30.4959C50.8504 30.4959 50.7966 30.4959 50.7966 30.4689C50.8884 30.3741 51.012 30.3169 51.1433 30.3084C51.1164 30.2543 51.0357 30.3084 51.0357 30.2543C51.0357 30.2272 51.0626 30.2272 51.0895 30.2272H51.0357C50.9834 30.2003 51.0103 30.1479 51.0103 30.1209C51.1788 29.9335 51.1788 29.6919 51.2494 29.4791C51.2225 29.4791 51.1973 29.4791 51.1973 29.4521C50.9296 29.746 50.5036 29.8524 50.1029 29.9587H49.9581C49.8847 29.9869 49.8063 29.9991 49.7279 29.9945C49.6495 29.9898 49.573 29.9684 49.5035 29.9317C49.4068 29.8655 49.3167 29.7904 49.2341 29.7072C49.0231 29.5739 48.797 29.4661 48.5606 29.3862C47.8977 29.1689 47.202 29.0694 46.5049 29.0923C46.7995 28.9235 47.1228 28.9235 47.4393 28.8238C47.8922 28.6904 48.3198 28.5299 48.7997 28.557C48.7115 28.5434 48.6218 28.5434 48.5337 28.557C48.1599 28.5299 47.7861 28.6363 47.3855 28.7259C47.1195 28.7781 46.8804 28.8863 46.6126 28.9403C46.4526 28.9927 46.3718 29.1532 46.185 29.1278V29.0468C46.4526 28.7259 46.7726 28.4049 47.1951 28.3712C47.6767 28.2901 48.1296 28.3712 48.6095 28.4236C48.9503 28.4607 49.2881 28.5234 49.6197 28.6109C49.7543 28.6109 49.788 28.8255 49.8873 28.8526C50.0558 28.9065 50.2073 28.8526 50.3672 28.9589C50.3672 28.9065 50.3403 28.8526 50.3672 28.7985C50.475 28.6921 50.608 28.8255 50.7141 28.7714C50.9279 28.638 50.5271 28.3982 50.4212 28.2107C50.424 28.1902 50.4334 28.1713 50.4481 28.1567C50.6601 28.3441 50.8218 28.5587 51.0878 28.6921C51.2208 28.746 51.5408 28.8255 51.4885 28.665C51.3555 28.3712 51.0878 28.1297 50.874 27.8628V27.7547C50.8218 27.7547 50.8218 27.7276 50.7949 27.7024V27.5942C50.6872 27.5402 50.7141 27.4339 50.6601 27.3544C50.5811 27.2193 50.6349 27.0318 50.5811 26.8713C50.5322 26.7235 50.4967 26.5714 50.475 26.4171C50.4126 25.9594 50.305 25.5591 50.2443 25.1301C50.1905 24.6234 50.5372 24.2197 50.778 23.7654C50.9518 23.4216 51.2088 23.1272 51.5257 22.9091C51.6303 22.5904 51.8027 22.2983 52.0307 22.0528C52.2617 21.8148 52.5431 21.6318 52.854 21.5175C53.088 21.4139 53.3275 21.3231 53.5712 21.2454H35.2596V35.409H48.224C48.729 35.0425 49.2341 34.8685 49.948 34.5173C50.2863 34.3517 51.0525 34.0004 51.3118 33.7436ZM47.2136 31.8217C47.1615 31.8217 47.0453 31.8487 47.0806 31.7946C47.1076 31.6612 47.2945 31.6612 47.4006 31.6071C47.4544 31.5802 47.5336 31.5278 47.5874 31.5548C47.6414 31.6342 47.7204 31.6071 47.7744 31.6612C47.6094 31.8217 47.3955 31.7422 47.2136 31.8217ZM43.1274 31.2322C43.1127 31.2184 43.1032 31.1999 43.1005 31.1798C43.4282 30.7536 43.7139 30.2966 43.9541 29.8152C44.2927 29.6148 44.5973 29.3617 44.8565 29.0653C45.2771 28.5819 45.7835 28.181 46.3499 27.883C46.5772 27.8111 46.8222 27.8201 47.0436 27.9084C46.9645 28.0164 46.8298 27.9894 46.7237 28.0773C46.7093 28.0791 46.6945 28.0777 46.6807 28.0733C46.6667 28.069 46.6538 28.0617 46.643 28.0519C46.6531 28.0412 46.6609 28.0285 46.6655 28.0145C46.6702 28.0005 46.6717 27.9856 46.6699 27.9709C46.4039 28.2648 46.0301 28.3999 45.8162 28.7477C45.6614 29.0147 45.5553 29.3525 45.2084 29.4403C45.1007 29.4672 45.2353 29.3592 45.1815 29.3862C44.3514 29.8945 43.7672 30.511 43.1274 31.2322ZM45.3414 29.4672C45.3145 29.5196 45.2859 29.5264 45.2606 29.5737C45.2405 29.6217 45.2024 29.6599 45.1546 29.6801C45.1276 29.6801 45.1007 29.6801 45.1007 29.6531C45.1135 29.5984 45.1399 29.5478 45.1773 29.5059C45.2146 29.4642 45.2618 29.4322 45.3145 29.4133C45.3414 29.4133 45.3414 29.4403 45.3414 29.4672ZM46.5806 33.4768C46.5646 33.5072 46.5422 33.5337 46.515 33.5546C46.5486 33.5546 46.5722 33.5765 46.5503 33.5968C46.4934 33.657 46.4246 33.7048 46.3482 33.7369C46.3344 33.7389 46.3202 33.7389 46.3062 33.7369C46.2742 33.769 46.2405 33.7994 46.2068 33.8298C46.1732 33.8602 46.0284 33.8298 46.0738 33.7977C46.1192 33.7657 46.2035 33.6727 46.2709 33.6119C46.3079 33.5765 46.3482 33.5444 46.382 33.5055C46.3984 33.483 46.4176 33.4625 46.4392 33.4447C46.4611 33.4363 46.6025 33.4245 46.5806 33.4768ZM46.1024 33.2555C46.0031 33.3266 45.9038 33.3975 45.7977 33.4583C45.6917 33.519 45.5637 33.5765 45.4458 33.6272C45.4408 33.6202 45.4334 33.6154 45.425 33.6135C45.4167 33.6116 45.4079 33.6129 45.4004 33.617C45.3022 33.6725 45.2121 33.7413 45.1326 33.8214C45.1194 33.8329 45.1071 33.8453 45.0956 33.8586L45.0586 33.8957C45.0401 33.9142 45.0215 33.9328 44.9996 33.9582C44.9906 33.9729 44.9786 33.9855 44.9643 33.9953C44.9475 34.0054 44.9019 34.0054 44.9071 33.975L44.8599 33.9987C44.8453 34.0056 44.8313 34.0134 44.8178 34.0224C44.8118 34.0206 44.8054 34.0206 44.7993 34.0224C44.7933 34.02 44.7867 34.02 44.7807 34.0224C44.7471 34.0478 44.7151 34.0747 44.6832 34.1034C44.6272 34.1551 44.576 34.2116 44.5298 34.2723L44.5214 34.2825V34.2943L44.5029 34.3196C44.4969 34.3255 44.4893 34.3297 44.4811 34.3314L44.471 34.3146C44.4678 34.3103 44.465 34.3058 44.4626 34.301C44.4626 34.2876 44.4474 34.274 44.4407 34.2588C44.44 34.2543 44.44 34.2499 44.4407 34.2454C44.4693 34.215 44.4962 34.1829 44.5248 34.1491L44.5518 34.1153L44.5535 34.0815L44.5687 34.0612C44.5989 34.0224 44.6258 33.9853 44.6528 33.9481L44.6647 33.9312C44.6781 33.9125 44.6899 33.8923 44.7017 33.8737C44.7122 33.8563 44.7217 33.8382 44.7303 33.8197V33.8095L44.7555 33.747C44.7548 33.7408 44.7548 33.7347 44.7555 33.7285C44.7551 33.719 44.7551 33.7093 44.7555 33.6998L44.7656 33.661C44.767 33.658 44.7677 33.6548 44.7677 33.6517C44.7677 33.6485 44.767 33.6453 44.7656 33.6423C44.7963 33.5906 44.8317 33.542 44.8717 33.4971L44.8599 33.5055C44.8212 33.5292 44.796 33.5647 44.7605 33.59C44.7252 33.6153 44.6781 33.5765 44.7118 33.5511C44.7331 33.5338 44.7534 33.5152 44.7723 33.4955C44.8149 33.4475 44.8604 33.4023 44.9088 33.3604C44.9391 33.3383 44.966 33.318 44.9895 33.2978C44.9943 33.2948 44.9983 33.2907 45.0013 33.2859C45.0202 33.2622 45.0404 33.2397 45.062 33.2184C45.3162 32.9702 45.7472 32.982 46.0839 32.8249C46.2169 32.7709 46.377 32.8502 46.51 32.8249C46.5936 32.8169 46.6777 32.8352 46.7507 32.8773C46.5402 32.9702 46.3213 33.1187 46.1024 33.2555ZM46.648 31.3977C46.6228 31.3707 46.7287 31.3977 46.7558 31.3436H46.5402C46.5133 31.3436 46.5133 31.3167 46.5133 31.2897C46.3803 31.3167 46.2203 31.3707 46.0873 31.3977C45.9005 31.4502 45.7404 31.5836 45.5267 31.6375C45.2337 31.7457 44.9929 31.9855 44.6731 32.0936C44.646 32.0936 44.646 32.0665 44.646 32.0396C44.6731 31.9585 44.779 31.9331 44.833 31.8521C44.833 31.8251 44.833 31.798 44.8061 31.798C45.0198 31.5041 45.3112 31.3436 45.5805 31.1022V31.0229C45.6597 30.9147 45.7927 30.8624 45.8465 30.7273C45.9012 30.6153 45.9973 30.5293 46.1142 30.4874C46.0873 30.4604 46.0335 30.4604 46.0335 30.4064C45.9274 30.4064 45.8196 30.4604 45.7135 30.3793C45.7607 30.334 45.8186 30.3014 45.8818 30.2847C45.8574 30.2799 45.8359 30.2661 45.8213 30.2459C45.7944 30.1918 45.8734 30.1328 45.9543 30.1125C46.0621 30.0854 46.1951 30.0854 46.2759 30.0044C46.089 29.979 45.8751 30.0584 45.6883 29.952C45.8031 29.6081 46.0438 29.3208 46.3617 29.1481C46.3887 29.1481 46.4426 29.1481 46.4426 29.175C46.4448 29.2381 46.4245 29.2999 46.3854 29.3491C46.3461 29.3984 46.2905 29.4319 46.2287 29.4437C46.4477 29.4706 46.6626 29.5246 46.8686 29.604C46.8416 29.6564 46.7894 29.6311 46.7625 29.6311C46.8955 29.7105 47.0554 29.6564 47.1884 29.7645C47.1092 29.8439 47.0201 29.7645 46.9493 29.7645C47.776 30.0044 48.6566 30.1918 49.3503 30.7273C48.7644 30.9954 48.1455 31.1844 47.51 31.2897C47.4377 31.2942 47.3651 31.2849 47.2962 31.2626C47.2962 31.2897 47.2962 31.3436 47.2693 31.3436C47.1771 31.3326 47.0839 31.3516 47.0033 31.3977C46.9496 31.4304 46.8879 31.4475 46.8252 31.4469C46.7624 31.4462 46.701 31.4282 46.648 31.3944V31.3977Z" fill="var(--fill-0, #000091)"/>
<path id="Vector_4" d="M35.2596 50.3654H37.3713V46.1567H38.457L41.238 50.3654H43.7216L40.4646 45.7551C41.5355 45.2644 42.1451 44.3275 42.1451 43.0634C42.1451 41.13 40.7323 39.9552 38.4422 39.9552H35.2596V50.3654ZM38.561 41.7101C39.4533 41.7101 39.9738 42.2455 39.9738 43.0336C39.9738 43.8814 39.4533 44.4019 38.561 44.4019H37.3713V41.7101H38.561Z" fill="var(--fill-0, black)"/>
<path id="Vector_5" d="M45.0592 50.3654H51.1268V48.6105H47.171V45.9337H50.532V44.1788H47.171V41.7101H51.1268V39.9552H45.0592V50.3654Z" fill="var(--fill-0, black)"/>
<path id="Vector_6" d="M53.5808 50.3654H55.6926V46.1567H57.0162C59.3064 46.1567 60.7044 44.9818 60.7044 43.0634C60.7044 41.13 59.3064 39.9552 57.0162 39.9552H53.5808V50.3654ZM57.1054 41.7101C57.9977 41.7101 58.5331 42.2455 58.5331 43.0336C58.5331 43.8814 57.9977 44.4019 57.1054 44.4019H55.6926V41.7101H57.1054Z" fill="var(--fill-0, black)"/>
<path id="Vector_7" d="M68.5901 46.469C68.5901 47.867 67.7871 48.6849 66.4932 48.6849C65.1697 48.6849 64.3814 47.867 64.3814 46.469V39.9552H62.2697V46.2905C62.2697 49.027 63.8759 50.6628 66.4784 50.6628C69.0958 50.6628 70.702 49.027 70.702 46.2905V39.9552H68.5901V46.469Z" fill="var(--fill-0, black)"/>
<path id="Vector_8" d="M73.3252 50.3654H76.6119C79.0062 50.3654 80.4786 49.2054 80.4786 47.3018C80.4786 46.2162 79.8688 45.3239 78.7683 44.8331C79.497 44.3572 79.8836 43.6286 79.8836 42.7808C79.8836 41.0259 78.5601 39.9552 76.3888 39.9552H73.3252V50.3654ZM76.4334 41.7101C77.2366 41.7101 77.7124 42.1413 77.7124 42.8701C77.7124 43.6286 77.2366 44.0598 76.4334 44.0598H75.4371V41.7101H76.4334ZM76.7309 45.8147C77.7124 45.8147 78.3073 46.3204 78.3073 47.2127C78.3073 48.09 77.7124 48.6105 76.7309 48.6105H75.4371V45.8147H76.7309Z" fill="var(--fill-0, black)"/>
<path id="Vector_9" d="M82.6456 50.3654H88.7132V48.4469H84.7574V39.9552H82.6456V50.3654Z" fill="var(--fill-0, black)"/>
<path id="Vector_10" d="M90.5717 50.3654H92.6836V39.9552H90.5717V50.3654Z" fill="var(--fill-0, black)"/>
<path id="Vector_11" d="M104.323 50.0977L103.698 49.5028C104.977 48.4916 105.751 46.9003 105.751 45.1604C105.751 42.186 103.505 39.6578 100.233 39.6578C96.9465 39.6578 94.701 42.186 94.701 45.1604C94.701 48.1347 96.9465 50.6628 100.233 50.6628C100.739 50.6628 101.215 50.6034 101.661 50.4844L102.895 51.5849C103.921 52.4771 104.992 52.953 106.152 52.953C106.613 52.953 106.911 52.8936 107.253 52.7598V50.9752C107.03 51.0644 106.732 51.0941 106.509 51.0941C105.84 51.0941 105.126 50.8265 104.323 50.0977ZM100.233 48.6849C98.2702 48.6849 96.8723 47.1531 96.8723 45.1604C96.8723 43.1675 98.2702 41.6357 100.233 41.6357C102.181 41.6357 103.579 43.1675 103.579 45.1604C103.579 47.1531 102.181 48.6849 100.233 48.6849Z" fill="var(--fill-0, black)"/>
<path id="Vector_12" d="M113.914 46.469C113.914 47.867 113.111 48.6849 111.817 48.6849C110.493 48.6849 109.705 47.867 109.705 46.469V39.9552H107.593V46.2905C107.593 49.027 109.2 50.6628 111.802 50.6628C114.42 50.6628 116.026 49.027 116.026 46.2905V39.9552H113.914V46.469Z" fill="var(--fill-0, black)"/>
<path id="Vector_13" d="M118.649 50.3654H124.717V48.6105H120.761V45.9337H124.122V44.1788H120.761V41.7101H124.717V39.9552H118.649V50.3654Z" fill="var(--fill-0, black)"/>
<path id="Vector_14" d="M35.2596 66.0494H37.3713V61.6176H40.7323V59.8628H37.3713V57.3941H41.3272V55.6392H35.2596V66.0494Z" fill="var(--fill-0, black)"/>
<path id="Vector_15" d="M43.1857 66.0494H45.2976V61.8407H46.3831L49.1642 66.0494H51.6477L48.3909 61.4392C49.4616 60.9484 50.0714 60.0115 50.0714 58.7474C50.0714 56.8141 48.6585 55.6392 46.3683 55.6392H43.1857V66.0494ZM46.4873 57.3941C47.3796 57.3941 47.9001 57.9295 47.9001 58.7177C47.9001 59.5653 47.3796 60.0858 46.4873 60.0858H45.2976V57.3941H46.4873Z" fill="var(--fill-0, black)"/>
<path id="Vector_16" d="M52.1269 66.0494H54.3724L55.3689 63.3428H59.5329L60.5293 66.0494H62.775L58.834 55.6392H56.0678L52.1269 66.0494ZM56.0232 61.5433L57.4509 57.632L58.8785 61.5433H56.0232Z" fill="var(--fill-0, black)"/>
<path id="Vector_17" d="M64.3825 66.0494H66.4942V58.5243L71.1492 66.0494H73.8558V55.6392H71.744V63.1642L67.0891 55.6392H64.3825V66.0494Z" fill="var(--fill-0, black)"/>
<path id="Vector_18" d="M81.4072 64.3689C79.4441 64.3689 78.0462 62.8371 78.0462 60.8442C78.0462 58.8515 79.4441 57.3197 81.4072 57.3197C82.597 57.3197 83.5339 57.8996 84.1287 58.7474L85.7943 57.4535C84.8426 56.1894 83.2959 55.3418 81.4072 55.3418C78.1206 55.3418 75.8749 57.8699 75.8749 60.8442C75.8749 63.4915 77.6595 65.7817 80.3662 66.2575L79.0575 68.4437H80.9314L82.2252 66.2874C83.742 66.094 84.9912 65.3206 85.7943 64.2202L84.1287 62.9412C83.5339 63.7888 82.597 64.3689 81.4072 64.3689Z" fill="var(--fill-0, black)"/>
<path id="Vector_19" d="M86.2457 66.0494H88.4914L89.4877 63.3428H93.6519L94.6482 66.0494H96.8939L92.9528 55.6392H90.1867L86.2457 66.0494ZM90.142 61.5433L91.5698 57.632L92.9975 61.5433H90.142Z" fill="var(--fill-0, black)"/>
<path id="Vector_20" d="M98.5013 66.0494H100.613V55.6392H98.5013V66.0494Z" fill="var(--fill-0, black)"/>
<path id="Vector_21" d="M102.586 64.6069C103.508 65.7073 104.683 66.3468 106.438 66.3468C108.356 66.3468 109.873 65.1719 109.903 63.2089C109.903 59.6397 105.174 60.175 105.174 58.2863C105.174 57.6618 105.664 57.1859 106.408 57.1859C107.196 57.1859 107.88 57.7064 108.49 58.4946L110.037 57.0966C109.144 56.0407 107.955 55.3418 106.393 55.3418C104.4 55.3418 103.032 56.7099 103.032 58.3607C103.032 61.8852 107.761 61.3647 107.761 63.2832C107.761 64.0268 107.256 64.473 106.423 64.473C105.575 64.473 104.742 63.9971 104.118 63.1941L102.586 64.6069Z" fill="var(--fill-0, black)"/>
<path id="Vector_22" d="M112.117 66.0494H118.185V64.2945H114.229V61.6176H117.59V59.8628H114.229V57.3941H118.185V55.6392H112.117V66.0494Z" fill="var(--fill-0, black)"/>
<path id="Vector_23" d="M69.089 94.551C69.3721 94.551 69.6157 94.7656 69.4856 95.3087L68.1691 95.6142C68.3978 95.0033 68.778 94.551 69.0824 94.551H69.089ZM69.8066 96.6689H69.5481C69.2191 97.0585 68.8701 97.3639 68.5196 97.3639C68.1691 97.3639 67.9782 97.151 67.9782 96.6689C67.9791 96.4737 67.9994 96.279 68.0392 96.0879L70.1505 95.3929C70.562 94.414 70.0665 93.9864 69.4922 93.9864C68.4933 93.9864 67.3529 95.6603 67.3529 97.123C67.3529 97.7832 67.6656 98.1399 68.1527 98.1399C68.7253 98.1399 69.3194 97.5818 69.7983 96.664L69.8066 96.6689ZM69.3804 93.5919L70.8615 92.2002V92.0353H70.06L69.1466 93.587L69.3804 93.5919ZM64.8235 94.5691H65.5246L64.4253 97.6198C64.3266 97.8791 64.4648 98.1399 64.7313 98.1399C65.3634 98.1399 66.3853 97.5126 66.7424 96.6541H66.545C66.2619 96.9529 65.722 97.3507 65.2563 97.435L66.2783 94.5676H67.3233L67.4532 94.1317H66.4396L66.8279 93.0323H66.4247L65.7007 94.1317L64.8399 94.2539L64.8235 94.5691ZM63.8773 94.4239C63.8983 94.3788 63.9083 94.3293 63.9063 94.2796C63.9043 94.2298 63.8906 94.1812 63.8661 94.1379C63.8415 94.0946 63.8071 94.0579 63.7656 94.0307C63.724 94.0033 63.6766 93.9865 63.6271 93.9815C63.0166 93.9815 62.2925 94.5313 62.003 95.3021H62.2217C62.4192 95.0198 62.755 94.7062 63.0677 94.6517L61.8927 97.7007C61.8697 97.7458 61.8582 97.796 61.8592 97.8467C61.8603 97.8973 61.874 97.9469 61.899 97.9909C61.9239 98.0351 61.9595 98.0722 62.0023 98.099C62.0452 98.1259 62.0941 98.1416 62.1445 98.1448C62.7237 98.1448 63.4018 97.5869 63.6913 96.8242H63.4938C63.2947 97.1064 62.959 97.4201 62.6481 97.4729L63.8773 94.4239ZM64.0913 92.8952C64.1573 92.8955 64.2227 92.8826 64.2838 92.8574C64.3449 92.8321 64.4004 92.7951 64.4473 92.7483C64.4941 92.7017 64.5311 92.646 64.5564 92.5848C64.5818 92.5237 64.5948 92.4581 64.5948 92.3918C64.5948 92.2578 64.5417 92.1293 64.4473 92.0346C64.3529 91.9398 64.2248 91.8866 64.0913 91.8866C63.9577 91.8866 63.8296 91.9398 63.7352 92.0346C63.6407 92.1293 63.5877 92.2578 63.5877 92.3918C63.5866 92.4584 63.5988 92.5245 63.6238 92.5862C63.6487 92.6479 63.6857 92.7039 63.7328 92.7509C63.7797 92.7979 63.8358 92.8349 63.8973 92.8598C63.959 92.8846 64.0249 92.8966 64.0913 92.8952ZM57.377 97.5736C57.2257 97.9186 57.377 98.1399 57.7209 98.1399C57.9267 98.1399 58.0172 98.0854 58.1012 97.8642L58.9091 95.7182C59.2827 95.2592 60.0528 94.7705 60.3572 94.7705C60.5778 94.7705 60.5481 94.9538 60.4033 95.2295L59.1757 97.6198C59.1467 97.6732 59.1319 97.733 59.1329 97.7937C59.1339 97.8546 59.1506 97.914 59.1811 97.9663C59.2118 98.0187 59.2554 98.0621 59.3078 98.0925C59.3602 98.1229 59.4197 98.1393 59.4802 98.1399C60.0907 98.1399 60.8148 97.5884 61.1043 96.8192H60.9053C60.7077 97.1016 60.3721 97.4152 60.0594 97.468L61.1258 95.3054C61.2497 95.0771 61.3206 94.8238 61.3332 94.5642C61.3413 94.4871 61.3326 94.4092 61.3073 94.336C61.2821 94.2627 61.2411 94.196 61.1872 94.1405C61.1332 94.0851 61.0678 94.0422 60.9955 94.015C60.9231 93.9878 60.8456 93.9769 60.7687 93.9832C60.242 93.9832 59.7089 94.5791 59.077 95.312V94.7475C59.077 94.3414 58.9469 93.9832 58.5833 93.9832C58.3545 93.9832 58.134 94.1812 57.925 94.4636V94.5411C58.3199 94.518 58.4961 95.114 58.2147 95.7413L57.377 97.5736ZM57.3622 94.9141C57.5071 94.419 57.4313 93.9815 57.0495 93.9815C56.6003 93.9815 56.4867 94.3248 56.0292 95.3103V94.7458C56.0292 94.3397 55.8992 93.9815 55.5355 93.9815C55.1093 93.9815 54.7127 94.6418 54.423 95.3021H54.6206C54.8262 95.0033 55.0171 94.8284 55.1701 94.8284C55.3529 94.8284 55.4516 95.1106 55.1701 95.7379L54.3474 97.572C54.196 97.9169 54.3474 98.1382 54.6913 98.1382C54.897 98.1382 54.9875 98.0837 55.0715 97.8625L55.8794 95.7165C56.1083 95.4342 56.3139 95.1883 56.574 94.9141H57.3622ZM52.6837 94.5461C52.9651 94.5461 53.2102 94.7607 53.0803 95.3038L51.7638 95.6091C51.9925 94.9984 52.3742 94.5461 52.6788 94.5461H52.6837ZM53.4028 96.664H53.1707C52.8416 97.0536 52.4928 97.359 52.1423 97.359C51.7916 97.359 51.6025 97.1461 51.6025 96.664C51.6025 96.4688 51.6228 96.274 51.6634 96.083L53.773 95.388C54.1845 94.4091 53.6891 93.9815 53.1148 93.9815C52.1175 93.9815 50.9754 95.6554 50.9754 97.1179C50.9754 97.7783 51.2881 98.1348 51.7753 98.1348C52.3464 98.1348 52.942 97.5769 53.4208 96.6591L53.4028 96.664ZM48.4461 94.5742H49.1471L48.0348 97.6198C47.936 97.8791 48.0726 98.1399 48.3392 98.1399C48.9728 98.1399 49.9847 97.5126 50.3518 96.6541H50.1526C49.8712 96.9529 49.3298 97.3507 48.8658 97.435L49.8795 94.5742H50.9244L51.0528 94.1383H50.044L50.4324 93.0389H50.0309L49.3067 94.1383L48.4461 94.2605V94.5742ZM44.5987 96.9596C44.5987 96.0202 45.6419 94.7441 46.2294 94.7441C46.3499 94.743 46.47 94.758 46.5865 94.7887L45.9777 96.4181C45.6272 96.8456 45.0857 97.3656 44.8257 97.3656C44.6809 97.3656 44.5904 97.2435 44.5904 96.9596H44.5987ZM47.7978 93.823L47.4785 93.7998L47.1197 94.1515H47.0441C45.3063 94.1515 43.8054 96.1093 43.8054 97.5307C43.7979 97.6148 43.8088 97.6996 43.8375 97.779C43.8661 97.8585 43.9118 97.9306 43.9712 97.9904C44.0308 98.0502 44.1025 98.0962 44.1816 98.1252C44.2608 98.1542 44.3453 98.1654 44.4291 98.158C44.8801 98.158 45.321 97.5158 45.8164 96.8274L45.7934 97.0718C45.7324 97.775 45.9464 98.158 46.3117 98.158C46.738 98.158 47.1346 97.4977 47.4241 96.8374H47.2267C47.0292 97.1245 46.8383 97.2896 46.6853 97.2896C46.5323 97.2896 46.4121 96.9991 46.6853 96.3801L47.7978 93.823ZM44.095 94.9324C44.2399 94.4371 44.1625 93.9997 43.7823 93.9997C43.3331 93.9997 43.2179 94.3431 42.7604 95.3286V94.7639C42.7604 94.3579 42.6321 93.9997 42.2668 93.9997C41.8404 93.9997 41.444 94.6599 41.1543 95.3203H41.3534C41.559 95.0215 41.7484 94.8465 41.9014 94.8465C42.084 94.8465 42.1828 95.1288 41.9014 95.7561L41.0786 97.5901C40.9256 97.9351 41.0786 98.1563 41.4208 98.1563C41.4657 98.1641 41.5115 98.1627 41.5558 98.1525C41.6001 98.1421 41.6419 98.1231 41.6787 98.0963C41.7156 98.0695 41.7467 98.0356 41.7702 97.9965C41.7938 97.9576 41.8092 97.9143 41.8158 97.8691L42.6239 95.7231C42.8526 95.4408 43.0583 95.1949 43.3166 94.9207L44.095 94.9324ZM38.2662 97.9913L38.3418 97.7552C37.3282 97.5638 37.19 97.5638 37.603 96.4544L38.0143 95.3154H39.1351C39.6369 95.3154 39.6452 95.5217 39.5678 96.073H39.8575L40.529 94.2308H40.2393C39.9876 94.6665 39.79 94.9869 39.2405 94.9869H38.1361L38.7221 93.3739C38.9063 92.8623 39.0116 92.7549 39.6979 92.7549H40.1916C40.8992 92.7549 40.9832 92.9465 40.9832 93.6646H41.2646L41.5016 92.4116H37.2903L37.2081 92.6477C38.0226 92.8128 38.0983 92.8937 37.7182 93.9485L36.8098 96.4544C36.4297 97.5027 36.2684 97.5869 35.3287 97.7552L35.2596 97.9913H38.2662Z" fill="var(--fill-0, black)"/>
<path id="Vector_24" d="M58.8861 84.996C59.1675 84.996 59.4126 85.2107 59.2827 85.7521L57.9662 86.0592C58.1949 85.4467 58.5767 84.996 58.8811 84.996H58.8861ZM59.6052 87.114H59.3469C59.0177 87.5036 58.6672 87.809 58.3167 87.809C57.9662 87.809 57.7769 87.5945 57.7769 87.114C57.7776 86.9188 57.798 86.724 57.8378 86.533L59.9476 85.8363C60.3589 84.8591 59.8636 84.4298 59.2893 84.4298C58.292 84.4298 57.15 86.1037 57.15 87.5663C57.15 88.2267 57.4627 88.5817 57.9497 88.5817C58.5208 88.5817 59.1165 88.0236 59.5954 87.1075L59.6052 87.114ZM59.1757 84.0336L60.6569 82.642V82.4769H59.857L58.942 84.0287L59.1757 84.0336ZM54.619 85.0126H55.32L54.2075 88.0633C54.1088 88.3224 54.2453 88.5817 54.512 88.5817C55.1455 88.5817 56.1659 87.9559 56.5245 87.0958H56.3255C56.0441 87.3946 55.5026 87.7908 55.0386 87.875L56.0588 85.0093H57.1203L57.2503 84.5735H56.2367L56.625 83.4724H56.2201L55.496 84.5735L54.6354 84.6957L54.619 85.0126ZM53.6744 84.8674C53.6953 84.822 53.7052 84.7722 53.7031 84.7223C53.701 84.6724 53.6871 84.6237 53.6625 84.5802C53.6379 84.5368 53.6032 84.4999 53.5616 84.4726C53.5198 84.4452 53.4721 84.4283 53.4225 84.4232C52.8136 84.4232 52.0896 84.9746 51.7999 85.7438H52.0188C52.218 85.4616 52.5519 85.1479 52.8646 85.0951L51.6896 88.1458C51.6665 88.1908 51.655 88.2408 51.6561 88.2914C51.6572 88.342 51.6708 88.3916 51.6959 88.4355C51.7209 88.4795 51.7565 88.5165 51.7994 88.5431C51.8422 88.5697 51.8912 88.5853 51.9415 88.5882C52.5207 88.5882 53.1987 88.0302 53.4884 87.2675H53.2893C53.0918 87.5514 52.756 87.8651 52.4433 87.9179L53.6744 84.8674ZM53.8882 83.3386C53.9879 83.3386 54.0853 83.3091 54.168 83.2536C54.2508 83.1981 54.3154 83.1192 54.3535 83.0268C54.3916 82.9345 54.4016 82.833 54.3821 82.735C54.3628 82.6369 54.3147 82.547 54.2443 82.4763C54.1739 82.4057 54.0842 82.3576 53.9865 82.3381C53.8888 82.3187 53.7876 82.3286 53.6955 82.3669C53.6036 82.4051 53.5248 82.4697 53.4696 82.5529C53.4143 82.636 53.3847 82.7336 53.3847 82.8336C53.3844 82.8999 53.3973 82.9657 53.4225 83.0271C53.4478 83.0885 53.4849 83.1443 53.5317 83.1912C53.5785 83.2382 53.6341 83.2753 53.6953 83.3007C53.7565 83.326 53.8221 83.3389 53.8882 83.3386ZM49.8482 87.9164L51.9744 82.3283L51.9053 82.2443L50.5722 82.3977V82.5628L50.8323 82.7608C51.0677 82.9441 50.9969 83.1207 50.778 83.6871L49.1175 88.0698C49.0884 88.1231 49.0737 88.1829 49.0745 88.2436C49.0755 88.3042 49.0922 88.3636 49.1228 88.4159C49.1535 88.4681 49.1973 88.5116 49.2497 88.5417C49.3021 88.572 49.3615 88.588 49.4219 88.5882C50.0309 88.5882 50.6793 88.0384 50.9689 87.2675H50.7697C50.5448 87.5827 50.2199 87.812 49.8482 87.9179V87.9164ZM45.8098 87.398C45.8098 86.457 46.8532 85.181 47.4407 85.181C47.5618 85.1793 47.6826 85.1949 47.7994 85.2271L47.1888 86.8549C46.8383 87.284 46.2969 87.8024 46.0468 87.8024C45.902 87.8024 45.8098 87.6802 45.8098 87.398ZM49.0172 84.2615L48.6979 84.2384L48.3392 84.5784H48.2635C46.5257 84.5784 45.0248 86.5396 45.0248 87.9625C45.0176 88.0467 45.0286 88.1314 45.0575 88.2108C45.0864 88.2901 45.1323 88.3622 45.1919 88.4219C45.2515 88.4814 45.3235 88.5273 45.4027 88.556C45.4819 88.5847 45.5664 88.5958 45.6502 88.5882C46.0995 88.5882 46.5421 87.9461 47.0375 87.2592L47.0144 87.5036C46.9535 88.2069 47.1659 88.5882 47.5312 88.5882C47.9591 88.5882 48.354 87.9279 48.6452 87.2675H48.4461C48.2403 87.5663 48.0495 87.7413 47.8981 87.7413C47.7468 87.7413 47.6233 87.4508 47.8981 86.8318L49.0172 84.2615ZM41.2595 89.331C41.2595 88.925 41.6496 88.6708 42.2058 88.4512C42.4731 88.5735 42.7479 88.6782 43.0286 88.7648C43.608 88.9563 43.8284 89.0322 43.8284 89.2089C43.8284 89.582 43.1965 89.8692 42.3342 89.8692C41.6117 89.8692 41.2595 89.7157 41.2595 89.3344V89.331ZM42.8377 86.8581C42.586 86.8581 42.4872 86.6436 42.4872 86.3993C42.4872 85.7192 42.8526 84.7171 43.4252 84.7171C43.6754 84.7171 43.7757 84.9317 43.7757 85.176C43.7757 85.8561 43.4088 86.8581 42.8377 86.8581ZM44.4835 88.953C44.4835 88.4578 44.049 88.2927 43.3397 88.0732C42.7308 87.8899 42.456 87.8371 42.456 87.6374C42.456 87.4723 42.586 87.2857 42.8443 87.1421C43.2804 87.1096 43.6892 86.917 43.9928 86.6012C44.2964 86.2855 44.4734 85.8686 44.49 85.4302C44.4914 85.2856 44.4629 85.1422 44.4061 85.0093H45.2519L45.3802 84.5735H44.049C43.8866 84.4736 43.6998 84.4204 43.5092 84.4199C43.058 84.4249 42.626 84.6028 42.3012 84.9171C41.9767 85.2313 41.7841 85.6582 41.7632 86.1103C41.7529 86.3491 41.829 86.5836 41.9775 86.7704C42.1261 86.9574 42.3368 87.0841 42.5712 87.1272C42.0774 87.3485 41.8011 87.6076 41.8011 87.9147C41.7981 87.9953 41.8155 88.0752 41.8514 88.1473C41.8874 88.2194 41.9408 88.2813 42.0067 88.3274C40.8646 88.6575 40.4138 89.0454 40.4138 89.5886C40.4138 90.1317 41.1082 90.3562 41.931 90.3562C43.3249 90.3562 44.4916 89.5984 44.4916 88.9645L44.4835 88.953ZM39.1646 85.6844C39.6683 85.6844 39.6749 85.8909 39.5991 86.4405H39.8888L40.5585 84.5983H40.2705C40.0188 85.034 39.8197 85.3559 39.2717 85.3559H38.1658L38.7221 83.8191C38.9063 83.3073 39.0116 83.2066 39.6979 83.2066H40.1916C40.8992 83.2066 40.9832 83.3981 40.9832 84.1096H41.2646L41.5016 82.855H37.2903L37.2081 83.0927C38.0226 83.2578 38.0983 83.337 37.7182 84.3918L36.8098 86.8995C36.4297 87.9461 36.2684 88.0302 35.3287 88.1986L35.2596 88.4363H39.9415L40.7807 87.1058H40.4599C39.9266 87.6109 39.2569 88.0962 38.3205 88.0962C37.078 88.0962 37.1932 88.0435 37.6047 86.9044L38.0457 85.6895L39.1646 85.6844ZM39.7753 82.4819L41.2563 81.4568V81.2917H40.3611L39.5383 82.4769L39.7753 82.4819Z" fill="var(--fill-0, black)"/>
<path id="Vector_25" d="M58.3907 75.4414C58.6721 75.4414 58.9174 75.6544 58.7873 76.1975L57.4708 76.5029C57.6995 75.8921 58.0814 75.4414 58.3858 75.4414H58.3907ZM59.1099 77.5578H58.8498C58.5208 77.9489 58.1718 78.2544 57.8213 78.2544C57.4708 78.2544 57.2816 78.0397 57.2816 77.5578C57.2816 77.3624 57.302 77.1677 57.3424 76.9767L59.4522 76.2817C59.8636 75.3028 59.3682 74.8752 58.7939 74.8752C57.7966 74.8752 56.6546 76.5491 56.6546 78.0117C56.6546 78.6721 56.9672 79.0286 57.4544 79.0286C58.0253 79.0286 58.6211 78.4707 59.1083 77.5527L59.1099 77.5578ZM58.6887 74.4807L60.1697 73.0891V72.924H59.3699L58.4549 74.4757L58.6887 74.4807ZM54.3227 75.4645H54.8789L53.7664 78.5136C53.6678 78.7744 53.8043 79.0335 54.071 79.0335C54.7029 79.0335 55.7166 78.4062 56.0835 77.5478H55.8845C55.6031 77.8449 55.0615 78.2428 54.5975 78.327L55.6178 75.4612H56.6628L56.7912 75.0255H55.7774L56.1674 73.9243H55.7627L55.0386 75.0255L54.3227 75.1475V75.4645ZM53.7747 75.8079C53.9195 75.3126 53.8421 74.8752 53.462 74.8752C53.0111 74.8752 52.8975 75.2186 52.4401 76.2058V75.6396C52.4401 75.2351 52.31 74.8752 51.9464 74.8752C51.5202 74.8752 51.1236 75.5355 50.8339 76.1958H51.0314C51.2371 75.8987 51.4264 75.722 51.5795 75.722C51.7621 75.722 51.8609 76.0044 51.5795 76.6317L50.7565 78.4656C50.6035 78.8107 50.7565 79.032 51.0989 79.032C51.1857 79.044 51.2737 79.0222 51.3449 78.9707C51.4159 78.9194 51.4645 78.8426 51.4807 78.7562L52.2887 76.6102C52.5158 76.3278 52.7232 76.0836 52.9815 75.8079H53.7747ZM49.0945 75.4414C49.3775 75.4414 49.6211 75.6544 49.4912 76.1975L48.1746 76.5029C48.4033 75.8921 48.7834 75.4414 49.088 75.4414H49.0945ZM49.8119 77.5578H49.5668C49.2376 77.9489 48.8888 78.2544 48.5383 78.2544C48.1878 78.2544 47.9969 78.0397 47.9969 77.5578C47.9976 77.3625 48.0181 77.1679 48.0577 76.9767L50.169 76.2817C50.5805 75.3028 50.0852 74.8752 49.5108 74.8752C48.512 74.8752 47.3714 76.5491 47.3714 78.0117C47.3714 78.6721 47.6841 79.0286 48.1713 79.0286C48.744 79.0286 49.3381 78.4707 49.817 77.5527L49.8119 77.5578ZM44.6431 78.4096C44.4373 78.4096 44.1394 78.218 44.1394 78.0497C44.1941 77.8491 44.2627 77.6528 44.3451 77.462L44.6891 76.5524C45.0544 76.1166 45.6107 75.6494 45.9233 75.6494C46.1142 75.6494 46.2525 75.7716 46.2525 76.0555C46.2525 76.8809 45.4741 78.4096 44.6365 78.4096H44.6431ZM47.0375 75.7188C47.0375 75.0997 46.8088 74.8702 46.3792 74.8702C45.846 74.8702 45.3441 75.4365 44.8405 76.1232L46.1127 72.7688L46.0616 72.6929L44.7269 72.8448V73.0098L44.987 73.2096C45.2223 73.3928 45.1515 73.5843 44.9326 74.134L43.5619 77.6815C43.4701 77.891 43.3962 78.1081 43.3413 78.3302C43.3413 78.6984 43.835 79.0418 44.286 79.0418C45.3226 79.0418 47.0522 77.1698 47.0522 75.7319L47.0375 75.7188ZM42.9068 75.3275C42.9278 75.2822 42.9378 75.2325 42.9357 75.1826C42.9336 75.1325 42.9197 75.0839 42.895 75.0405C42.8704 74.997 42.8358 74.96 42.794 74.9327C42.7524 74.9055 42.7047 74.8885 42.6551 74.8835C42.0445 74.8835 41.3205 75.4332 41.0325 76.2041H41.23C41.4274 75.9218 41.7632 75.6082 42.0759 75.5537L40.909 78.5978C40.8879 78.6422 40.8778 78.6913 40.8796 78.7406C40.8814 78.7899 40.8952 78.8381 40.9195 78.8809C40.9439 78.9238 40.9784 78.9601 41.0199 78.9866C41.0612 79.0132 41.1086 79.0293 41.1575 79.0335C41.7369 79.0335 42.4149 78.4756 42.7044 77.7129H42.507C42.3095 77.9935 41.9804 78.3056 41.6644 78.3616L42.9068 75.3275ZM43.1191 73.7972C43.1861 73.7979 43.2527 73.785 43.3146 73.7595C43.3767 73.734 43.4329 73.6963 43.4803 73.6487C43.5275 73.6009 43.5647 73.5443 43.5897 73.4819C43.6148 73.4195 43.6272 73.3527 43.626 73.2856C43.6248 73.1519 43.5712 73.0242 43.4771 72.9297C43.3829 72.8353 43.2556 72.7816 43.1225 72.7803C43.0563 72.7803 42.991 72.7934 42.9299 72.8189C42.869 72.8442 42.8136 72.8815 42.7669 72.9285C42.7203 72.9753 42.6834 73.0311 42.6583 73.0923C42.6331 73.1535 42.6204 73.2193 42.6205 73.2856C42.6194 73.352 42.6317 73.4179 42.6565 73.4795C42.6813 73.541 42.7182 73.597 42.7651 73.644C42.8119 73.691 42.8677 73.728 42.9291 73.7529C42.9905 73.7779 43.0562 73.7901 43.1225 73.789L43.1191 73.7972ZM40.0518 73.2937H37.2755L37.1981 73.5315C38.0209 73.6966 38.0901 73.7758 37.7099 74.8307L36.8098 77.3447C36.4297 78.3914 36.2684 78.4756 35.3287 78.6439L35.2596 78.88H39.4856L40.3989 77.2458H40.0796C39.5612 77.8186 38.9508 78.5367 38.0143 78.5367C37.3052 78.5367 37.2212 78.4145 37.603 77.3447L38.5015 74.8389C38.8751 73.7906 39.0428 73.7064 39.9825 73.5398L40.0518 73.2937Z" fill="var(--fill-0, black)"/>
<path id="Vector_26" d="M175.593 52.2272C178.878 52.2272 181.434 50.6628 182.998 48.1591V43.621L175.906 44.8208C172.619 45.3947 171.263 46.8026 171.263 48.785C171.263 50.8193 172.88 52.2272 175.593 52.2272ZM165.839 48.9936C165.839 45.0295 168.917 42.1605 174.497 41.2218L182.998 39.8135V38.4576C182.998 35.224 180.599 33.2416 177.209 33.2416C174.34 33.2416 172.098 34.5454 170.586 36.6845L166.569 33.6069C168.917 30.4773 172.671 28.4955 177.366 28.4955C184.459 28.4955 188.372 32.6683 188.372 38.4576V55.826H182.998V52.8531C181.122 55.1481 177.835 56.608 174.601 56.608C169.386 56.608 165.839 53.6351 165.839 48.9936Z" fill="var(--fill-0, #2B3E88)"/>
<path id="Vector_27" d="M191.292 29.5387H196.664V32.0944C198.646 30.0079 201.254 28.4955 205.01 28.4955C210.799 28.4955 215.232 32.4071 215.232 40.022V55.826H209.808V40.2307C209.808 36.0584 207.513 33.5549 203.758 33.5549C200.159 33.5549 198.021 35.7972 196.664 38.0922V55.826H191.292V29.5387Z" fill="var(--fill-0, #2B3E88)"/>
<path id="Vector_28" d="M187.583 81.7348L191.91 85.0473C189.454 88.3592 185.499 90.4965 180.53 90.4965C171.502 90.4965 165.839 83.8182 165.839 75.9647C165.839 68.1112 171.502 61.433 180.53 61.433C185.445 61.433 189.454 63.5704 191.91 66.8829L187.583 70.1948C186.087 68.1112 183.629 66.6157 180.53 66.6157C175.348 66.6157 171.609 70.6758 171.609 75.9647C171.609 81.3075 175.348 85.3144 180.584 85.3144C183.629 85.3144 186.087 83.8182 187.583 81.7348Z" fill="var(--fill-0, #2B3E88)"/>
<path id="Vector_29" d="M200.402 68.0161H194.566V63.166H200.402V56.5935H205.827V63.166H215.232V68.0161H205.827V80.3258C205.827 83.872 207.703 85.02 210.624 85.02C212.398 85.02 214.294 84.8113 215.232 84.4461V89.1927C213.98 89.714 211.824 89.9747 209.79 89.9747C203.635 89.9747 200.402 86.7411 200.402 80.3258V68.0161Z" fill="var(--fill-0, #2B3E88)"/>
<path id="Vector_30" d="M218.881 24.885V28.4956H224.107V23.4303C224.107 21.6022 222.482 19.7386 220.658 19.6204H215.232V24.6612L218.881 24.885Z" fill="var(--fill-0, #2B3E88)"/>
<path id="Vector_31" d="M223.677 98.9099V77.0803H228.905V100.365C228.905 102.193 227.279 104.056 225.456 104.174H201.81V99.1337L223.677 98.9099Z" fill="var(--fill-0, #7B96C9)"/>
<path id="Vector_32" d="M162.19 94.2392V90.6286H156.964V95.6938C156.964 97.5219 158.589 99.3856 160.412 99.5037H165.839V94.463L162.19 94.2392Z" fill="var(--fill-0, #2B3E88)"/>
<path id="Vector_33" d="M162.19 24.885V28.4956H156.964V23.4303C156.964 21.6022 158.589 19.7386 160.412 19.6204H165.839V24.6612L162.19 24.885Z" fill="var(--fill-0, #2B3E88)"/>
<path id="Vector_34" d="M239.421 77.031L242.045 74.6345C242.726 75.5174 243.584 76.2742 244.719 76.2742C245.45 76.2742 245.803 75.8958 245.803 75.3913C245.803 73.6506 239.926 74.357 239.926 69.8919C239.926 67.4702 241.969 65.7296 244.769 65.7296C246.787 65.7296 248.704 66.7134 249.663 67.9495L247.04 70.2955C246.434 69.5892 245.677 68.9081 244.769 68.9081C244.063 68.9081 243.735 69.2613 243.735 69.6901C243.735 71.3298 249.613 70.6739 249.613 75.1138C249.562 77.9896 247.216 79.4527 244.769 79.4527C242.322 79.4527 240.708 78.4941 239.421 77.031ZM258.159 65.7296C262.321 65.7296 265.172 68.7063 265.172 72.5911C265.172 76.476 262.321 79.4527 258.159 79.4527C253.971 79.4527 251.121 76.476 251.121 72.5911C251.121 68.7063 253.971 65.7296 258.159 65.7296ZM258.184 75.694C259.798 75.694 261.035 74.4579 261.035 72.5911C261.035 70.6739 259.798 69.4883 258.184 69.4883C256.519 69.4883 255.283 70.6992 255.283 72.5911C255.283 74.4831 256.519 75.694 258.184 75.694ZM273.896 75.694C274.905 75.694 275.712 75.1894 276.166 74.5336L279.294 76.9048C278.108 78.4689 276.217 79.4527 273.87 79.4527C269.38 79.4527 266.807 76.2994 266.807 72.5911C266.807 68.8829 269.38 65.7296 273.87 65.7296C276.217 65.7296 278.108 66.7134 279.294 68.2774L276.166 70.6487C275.712 69.9928 274.93 69.4883 273.82 69.4883C272.18 69.4883 270.969 70.7244 270.969 72.5911C270.969 74.4831 272.18 75.694 273.896 75.694ZM283.053 64.8467C281.665 64.8467 280.505 63.661 280.505 62.2988C280.505 60.9366 281.665 59.7762 283.053 59.7762C284.39 59.7762 285.55 60.9366 285.55 62.2988C285.55 63.661 284.39 64.8467 283.053 64.8467ZM281.01 78.9482V66.2341H285.02V78.9482H281.01ZM296.147 64.216H292.338L294.936 60.0285H299.224L296.147 64.216ZM300.082 76.9048C298.871 78.4941 296.878 79.4527 294.431 79.4527C289.764 79.4527 287.292 76.2994 287.292 72.5911C287.292 68.9081 289.588 65.7296 293.902 65.7296C297.509 65.7296 299.88 68.1261 299.88 71.5821C299.88 72.4398 299.754 73.247 299.628 73.7011H291.404C291.783 75.4165 292.892 75.8705 294.406 75.8705C295.617 75.8705 296.676 75.3913 297.257 74.6597L300.082 76.9048ZM293.801 68.9585C292.514 68.9585 291.732 69.5892 291.429 70.8757H295.995C295.945 70.0181 295.289 68.9585 293.801 68.9585ZM303.238 74.0038V69.8162H300.867V66.2341H303.238V63.0556H307.274V66.2341H310.755V69.8162H307.274V74.0038C307.274 75.0129 307.804 75.5678 308.864 75.5678C309.797 75.5678 310.402 75.4417 310.781 75.2903V78.7463C310.1 79.0491 309.318 79.2004 308.132 79.2004C304.676 79.2004 303.238 77.1319 303.238 74.0038ZM320.892 64.216H317.083L319.681 60.0285H323.97L320.892 64.216ZM324.828 76.9048C323.617 78.4941 321.624 79.4527 319.177 79.4527C314.51 79.4527 312.038 76.2994 312.038 72.5911C312.038 68.9081 314.333 65.7296 318.647 65.7296C322.254 65.7296 324.626 68.1261 324.626 71.5821C324.626 72.4398 324.5 73.247 324.373 73.7011H316.15C316.528 75.4165 317.638 75.8705 319.152 75.8705C320.363 75.8705 321.422 75.3913 322.002 74.6597L324.828 76.9048ZM318.546 68.9585C317.26 68.9585 316.478 69.5892 316.175 70.8757H320.741C320.69 70.0181 320.035 68.9585 318.546 68.9585ZM240.355 102.773V90.0589H244.366V90.7653C245.198 90.0589 246.258 89.5544 247.746 89.5544C250.445 89.5544 252.665 91.4464 252.665 95.306V102.773H248.629V95.4826C248.629 94.196 247.948 93.3131 246.661 93.3131C245.248 93.3131 244.618 94.4231 244.366 94.8519V102.773H240.355ZM263.62 97.2484V90.0589H267.656V97.0214C267.656 100.831 265.386 103.278 261.476 103.278C257.515 103.278 255.321 100.831 255.321 97.0214V90.0589H259.357V97.2484C259.357 98.5854 260.013 99.5188 261.501 99.5188C262.939 99.5188 263.62 98.5854 263.62 97.2484ZM270.421 102.773V90.0589H274.432V90.7148C275.189 90.0589 276.198 89.5544 277.561 89.5544C279.049 89.5544 280.361 90.1598 281.218 91.3959C282.051 90.4121 283.211 89.5544 285.305 89.5544C287.853 89.5544 289.972 91.3707 289.972 95.0537V102.773H285.936V95.2303C285.936 94.0951 285.355 93.3131 284.22 93.3131C282.934 93.3131 282.429 94.4231 282.227 94.751C282.227 94.8519 282.227 94.9528 282.227 95.0537V102.773H278.191V95.2303C278.191 94.0951 277.611 93.3131 276.476 93.3131C275.214 93.3131 274.71 94.4231 274.432 94.8519V102.773H270.421ZM300.98 88.0408H297.171L299.769 83.8533H304.058L300.98 88.0408ZM304.916 100.73C303.705 102.319 301.712 103.278 299.265 103.278C294.598 103.278 292.126 100.124 292.126 96.4159C292.126 92.7329 294.421 89.5544 298.735 89.5544C302.343 89.5544 304.714 91.9509 304.714 95.4069C304.714 96.2646 304.588 97.0718 304.462 97.5259H296.238C296.616 99.2413 297.726 99.6954 299.24 99.6954C300.451 99.6954 301.51 99.2161 302.09 98.4845L304.916 100.73ZM298.634 92.7834C297.348 92.7834 296.566 93.414 296.263 94.7006H300.829C300.779 93.8429 300.123 92.7834 298.634 92.7834ZM307.19 102.773V90.0589H311.201V91.0932C311.983 90.3616 312.967 89.8067 314.279 89.8067C314.733 89.8067 315.136 89.8823 315.439 89.9833V93.9438C315.01 93.8429 314.531 93.7672 313.875 93.7672C312.412 93.7672 311.453 94.6249 311.201 95.0537V102.773H307.19ZM319.377 88.6715C317.99 88.6715 316.829 87.4859 316.829 86.1236C316.829 84.7614 317.99 83.601 319.377 83.601C320.714 83.601 321.875 84.7614 321.875 86.1236C321.875 87.4859 320.714 88.6715 319.377 88.6715ZM317.334 102.773V90.0589H321.345V102.773H317.334ZM323.591 96.4159C323.591 92.7077 325.963 89.5544 329.999 89.5544C331.563 89.5544 332.673 89.9833 333.531 90.7653V90.0589H337.567V108.979H333.531V102.067C332.673 102.849 331.563 103.278 329.999 103.278C325.963 103.278 323.591 100.124 323.591 96.4159ZM327.729 96.4159C327.729 98.2827 328.813 99.5188 330.579 99.5188C331.866 99.5188 332.85 98.9638 333.531 98.0304V94.8015C332.774 93.8429 331.815 93.3131 330.579 93.3131C328.813 93.3131 327.729 94.5492 327.729 96.4159ZM348.624 97.2484V90.0589H352.661V97.0214C352.661 100.831 350.39 103.278 346.48 103.278C342.52 103.278 340.325 100.831 340.325 97.0214V90.0589H344.361V97.2484C344.361 98.5854 345.017 99.5188 346.505 99.5188C347.943 99.5188 348.624 98.5854 348.624 97.2484ZM367.46 100.73C366.249 102.319 364.256 103.278 361.809 103.278C357.142 103.278 354.67 100.124 354.67 96.4159C354.67 92.7329 356.966 89.5544 361.28 89.5544C364.887 89.5544 367.258 91.9509 367.258 95.4069C367.258 96.2646 367.132 97.0718 367.006 97.5259H358.782C359.161 99.2413 360.27 99.6954 361.784 99.6954C362.995 99.6954 364.054 99.2161 364.635 98.4845L367.46 100.73ZM361.179 92.7834C359.892 92.7834 359.11 93.414 358.807 94.7006H363.373C363.323 93.8429 362.667 92.7834 361.179 92.7834Z" fill="var(--fill-0, #7B96C9)"/>
</g>
</svg>
