<svg preserveAspectRatio="none" width="100%" height="100%" overflow="visible" style="display: block;" viewBox="0 0 50 50" fill="none" xmlns="http://www.w3.org/2000/svg">
<g id="MEDNUM">
<rect width="50" height="50" rx="6.66667" fill="var(--fill-0, white)"/>
<path id="Vector" d="M30.1155 19.6124L27.1009 17.9022C26.4054 17.4968 26.1153 16.6268 26.5215 15.9309L29.5356 10.7432C29.9414 10.0476 30.84 9.78652 31.5355 10.1923L34.5501 11.9025C35.2456 12.2793 35.5068 13.1779 35.101 13.8734L32.1154 19.0616C31.7096 19.7571 30.811 20.0182 30.1155 19.6124ZM19.7968 10.7718L27.4777 23.931C28.0576 24.8876 28.0576 26.105 27.5067 27.0906L19.9995 40.1918C19.5941 40.8873 18.6955 41.1484 17.9996 40.7427L14.9854 39.0325C14.2899 38.6557 14.0288 37.7567 14.4345 37.0612L19.2459 28.7428L9.50709 28.8008C8.69552 28.8008 8.02862 28.1629 8.02862 27.3513L8 23.9024C8 23.1194 8.63749 22.4529 9.44906 22.4529L19.1883 22.3949L14.2895 13.989C13.8841 13.2935 14.1158 12.3953 14.8113 11.9895L17.7969 10.2503C18.4924 9.84455 19.391 10.0763 19.7968 10.7718ZM32.1444 31.902C31.7386 31.2065 30.84 30.9744 30.1445 31.3802L27.1589 33.1194C26.4634 33.5252 26.2313 34.4238 26.6371 35.1193L29.6517 40.2788C30.0575 40.9744 30.9561 41.2061 31.6516 40.8003L34.6372 39.0615C35.3327 38.6557 35.5648 37.7571 35.159 37.0616L32.1444 31.902ZM39.9414 22.2788L33.9416 22.3078C33.1587 22.3078 32.4922 22.9747 32.4922 23.7863L32.5212 27.2353C32.5502 28.0469 33.1881 28.6848 33.9997 28.6848L39.9994 28.6557C40.811 28.6267 41.4485 27.9892 41.4485 27.1773L41.4195 23.7283C41.3908 22.9167 40.7529 22.2788 39.9414 22.2788Z" fill="var(--fill-0, #1A51AF)"/>
</g>
</svg>
